  0
SECTION
  2
HEADER
  9
$ACADVER
  1
AC1027
  9
$ACADMAINTVER
 70
105
  9
$DWGCODEPAGE
  3
ANSI_1252
  9
$LASTSAVEDBY
  1
ezdxf
  9
$REQUIREDVERSIONS
160
0
  9
$INSBASE
 10
0.0
 20
0.0
 30
0.0
  9
$EXTMIN
 10
1e+20
 20
1e+20
 30
1e+20
  9
$EXTMAX
 10
-1e+20
 20
-1e+20
 30
-1e+20
  9
$LIMMIN
 10
0.0
 20
0.0
  9
$LIMMAX
 10
420.0
 20
297.0
  9
$ORTHOMODE
 70
0
  9
$REGENMODE
 70
1
  9
$FILLMODE
 70
1
  9
$QTEXTMODE
 70
0
  9
$MIRRTEXT
 70
1
  9
$LTSCALE
 40
1.0
  9
$ATTMODE
 70
1
  9
$TEXTSIZE
 40
2.5
  9
$TRACEWID
 40
1.0
  9
$TEXTSTYLE
  7
Standard
  9
$CLAYER
  8
0
  9
$CELTYPE
  6
ByLayer
  9
$CECOLOR
 62
256
  9
$CELTSCALE
 40
1.0
  9
$DISPSILH
 70
0
  9
$DIMSCALE
 40
1.0
  9
$DIMASZ
 40
2.5
  9
$DIMEXO
 40
0.625
  9
$DIMDLI
 40
3.75
  9
$DIMRND
 40
0.0
  9
$DIMDLE
 40
0.0
  9
$DIMEXE
 40
1.25
  9
$DIMTP
 40
0.0
  9
$DIMTM
 40
0.0
  9
$DIMTXT
 40
2.5
  9
$DIMCEN
 40
2.5
  9
$DIMTSZ
 40
0.0
  9
$DIMTOL
 70
0
  9
$DIMLIM
 70
0
  9
$DIMTIH
 70
0
  9
$DIMTOH
 70
0
  9
$DIMSE1
 70
0
  9
$DIMSE2
 70
0
  9
$DIMTAD
 70
1
  9
$DIMZIN
 70
8
  9
$DIMBLK
  1

  9
$DIMASO
 70
1
  9
$DIMSHO
 70
1
  9
$DIMPOST
  1

  9
$DIMAPOST
  1

  9
$DIMALT
 70
0
  9
$DIMALTD
 70
3
  9
$DIMALTF
 40
0.03937007874
  9
$DIMLFAC
 40
1.0
  9
$DIMTOFL
 70
1
  9
$DIMTVP
 40
0.0
  9
$DIMTIX
 70
0
  9
$DIMSOXD
 70
0
  9
$DIMSAH
 70
0
  9
$DIMBLK1
  1

  9
$DIMBLK2
  1

  9
$DIMSTYLE
  2
ISO-25
  9
$DIMCLRD
 70
0
  9
$DIMCLRE
 70
0
  9
$DIMCLRT
 70
0
  9
$DIMTFAC
 40
1.0
  9
$DIMGAP
 40
0.625
  9
$DIMJUST
 70
0
  9
$DIMSD1
 70
0
  9
$DIMSD2
 70
0
  9
$DIMTOLJ
 70
0
  9
$DIMTZIN
 70
8
  9
$DIMALTZ
 70
0
  9
$DIMALTTZ
 70
0
  9
$DIMUPT
 70
0
  9
$DIMDEC
 70
2
  9
$DIMTDEC
 70
2
  9
$DIMALTU
 70
2
  9
$DIMALTTD
 70
3
  9
$DIMTXSTY
  7
Standard
  9
$DIMAUNIT
 70
0
  9
$DIMADEC
 70
0
  9
$DIMALTRND
 40
0.0
  9
$DIMAZIN
 70
0
  9
$DIMDSEP
 70
44
  9
$DIMATFIT
 70
3
  9
$DIMFRAC
 70
0
  9
$DIMLDRBLK
  1

  9
$DIMLUNIT
 70
2
  9
$DIMLWD
 70
-2
  9
$DIMLWE
 70
-2
  9
$DIMTMOVE
 70
0
  9
$DIMFXL
 40
1.0
  9
$DIMFXLON
 70
0
  9
$DIMJOGANG
 40
0.785398163397
  9
$DIMTFILL
 70
0
  9
$DIMTFILLCLR
 70
0
  9
$DIMARCSYM
 70
0
  9
$DIMLTYPE
  6

  9
$DIMLTEX1
  6

  9
$DIMLTEX2
  6

  9
$DIMTXTDIRECTION
 70
0
  9
$LUNITS
 70
2
  9
$LUPREC
 70
4
  9
$SKETCHINC
 40
1.0
  9
$FILLETRAD
 40
10.0
  9
$AUNITS
 70
0
  9
$AUPREC
 70
2
  9
$MENU
  1
.
  9
$ELEVATION
 40
0.0
  9
$PELEVATION
 40
0.0
  9
$THICKNESS
 40
0.0
  9
$LIMCHECK
 70
0
  9
$CHAMFERA
 40
0.0
  9
$CHAMFERB
 40
0.0
  9
$CHAMFERC
 40
0.0
  9
$CHAMFERD
 40
0.0
  9
$SKPOLY
 70
0
  9
$TDCREATE
 40
2459952.4165046294
  9
$TDUCREATE
 40
2458532.153996898
  9
$TDUPDATE
 40
2459952.4165046294
  9
$TDUUPDATE
 40
2458532.1544311
  9
$TDINDWG
 40
0.0
  9
$TDUSRTIMER
 40
0.0
  9
$USRTIMER
 70
1
  9
$ANGBASE
 50
0.0
  9
$ANGDIR
 70
0
  9
$PDMODE
 70
0
  9
$PDSIZE
 40
0.0
  9
$PLINEWID
 40
0.0
  9
$SPLFRAME
 70
0
  9
$SPLINETYPE
 70
6
  9
$SPLINESEGS
 70
8
  9
$HANDSEED
  5
1B5
  9
$SURFTAB1
 70
6
  9
$SURFTAB2
 70
6
  9
$SURFTYPE
 70
6
  9
$SURFU
 70
6
  9
$SURFV
 70
6
  9
$UCSBASE
  2

  9
$UCSNAME
  2

  9
$UCSORG
 10
0.0
 20
0.0
 30
0.0
  9
$UCSXDIR
 10
1.0
 20
0.0
 30
0.0
  9
$UCSYDIR
 10
0.0
 20
1.0
 30
0.0
  9
$UCSORTHOREF
  2

  9
$UCSORTHOVIEW
 70
0
  9
$UCSORGTOP
 10
0.0
 20
0.0
 30
0.0
  9
$UCSORGBOTTOM
 10
0.0
 20
0.0
 30
0.0
  9
$UCSORGLEFT
 10
0.0
 20
0.0
 30
0.0
  9
$UCSORGRIGHT
 10
0.0
 20
0.0
 30
0.0
  9
$UCSORGFRONT
 10
0.0
 20
0.0
 30
0.0
  9
$UCSORGBACK
 10
0.0
 20
0.0
 30
0.0
  9
$PUCSBASE
  2

  9
$PUCSNAME
  2

  9
$PUCSORG
 10
0.0
 20
0.0
 30
0.0
  9
$PUCSXDIR
 10
1.0
 20
0.0
 30
0.0
  9
$PUCSYDIR
 10
0.0
 20
1.0
 30
0.0
  9
$PUCSORTHOREF
  2

  9
$PUCSORTHOVIEW
 70
0
  9
$PUCSORGTOP
 10
0.0
 20
0.0
 30
0.0
  9
$PUCSORGBOTTOM
 10
0.0
 20
0.0
 30
0.0
  9
$PUCSORGLEFT
 10
0.0
 20
0.0
 30
0.0
  9
$PUCSORGRIGHT
 10
0.0
 20
0.0
 30
0.0
  9
$PUCSORGFRONT
 10
0.0
 20
0.0
 30
0.0
  9
$PUCSORGBACK
 10
0.0
 20
0.0
 30
0.0
  9
$USERI1
 70
0
  9
$USERI2
 70
0
  9
$USERI3
 70
0
  9
$USERI4
 70
0
  9
$USERI5
 70
0
  9
$USERR1
 40
0.0
  9
$USERR2
 40
0.0
  9
$USERR3
 40
0.0
  9
$USERR4
 40
0.0
  9
$USERR5
 40
0.0
  9
$WORLDVIEW
 70
1
  9
$SHADEDGE
 70
3
  9
$SHADEDIF
 70
70
  9
$TILEMODE
 70
1
  9
$MAXACTVP
 70
64
  9
$PINSBASE
 10
0.0
 20
0.0
 30
0.0
  9
$PLIMCHECK
 70
0
  9
$PEXTMIN
 10
1e+20
 20
1e+20
 30
1e+20
  9
$PEXTMAX
 10
-1e+20
 20
-1e+20
 30
-1e+20
  9
$PLIMMIN
 10
0.0
 20
0.0
  9
$PLIMMAX
 10
420.0
 20
297.0
  9
$UNITMODE
 70
0
  9
$VISRETAIN
 70
1
  9
$PLINEGEN
 70
0
  9
$PSLTSCALE
 70
1
  9
$TREEDEPTH
 70
3020
  9
$CMLSTYLE
  2
Standard
  9
$CMLJUST
 70
0
  9
$CMLSCALE
 40
20.0
  9
$PROXYGRAPHICS
 70
1
  9
$MEASUREMENT
 70
1
  9
$CELWEIGHT
370
-1
  9
$ENDCAPS
280
0
  9
$JOINSTYLE
280
0
  9
$LWDISPLAY
290
0
  9
$INSUNITS
 70
6
  9
$HYPERLINKBASE
  1

  9
$STYLESHEET
  1

  9
$XEDIT
290
1
  9
$CEPSNTYPE
380
0
  9
$PSTYLEMODE
290
1
  9
$FINGERPRINTGUID
  2
{A91F7352-5A95-4247-9600-C19CDF06AB5A}
  9
$VERSIONGUID
  2
{BD7AF615-FE50-458D-BEA9-3BECDE8F8405}
  9
$EXTNAMES
290
1
  9
$PSVPSCALE
 40
0.0
  9
$OLESTARTUP
290
0
  9
$SORTENTS
280
127
  9
$INDEXCTL
280
0
  9
$HIDETEXT
280
1
  9
$XCLIPFRAME
280
0
  9
$HALOGAP
280
0
  9
$OBSCOLOR
 70
257
  9
$OBSLTYPE
280
0
  9
$INTERSECTIONDISPLAY
280
0
  9
$INTERSECTIONCOLOR
 70
257
  9
$DIMASSOC
280
2
  9
$PROJECTNAME
  1

  9
$CAMERADISPLAY
290
0
  9
$LENSLENGTH
 40
50.0
  9
$CAMERAHEIGHT
 40
0.0
  9
$STEPSPERSEC
 40
24.0
  9
$STEPSIZE
 40
100.0
  9
$3DDWFPREC
 40
2.0
  9
$PSOLWIDTH
 40
0.005
  9
$PSOLHEIGHT
 40
0.08
  9
$LOFTANG1
 40
1.570796326795
  9
$LOFTANG2
 40
1.570796326795
  9
$LOFTMAG1
 40
0.0
  9
$LOFTMAG2
 40
0.0
  9
$LOFTPARAM
 70
7
  9
$LOFTNORMALS
280
1
  9
$LATITUDE
 40
37.795
  9
$LONGITUDE
 40
-122.394
  9
$NORTHDIRECTION
 40
0.0
  9
$TIMEZONE
 70
-8000
  9
$LIGHTGLYPHDISPLAY
280
1
  9
$TILEMODELIGHTSYNCH
280
1
  9
$CMATERIAL
347
20
  9
$SOLIDHIST
280
0
  9
$SHOWHIST
280
1
  9
$DWFFRAME
280
2
  9
$DGNFRAME
280
2
  9
$REALWORLDSCALE
290
1
  9
$INTERFERECOLOR
 62
256
  9
$CSHADOW
280
0
  9
$SHADOWPLANELOCATION
 40
0.0
  0
ENDSEC
  0
SECTION
  2
CLASSES
  0
CLASS
  1
ACDBDICTIONARYWDFLT
  2
AcDbDictionaryWithDefault
  3
ObjectDBX Classes
 90
0
 91
0
280
0
281
0
  0
CLASS
  1
SUN
  2
AcDbSun
  3
SCENEOE
 90
1153
 91
0
280
0
281
0
  0
CLASS
  1
VISUALSTYLE
  2
AcDbVisualStyle
  3
ObjectDBX Classes
 90
4095
 91
0
280
0
281
0
  0
CLASS
  1
MATERIAL
  2
AcDbMaterial
  3
ObjectDBX Classes
 90
1153
 91
0
280
0
281
0
  0
CLASS
  1
SCALE
  2
AcDbScale
  3
ObjectDBX Classes
 90
1153
 91
0
280
0
281
0
  0
CLASS
  1
TABLESTYLE
  2
AcDbTableStyle
  3
ObjectDBX Classes
 90
4095
 91
0
280
0
281
0
  0
CLASS
  1
MLEADERSTYLE
  2
AcDbMLeaderStyle
  3
ACDB_MLEADERSTYLE_CLASS
 90
4095
 91
0
280
0
281
0
  0
CLASS
  1
DICTIONARYVAR
  2
AcDbDictionaryVar
  3
ObjectDBX Classes
 90
0
 91
0
280
0
281
0
  0
CLASS
  1
CELLSTYLEMAP
  2
AcDbCellStyleMap
  3
ObjectDBX Classes
 90
1152
 91
0
280
0
281
0
  0
CLASS
  1
MENTALRAYRENDERSETTINGS
  2
AcDbMentalRayRenderSettings
  3
SCENEOE
 90
1024
 91
0
280
0
281
0
  0
CLASS
  1
ACDBDETAILVIEWSTYLE
  2
AcDbDetailViewStyle
  3
ObjectDBX Classes
 90
1025
 91
0
280
0
281
0
  0
CLASS
  1
ACDBSECTIONVIEWSTYLE
  2
AcDbSectionViewStyle
  3
ObjectDBX Classes
 90
1025
 91
0
280
0
281
0
  0
CLASS
  1
RASTERVARIABLES
  2
AcDbRasterVariables
  3
ISM
 90
0
 91
0
280
0
281
0
  0
CLASS
  1
LAYOUT
  2
AcDbLayout
  3
ObjectDBX Classes
 90
0
 91
0
280
0
281
0
  0
CLASS
  1
ACDBPLACEHOLDER
  2
AcDbPlaceHolder
  3
ObjectDBX Classes
 90
0
 91
0
280
0
281
0
  0
ENDSEC
  0
SECTION
  2
TABLES
  0
TABLE
  2
VPORT
  5
8
330
0
100
AcDbSymbolTable
 70
1
  0
VPORT
  5
23
330
8
100
AcDbSymbolTableRecord
100
AcDbViewportTableRecord
  2
*Active
 70
0
 10
0.0
 20
0.0
 11
1.0
 21
1.0
 12
0.0
 22
0.0
 13
0.0
 23
0.0
 14
0.5
 24
0.5
 15
0.5
 25
0.5
 16
0.0
 26
0.0
 36
1.0
 17
0.0
 27
0.0
 37
0.0
 40
1000.0
 41
1.34
 42
50.0
 43
0.0
 44
0.0
 50
0.0
 51
0.0
 71
0
 72
1000
 73
1
 74
3
 75
0
 76
0
 77
0
 78
0
281
0
 65
0
146
0.0
  0
ENDTAB
  0
TABLE
  2
LTYPE
  5
2
330
0
100
AcDbSymbolTable
 70
3
  0
LTYPE
  5
24
330
2
100
AcDbSymbolTableRecord
100
AcDbLinetypeTableRecord
  2
ByBlock
 70
0
  3

 72
65
 73
0
 40
0.0
  0
LTYPE
  5
25
330
2
100
AcDbSymbolTableRecord
100
AcDbLinetypeTableRecord
  2
ByLayer
 70
0
  3

 72
65
 73
0
 40
0.0
  0
LTYPE
  5
26
330
2
100
AcDbSymbolTableRecord
100
AcDbLinetypeTableRecord
  2
Continuous
 70
0
  3

 72
65
 73
0
 40
0.0
  0
ENDTAB
  0
TABLE
  2
LAYER
  5
1
330
0
100
AcDbSymbolTable
 70
2
  0
LAYER
  5
27
330
1
100
AcDbSymbolTableRecord
100
AcDbLayerTableRecord
  2
0
 70
0
 62
7
  6
Continuous
370
-3
390
13
347
21
  0
LAYER
  5
28
330
1
100
AcDbSymbolTableRecord
100
AcDbLayerTableRecord
  2
Defpoints
 70
0
 62
7
  6
Continuous
290
0
370
-3
390
13
347
21
  0
ENDTAB
  0
TABLE
  2
STYLE
  5
5
330
0
100
AcDbSymbolTable
 70
1
  0
STYLE
  5
29
330
5
100
AcDbSymbolTableRecord
100
AcDbTextStyleTableRecord
  2
Standard
 70
0
 40
0.0
 41
1.0
 50
0.0
 71
0
 42
2.5
  3
txt
  4

  0
ENDTAB
  0
TABLE
  2
VIEW
  5
7
330
0
100
AcDbSymbolTable
 70
0
  0
ENDTAB
  0
TABLE
  2
UCS
  5
6
330
0
100
AcDbSymbolTable
 70
0
  0
ENDTAB
  0
TABLE
  2
APPID
  5
3
330
0
100
AcDbSymbolTable
 70
3
  0
APPID
  5
2A
330
3
100
AcDbSymbolTableRecord
100
AcDbRegAppTableRecord
  2
ACAD
 70
0
  0
APPID
  5
1B2
330
3
100
AcDbSymbolTableRecord
100
AcDbRegAppTableRecord
  2
HATCHBACKGROUNDCOLOR
 70
0
  0
APPID
  5
1B3
330
3
100
AcDbSymbolTableRecord
100
AcDbRegAppTableRecord
  2
EZDXF
 70
0
  0
ENDTAB
  0
TABLE
  2
DIMSTYLE
  5
4
330
0
100
AcDbSymbolTable
 70
1
100
AcDbDimStyleTable
  0
DIMSTYLE
105
2B
330
4
100
AcDbSymbolTableRecord
100
AcDbDimStyleTableRecord
  2
Standard
 70
0
 40
1.0
 41
2.5
 42
0.625
 43
3.75
 44
1.25
 45
0.0
 46
0.0
 47
0.0
 48
0.0
 49
2.5
140
2.5
141
2.5
142
0.0
143
0.03937007874
144
1.0
145
0.0
146
1.0
147
0.625
148
0.0
 69
0
 70
0
 71
0
 72
0
 73
0
 74
0
 75
0
 76
0
 77
1
 78
8
 79
3
170
0
171
3
172
1
173
0
174
0
175
0
176
0
177
0
178
0
179
2
271
2
272
2
273
2
274
3
275
0
276
0
277
2
278
44
279
0
280
0
281
0
282
0
283
0
284
8
285
0
286
0
288
0
289
3
290
0
371
-2
372
-2
  0
ENDTAB
  0
TABLE
  2
BLOCK_RECORD
  5
9
330
0
100
AcDbSymbolTable
 70
2
  0
BLOCK_RECORD
  5
17
330
9
100
AcDbSymbolTableRecord
100
AcDbBlockTableRecord
  2
*Model_Space
340
1A
 70
0
280
1
281
0
  0
BLOCK_RECORD
  5
1B
330
9
100
AcDbSymbolTableRecord
100
AcDbBlockTableRecord
  2
*Paper_Space
340
1E
 70
0
280
1
281
0
  0
ENDTAB
  0
ENDSEC
  0
SECTION
  2
BLOCKS
  0
BLOCK
  5
18
330
17
100
AcDbEntity
  8
0
100
AcDbBlockBegin
  2
*Model_Space
 70
0
 10
0.0
 20
0.0
 30
0.0
  3
*Model_Space
  1

  0
ENDBLK
  5
19
330
17
100
AcDbEntity
  8
0
100
AcDbBlockEnd
  0
BLOCK
  5
1C
330
1B
100
AcDbEntity
  8
0
100
AcDbBlockBegin
  2
*Paper_Space
 70
0
 10
0.0
 20
0.0
 30
0.0
  3
*Paper_Space
  1

  0
ENDBLK
  5
1D
330
1B
100
AcDbEntity
  8
0
100
AcDbBlockEnd
  0
ENDSEC
  0
SECTION
  2
ENTITIES
  0
LINE
  5
2F
330
17
100
AcDbEntity
  8
0
100
AcDbLine
 10
48.08397953439472
 20
-106.98410749322187
 30
-5.0
 11
43.838015254161
 21
-102.71977524177888
 31
-5.0
  0
LINE
  5
30
330
17
100
AcDbEntity
  8
0
100
AcDbLine
 10
43.838015254161
 20
-102.71977524177889
 30
-5.0
 11
37.373571996557324
 21
-93.8222324161014
 31
-5.0
  0
LINE
  5
31
330
17
100
AcDbEntity
  8
0
100
AcDbLine
 10
38.95922439673825
 20
-89.43733611605502
 30
-5.0
 11
37.37357199655731
 21
-93.8222324161014
 31
-5.0
  0
LINE
  5
32
330
17
100
AcDbEntity
  8
0
100
AcDbLine
 10
38.959224396738264
 20
-89.43733611605504
 30
-5.0
 11
28.9740049516137
 21
-78.34762643698389
 31
-5.0
  0
LINE
  5
33
330
17
100
AcDbEntity
  8
0
100
AcDbLine
 10
28.974004951613697
 20
-78.34762643698389
 30
-5.0
 11
21.727929531638853
 21
-66.15720891056807
 31
-5.0
  0
LINE
  5
34
330
17
100
AcDbEntity
  8
0
100
AcDbLine
 10
21.727929531638857
 20
-66.15720891056807
 30
-5.0
 11
6.5085401472826625
 21
-69.17195499541647
 31
-5.0
  0
LINE
  5
35
330
17
100
AcDbEntity
  8
0
100
AcDbLine
 10
-15.660210382360482
 20
-69.17195499541647
 30
-5.0
 11
6.508540147282668
 21
-69.17195499541647
 31
-5.0
  0
LINE
  5
36
330
17
100
AcDbEntity
  8
0
100
AcDbLine
 10
-15.660210382360486
 20
-69.17195499541647
 30
-5.0
 11
-16.499775404857665
 21
-67.17195652746744
 31
-5.0
  0
LINE
  5
37
330
17
100
AcDbEntity
  8
0
100
AcDbLine
 10
-22.605186569307243
 20
-51.92586062187465
 30
-5.0
 11
-16.499775404857665
 21
-67.17195652746744
 31
-5.0
  0
LINE
  5
38
330
17
100
AcDbEntity
  8
0
100
AcDbLine
 10
-22.60518656930724
 20
-51.92586062187464
 30
-5.0
 11
-53.26569015980927
 21
-51.92586062187464
 31
-5.0
  0
LINE
  5
39
330
17
100
AcDbEntity
  8
0
100
AcDbLine
 10
-53.265690159809274
 20
-51.92586062187466
 30
-4.999999999999999
 11
-62.55144864061949
 21
-41.783638844890056
 31
-4.999999999999999
  0
LINE
  5
3A
330
17
100
AcDbEntity
  8
0
100
AcDbLine
 10
-62.822713784525256
 20
-40.74836351887029
 30
-5.0
 11
-62.551448640619476
 21
-41.78363884489005
 31
-5.0
  0
LINE
  5
3B
330
17
100
AcDbEntity
  8
0
100
AcDbLine
 10
-62.82271378452609
 20
-40.748363518870285
 30
-5.0
 11
-62.53928984883381
 21
-25.682492035951594
 31
-5.0
  0
LINE
  5
3C
330
17
100
AcDbEntity
  8
0
100
AcDbLine
 10
-62.31464176153681
 20
-23.199298518468275
 30
-5.0
 11
-62.53928984883367
 21
-25.682492035951597
 31
-5.0
  0
LINE
  5
3D
330
17
100
AcDbEntity
  8
0
100
AcDbLine
 10
-62.31464176153684
 20
-23.199298518468275
 30
-5.0
 11
-61.935345089272495
 21
-14.950000000000003
 31
-5.0
  0
LINE
  5
3E
330
17
100
AcDbEntity
  8
0
100
AcDbLine
 10
-61.93534508927249
 20
2.9499999999999993
 30
-5.0
 11
-61.93534508927249
 21
-14.95
 31
-5.0
  0
LINE
  5
3F
330
17
100
AcDbEntity
  8
0
100
AcDbLine
 10
-61.93534508927248
 20
2.95
 30
-5.000000000000001
 11
-62.314641761536826
 21
11.199298518468275
 31
-5.000000000000001
  0
LINE
  5
40
330
17
100
AcDbEntity
  8
0
100
AcDbLine
 10
-62.31464176153681
 20
11.199298518468275
 30
-5.0
 11
-62.53928984883367
 21
13.68249203595159
 31
-5.0
  0
LINE
  5
41
330
17
100
AcDbEntity
  8
0
100
AcDbLine
 10
-62.82271378452526
 20
28.748363518870292
 30
-5.0
 11
-62.53928984883521
 21
13.68249203595156
 31
-5.0
  0
LINE
  5
42
330
17
100
AcDbEntity
  8
0
100
AcDbLine
 10
-62.55144864061948
 20
29.783638844890053
 30
-5.0
 11
-62.82271378452526
 21
28.748363518870296
 31
-5.0
  0
LINE
  5
43
330
17
100
AcDbEntity
  8
0
100
AcDbLine
 10
-62.55144864061948
 20
29.78363884489005
 30
-5.0
 11
-53.26569015980927
 21
39.92586062187465
 31
-5.0
  0
LINE
  5
44
330
17
100
AcDbEntity
  8
0
100
AcDbLine
 10
-13.031259745785867
 20
39.92586062187464
 30
-5.0
 11
-53.26569015980927
 21
39.92586062187464
 31
-5.0
  0
LINE
  5
45
330
17
100
AcDbEntity
  8
0
100
AcDbLine
 10
-13.031259745785867
 20
39.92586062187465
 30
-5.0
 11
-7.37934699063949
 21
45.92586062187465
 31
-5.0
  0
LINE
  5
46
330
17
100
AcDbEntity
  8
0
100
AcDbLine
 10
10.08400134781025
 20
45.92586062187465
 30
-5.0
 11
-7.379346990639497
 21
45.92586062187465
 31
-5.0
  0
LINE
  5
47
330
17
100
AcDbEntity
  8
0
100
AcDbLine
 10
10.084001347810249
 20
45.925860621874655
 30
-5.0
 11
15.519310778351535
 21
48.745860621874655
 31
-5.0
  0
LINE
  5
48
330
17
100
AcDbEntity
  8
0
100
AcDbLine
 10
32.63052582356904
 20
48.74586062187465
 30
-5.0
 11
15.519310778351539
 21
48.74586062187465
 31
-5.0
  0
LINE
  5
49
330
17
100
AcDbEntity
  8
0
100
AcDbLine
 10
35.7528927269334
 20
45.92586062187465
 30
-5.0
 11
32.63052582356904
 21
48.745860621874655
 31
-5.0
  0
LINE
  5
4A
330
17
100
AcDbEntity
  8
0
100
AcDbLine
 10
71.98431712883632
 20
45.925860621874655
 30
-5.0
 11
35.752892726933396
 21
45.925860621874655
 31
-5.0
  0
LINE
  5
4B
330
17
100
AcDbEntity
  8
0
100
AcDbLine
 10
74.5665831781642
 20
42.55835137704281
 30
-5.000000000000002
 11
71.98431712883632
 21
45.92586062187465
 31
-5.000000000000002
  0
LINE
  5
4C
330
17
100
AcDbEntity
  8
0
100
AcDbLine
 10
84.0665831781642
 20
32.0583513770428
 30
-5.0
 11
74.56658317816418
 21
42.558351377042804
 31
-5.0
  0
LINE
  5
4D
330
17
100
AcDbEntity
  8
0
100
AcDbLine
 10
84.06658317816417
 20
32.05835137704281
 30
-5.0
 11
86.32702961090268
 21
14.671685473640647
 31
-5.0
  0
LINE
  5
4E
330
17
100
AcDbEntity
  8
0
100
AcDbLine
 10
86.68613433440387
 20
9.049999999999999
 30
-5.0
 11
86.32702961090271
 21
14.67168547364065
 31
-5.0
  0
LINE
  5
4F
330
17
100
AcDbEntity
  8
0
100
AcDbLine
 10
86.68613433440386
 20
9.050000000000002
 30
-5.0
 11
86.68613433440386
 21
-9.049999999999999
 31
-5.0
  0
LINE
  5
50
330
17
100
AcDbEntity
  8
0
100
AcDbLine
 10
86.6861343344039
 20
-9.05
 30
-5.0
 11
86.32702961090274
 21
-14.671685473640654
 31
-5.0
  0
LINE
  5
51
330
17
100
AcDbEntity
  8
0
100
AcDbLine
 10
84.0665831781642
 20
-32.05835137704281
 30
-5.0
 11
86.32702961090271
 21
-14.67168547364065
 31
-5.0
  0
LINE
  5
52
330
17
100
AcDbEntity
  8
0
100
AcDbLine
 10
84.06658317816421
 20
-32.05835137704282
 30
-5.0
 11
82.07322185149138
 21
-37.62785990725325
 31
-5.0
  0
LINE
  5
53
330
17
100
AcDbEntity
  8
0
100
AcDbLine
 10
90.10912556032865
 20
-44.370783745515766
 30
-5.0
 11
82.07322185149133
 21
-37.62785990725321
 31
-5.0
  0
LINE
  5
54
330
17
100
AcDbEntity
  8
0
100
AcDbLine
 10
90.10912556032928
 20
-44.37078374551505
 30
-5.0
 11
91.54444707289842
 21
-46.120970368901816
 31
-5.0
  0
LINE
  5
55
330
17
100
AcDbEntity
  8
0
100
AcDbLine
 10
91.54444707289841
 20
-46.12097036890181
 30
-5.0
 11
87.5933439705111
 21
-55.66532478401622
 31
-5.0
  0
LINE
  5
56
330
17
100
AcDbEntity
  8
0
100
AcDbLine
 10
87.59334397051113
 20
-55.66532478401621
 30
-5.0
 11
93.4147355808791
 21
-63.116366263425945
 31
-5.0
  0
LINE
  5
57
330
17
100
AcDbEntity
  8
0
100
AcDbLine
 10
97.02709359641891
 20
-70.29710485643153
 30
-5.0
 11
93.41473558087922
 21
-63.11636626342585
 31
-5.0
  0
LINE
  5
58
330
17
100
AcDbEntity
  8
0
100
AcDbLine
 10
97.02709359641894
 20
-70.29710485643153
 30
-5.0
 11
96.6615008177099
 21
-73.31225605715127
 31
-5.0
  0
LINE
  5
59
330
17
100
AcDbEntity
  8
0
100
AcDbLine
 10
96.66150081770985
 20
-73.31225605715127
 30
-5.0
 11
95.36750092205705
 21
-81.68090670791076
 31
-5.0
  0
LINE
  5
5A
330
17
100
AcDbEntity
  8
0
100
AcDbLine
 10
81.35526261141716
 20
-93.18837905613884
 30
-5.0
 11
95.36750092205709
 21
-81.68090670791078
 31
-5.0
  0
LINE
  5
5B
330
17
100
AcDbEntity
  8
0
100
AcDbLine
 10
81.35526261141717
 20
-93.18837905613887
 30
-5.0
 11
79.05855415101098
 21
-94.24039485498008
 31
-5.0
  0
LINE
  5
5C
330
17
100
AcDbEntity
  8
0
100
AcDbLine
 10
76.73954311498468
 20
-94.24673200995623
 30
-5.0
 11
79.05855415101098
 21
-94.24039485498004
 31
-5.0
  0
LINE
  5
5D
330
17
100
AcDbEntity
  8
0
100
AcDbLine
 10
76.73954311498468
 20
-94.24673200995626
 30
-5.0
 11
62.85491333436118
 21
-106.5232391660575
 31
-5.0
  0
LINE
  5
5E
330
17
100
AcDbEntity
  8
0
100
AcDbLine
 10
49.217228285695306
 20
-107.09818172810698
 30
-5.0
 11
62.854913334361164
 21
-106.5232391660575
 31
-5.0
  0
LINE
  5
5F
330
17
100
AcDbEntity
  8
0
100
AcDbLine
 10
48.419014355402595
 20
-107.14921046612051
 30
-4.999999999999999
 11
49.21722828569531
 21
-107.09818172810697
 31
-4.999999999999999
  0
LINE
  5
60
330
17
100
AcDbEntity
  8
0
100
AcDbLine
 10
48.41901435540259
 20
-107.14921046612052
 30
-5.0
 11
48.08397953439471
 21
-106.98410749322187
 31
-5.0
  0
CIRCLE
  5
61
330
17
100
AcDbEntity
  8
0
100
AcDbCircle
 10
46.155774558668334
 20
-93.00835137704281
 30
-5.0
 40
2.0
  0
CIRCLE
  5
62
330
17
100
AcDbEntity
  8
0
100
AcDbCircle
 10
-1.3216801551843933
 20
-63.58298051617433
 30
-5.0
 40
2.0
  0
CIRCLE
  5
63
330
17
100
AcDbEntity
  8
0
100
AcDbCircle
 10
-56.311237963180275
 20
-33.19730089791581
 30
-5.0
 40
2.0
  0
CIRCLE
  5
64
330
17
100
AcDbEntity
  8
0
100
AcDbCircle
 10
80.64680639453346
 20
-27.31501842534174
 30
-5.0
 40
2.0
  0
CIRCLE
  5
65
330
17
100
AcDbEntity
  8
0
100
AcDbCircle
 10
-56.311237963180275
 20
21.197300897915813
 30
-5.0
 40
2.0
  0
CIRCLE
  5
66
330
17
100
AcDbEntity
  8
0
100
AcDbCircle
 10
80.64680639453346
 20
23.315018425341734
 30
-5.0
 40
2.0
  0
CIRCLE
  5
67
330
17
100
AcDbEntity
  8
0
100
AcDbCircle
 10
1.9208011001816785
 20
40.23730032546743
 30
-5.0
 40
2.0
  0
LINE
  5
68
330
17
100
AcDbEntity
  8
0
100
AcDbLine
 10
48.08397953439472
 20
-106.98410749322186
 30
-5.0
 11
48.08397953439472
 21
-106.98410749322186
 31
0.0
  0
LINE
  5
69
330
17
100
AcDbEntity
  8
0
100
AcDbLine
 10
43.83801525416099
 20
-102.71977524177888
 30
-5.0
 11
43.83801525416099
 21
-102.71977524177888
 31
0.0
  0
LINE
  5
6A
330
17
100
AcDbEntity
  8
0
100
AcDbLine
 10
48.08397953439472
 20
-106.98410749322187
 30
0.0
 11
43.838015254161
 21
-102.71977524177888
 31
0.0
  0
LINE
  5
6B
330
17
100
AcDbEntity
  8
0
100
AcDbLine
 10
48.419014355402595
 20
-107.14921046612051
 30
-5.0
 11
48.419014355402595
 21
-107.14921046612051
 31
0.0
  0
LINE
  5
6C
330
17
100
AcDbEntity
  8
0
100
AcDbLine
 10
48.41901435540259
 20
-107.14921046612052
 30
0.0
 11
48.08397953439471
 21
-106.98410749322187
 31
0.0
  0
LINE
  5
6D
330
17
100
AcDbEntity
  8
0
100
AcDbLine
 10
37.37357199655732
 20
-93.8222324161014
 30
-5.0
 11
37.37357199655732
 21
-93.8222324161014
 31
0.0
  0
LINE
  5
6E
330
17
100
AcDbEntity
  8
0
100
AcDbLine
 10
43.838015254161
 20
-102.71977524177889
 30
0.0
 11
37.373571996557324
 21
-93.8222324161014
 31
0.0
  0
LINE
  5
6F
330
17
100
AcDbEntity
  8
0
100
AcDbLine
 10
49.217228285695306
 20
-107.09818172810697
 30
-5.0
 11
49.217228285695306
 21
-107.09818172810697
 31
0.0
  0
LINE
  5
70
330
17
100
AcDbEntity
  8
0
100
AcDbLine
 10
48.419014355402595
 20
-107.14921046612051
 30
8.881784197001252e-16
 11
49.21722828569531
 21
-107.09818172810697
 31
8.881784197001252e-16
  0
LINE
  5
71
330
17
100
AcDbEntity
  8
0
100
AcDbLine
 10
38.95922439673826
 20
-89.43733611605502
 30
-5.0
 11
38.95922439673826
 21
-89.43733611605502
 31
0.0
  0
LINE
  5
72
330
17
100
AcDbEntity
  8
0
100
AcDbLine
 10
38.95922439673825
 20
-89.43733611605502
 30
0.0
 11
37.37357199655731
 21
-93.8222324161014
 31
0.0
  0
LINE
  5
73
330
17
100
AcDbEntity
  8
0
100
AcDbLine
 10
62.854913334361164
 20
-106.52323916605748
 30
-5.0
 11
62.854913334361164
 21
-106.52323916605748
 31
0.0
  0
LINE
  5
74
330
17
100
AcDbEntity
  8
0
100
AcDbLine
 10
49.217228285695306
 20
-107.09818172810698
 30
0.0
 11
62.854913334361164
 21
-106.5232391660575
 31
0.0
  0
LINE
  5
75
330
17
100
AcDbEntity
  8
0
100
AcDbLine
 10
28.974004951613697
 20
-78.34762643698389
 30
-5.0
 11
28.974004951613697
 21
-78.34762643698389
 31
0.0
  0
LINE
  5
76
330
17
100
AcDbEntity
  8
0
100
AcDbLine
 10
38.959224396738264
 20
-89.43733611605504
 30
0.0
 11
28.9740049516137
 21
-78.34762643698389
 31
0.0
  0
LINE
  5
77
330
17
100
AcDbEntity
  8
0
100
AcDbLine
 10
76.73954311498467
 20
-94.24673200995625
 30
-5.0
 11
76.73954311498467
 21
-94.24673200995625
 31
0.0
  0
LINE
  5
78
330
17
100
AcDbEntity
  8
0
100
AcDbLine
 10
76.73954311498468
 20
-94.24673200995626
 30
0.0
 11
62.85491333436118
 21
-106.5232391660575
 31
0.0
  0
LINE
  5
79
330
17
100
AcDbEntity
  8
0
100
AcDbLine
 10
21.727929531638857
 20
-66.15720891056807
 30
-5.0
 11
21.727929531638857
 21
-66.15720891056807
 31
0.0
  0
LINE
  5
7A
330
17
100
AcDbEntity
  8
0
100
AcDbLine
 10
28.974004951613697
 20
-78.34762643698389
 30
0.0
 11
21.727929531638853
 21
-66.15720891056807
 31
0.0
  0
LINE
  5
7B
330
17
100
AcDbEntity
  8
0
100
AcDbLine
 10
79.05855415101097
 20
-94.24039485498005
 30
-5.0
 11
79.05855415101097
 21
-94.24039485498005
 31
0.0
  0
LINE
  5
7C
330
17
100
AcDbEntity
  8
0
100
AcDbLine
 10
76.73954311498468
 20
-94.24673200995623
 30
0.0
 11
79.05855415101098
 21
-94.24039485498004
 31
0.0
  0
LINE
  5
7D
330
17
100
AcDbEntity
  8
0
100
AcDbLine
 10
6.5085401472826625
 20
-69.17195499541647
 30
-5.0
 11
6.5085401472826625
 21
-69.17195499541647
 31
0.0
  0
LINE
  5
7E
330
17
100
AcDbEntity
  8
0
100
AcDbLine
 10
21.727929531638857
 20
-66.15720891056807
 30
0.0
 11
6.5085401472826625
 21
-69.17195499541647
 31
0.0
  0
LINE
  5
7F
330
17
100
AcDbEntity
  8
0
100
AcDbLine
 10
81.35526261141716
 20
-93.18837905613884
 30
-5.0
 11
81.35526261141716
 21
-93.18837905613884
 31
0.0
  0
LINE
  5
80
330
17
100
AcDbEntity
  8
0
100
AcDbLine
 10
81.35526261141717
 20
-93.18837905613887
 30
0.0
 11
79.05855415101098
 21
-94.24039485498008
 31
0.0
  0
LINE
  5
81
330
17
100
AcDbEntity
  8
0
100
AcDbLine
 10
-15.660210382360484
 20
-69.17195499541647
 30
-5.0
 11
-15.660210382360484
 21
-69.17195499541647
 31
0.0
  0
LINE
  5
82
330
17
100
AcDbEntity
  8
0
100
AcDbLine
 10
-15.660210382360482
 20
-69.17195499541647
 30
0.0
 11
6.508540147282668
 21
-69.17195499541647
 31
0.0
  0
LINE
  5
83
330
17
100
AcDbEntity
  8
0
100
AcDbLine
 10
95.36750092205708
 20
-81.68090670791078
 30
-5.0
 11
95.36750092205708
 21
-81.68090670791078
 31
0.0
  0
LINE
  5
84
330
17
100
AcDbEntity
  8
0
100
AcDbLine
 10
81.35526261141716
 20
-93.18837905613884
 30
0.0
 11
95.36750092205709
 21
-81.68090670791078
 31
0.0
  0
LINE
  5
85
330
17
100
AcDbEntity
  8
0
100
AcDbLine
 10
-16.499775404857665
 20
-67.17195652746744
 30
-5.0
 11
-16.499775404857665
 21
-67.17195652746744
 31
0.0
  0
LINE
  5
86
330
17
100
AcDbEntity
  8
0
100
AcDbLine
 10
-15.660210382360486
 20
-69.17195499541647
 30
0.0
 11
-16.499775404857665
 21
-67.17195652746744
 31
0.0
  0
LINE
  5
87
330
17
100
AcDbEntity
  8
0
100
AcDbLine
 10
96.66150081770988
 20
-73.31225605715127
 30
-5.0
 11
96.66150081770988
 21
-73.31225605715127
 31
0.0
  0
LINE
  5
88
330
17
100
AcDbEntity
  8
0
100
AcDbLine
 10
96.66150081770985
 20
-73.31225605715127
 30
0.0
 11
95.36750092205705
 21
-81.68090670791076
 31
0.0
  0
LINE
  5
89
330
17
100
AcDbEntity
  8
0
100
AcDbLine
 10
-22.60518656930724
 20
-51.92586062187465
 30
-5.0
 11
-22.60518656930724
 21
-51.92586062187465
 31
0.0
  0
LINE
  5
8A
330
17
100
AcDbEntity
  8
0
100
AcDbLine
 10
-22.605186569307243
 20
-51.92586062187465
 30
0.0
 11
-16.499775404857665
 21
-67.17195652746744
 31
0.0
  0
LINE
  5
8B
330
17
100
AcDbEntity
  8
0
100
AcDbLine
 10
97.02709359641891
 20
-70.29710485643152
 30
-5.0
 11
97.02709359641891
 21
-70.29710485643152
 31
0.0
  0
LINE
  5
8C
330
17
100
AcDbEntity
  8
0
100
AcDbLine
 10
97.02709359641894
 20
-70.29710485643153
 30
0.0
 11
96.6615008177099
 21
-73.31225605715127
 31
0.0
  0
LINE
  5
8D
330
17
100
AcDbEntity
  8
0
100
AcDbLine
 10
-53.26569015980927
 20
-51.92586062187465
 30
-5.0
 11
-53.26569015980927
 21
-51.92586062187465
 31
0.0
  0
LINE
  5
8E
330
17
100
AcDbEntity
  8
0
100
AcDbLine
 10
-22.60518656930724
 20
-51.92586062187464
 30
0.0
 11
-53.26569015980927
 21
-51.92586062187464
 31
0.0
  0
LINE
  5
8F
330
17
100
AcDbEntity
  8
0
100
AcDbLine
 10
93.41473558087922
 20
-63.11636626342585
 30
-5.0
 11
93.41473558087922
 21
-63.11636626342585
 31
0.0
  0
LINE
  5
90
330
17
100
AcDbEntity
  8
0
100
AcDbLine
 10
97.02709359641891
 20
-70.29710485643153
 30
0.0
 11
93.41473558087922
 21
-63.11636626342585
 31
0.0
  0
LINE
  5
91
330
17
100
AcDbEntity
  8
0
100
AcDbLine
 10
-62.551448640619476
 20
-41.78363884489005
 30
-5.0
 11
-62.551448640619476
 21
-41.78363884489005
 31
0.0
  0
LINE
  5
92
330
17
100
AcDbEntity
  8
0
100
AcDbLine
 10
-53.265690159809274
 20
-51.92586062187466
 30
8.881784197001252e-16
 11
-62.55144864061949
 21
-41.783638844890056
 31
8.881784197001252e-16
  0
LINE
  5
93
330
17
100
AcDbEntity
  8
0
100
AcDbLine
 10
87.59334397051113
 20
-55.66532478401622
 30
-5.0
 11
87.59334397051113
 21
-55.66532478401622
 31
0.0
  0
LINE
  5
94
330
17
100
AcDbEntity
  8
0
100
AcDbLine
 10
87.59334397051113
 20
-55.66532478401621
 30
0.0
 11
93.4147355808791
 21
-63.116366263425945
 31
0.0
  0
LINE
  5
95
330
17
100
AcDbEntity
  8
0
100
AcDbLine
 10
-62.822713784525256
 20
-40.74836351887029
 30
-5.0
 11
-62.822713784525256
 21
-40.74836351887029
 31
0.0
  0
LINE
  5
96
330
17
100
AcDbEntity
  8
0
100
AcDbLine
 10
-62.822713784525256
 20
-40.74836351887029
 30
0.0
 11
-62.551448640619476
 21
-41.78363884489005
 31
0.0
  0
LINE
  5
97
330
17
100
AcDbEntity
  8
0
100
AcDbLine
 10
91.54444707289841
 20
-46.12097036890181
 30
-5.0
 11
91.54444707289841
 21
-46.12097036890181
 31
0.0
  0
LINE
  5
98
330
17
100
AcDbEntity
  8
0
100
AcDbLine
 10
91.54444707289841
 20
-46.12097036890181
 30
0.0
 11
87.5933439705111
 21
-55.66532478401622
 31
0.0
  0
LINE
  5
99
330
17
100
AcDbEntity
  8
0
100
AcDbLine
 10
-62.53928984883368
 20
-25.682492035951594
 30
-5.0
 11
-62.53928984883368
 21
-25.682492035951594
 31
0.0
  0
LINE
  5
9A
330
17
100
AcDbEntity
  8
0
100
AcDbLine
 10
-62.82271378452609
 20
-40.748363518870285
 30
0.0
 11
-62.53928984883381
 21
-25.682492035951594
 31
0.0
  0
LINE
  5
9B
330
17
100
AcDbEntity
  8
0
100
AcDbLine
 10
90.10912556032926
 20
-44.37078374551504
 30
-5.0
 11
90.10912556032926
 21
-44.37078374551504
 31
0.0
  0
LINE
  5
9C
330
17
100
AcDbEntity
  8
0
100
AcDbLine
 10
90.10912556032928
 20
-44.37078374551505
 30
0.0
 11
91.54444707289842
 21
-46.120970368901816
 31
0.0
  0
LINE
  5
9D
330
17
100
AcDbEntity
  8
0
100
AcDbLine
 10
-62.314641761536826
 20
-23.199298518468275
 30
-5.0
 11
-62.314641761536826
 21
-23.199298518468275
 31
0.0
  0
LINE
  5
9E
330
17
100
AcDbEntity
  8
0
100
AcDbLine
 10
-62.31464176153681
 20
-23.199298518468275
 30
0.0
 11
-62.53928984883367
 21
-25.682492035951597
 31
0.0
  0
LINE
  5
9F
330
17
100
AcDbEntity
  8
0
100
AcDbLine
 10
82.07322185149138
 20
-37.62785990725325
 30
-5.0
 11
82.07322185149138
 21
-37.62785990725325
 31
0.0
  0
LINE
  5
A0
330
17
100
AcDbEntity
  8
0
100
AcDbLine
 10
90.10912556032865
 20
-44.370783745515766
 30
0.0
 11
82.07322185149133
 21
-37.62785990725321
 31
0.0
  0
LINE
  5
A1
330
17
100
AcDbEntity
  8
0
100
AcDbLine
 10
-61.93534508927248
 20
-14.95
 30
-5.0
 11
-61.93534508927248
 21
-14.95
 31
0.0
  0
LINE
  5
A2
330
17
100
AcDbEntity
  8
0
100
AcDbLine
 10
-62.31464176153684
 20
-23.199298518468275
 30
0.0
 11
-61.935345089272495
 21
-14.950000000000003
 31
0.0
  0
LINE
  5
A3
330
17
100
AcDbEntity
  8
0
100
AcDbLine
 10
84.0665831781642
 20
-32.05835137704281
 30
-5.0
 11
84.0665831781642
 21
-32.05835137704281
 31
0.0
  0
LINE
  5
A4
330
17
100
AcDbEntity
  8
0
100
AcDbLine
 10
84.06658317816421
 20
-32.05835137704282
 30
0.0
 11
82.07322185149138
 21
-37.62785990725325
 31
0.0
  0
LINE
  5
A5
330
17
100
AcDbEntity
  8
0
100
AcDbLine
 10
-61.93534508927248
 20
2.9499999999999993
 30
-5.0
 11
-61.93534508927248
 21
2.9499999999999993
 31
0.0
  0
LINE
  5
A6
330
17
100
AcDbEntity
  8
0
100
AcDbLine
 10
-61.93534508927249
 20
2.9499999999999993
 30
0.0
 11
-61.93534508927249
 21
-14.95
 31
0.0
  0
LINE
  5
A7
330
17
100
AcDbEntity
  8
0
100
AcDbLine
 10
86.3270296109027
 20
-14.67168547364065
 30
-5.0
 11
86.3270296109027
 21
-14.67168547364065
 31
0.0
  0
LINE
  5
A8
330
17
100
AcDbEntity
  8
0
100
AcDbLine
 10
84.0665831781642
 20
-32.05835137704281
 30
0.0
 11
86.32702961090271
 21
-14.67168547364065
 31
0.0
  0
LINE
  5
A9
330
17
100
AcDbEntity
  8
0
100
AcDbLine
 10
-62.314641761536826
 20
11.199298518468273
 30
-5.0
 11
-62.314641761536826
 21
11.199298518468273
 31
0.0
  0
LINE
  5
AA
330
17
100
AcDbEntity
  8
0
100
AcDbLine
 10
-61.93534508927248
 20
2.95
 30
-8.881784197001252e-16
 11
-62.314641761536826
 21
11.199298518468275
 31
-8.881784197001252e-16
  0
LINE
  5
AB
330
17
100
AcDbEntity
  8
0
100
AcDbLine
 10
86.68613433440387
 20
-9.05
 30
-5.0
 11
86.68613433440387
 21
-9.05
 31
0.0
  0
LINE
  5
AC
330
17
100
AcDbEntity
  8
0
100
AcDbLine
 10
86.6861343344039
 20
-9.05
 30
0.0
 11
86.32702961090274
 21
-14.671685473640654
 31
0.0
  0
LINE
  5
AD
330
17
100
AcDbEntity
  8
0
100
AcDbLine
 10
-62.53928984883368
 20
13.682492035951588
 30
-5.0
 11
-62.53928984883368
 21
13.682492035951588
 31
0.0
  0
LINE
  5
AE
330
17
100
AcDbEntity
  8
0
100
AcDbLine
 10
-62.31464176153681
 20
11.199298518468275
 30
0.0
 11
-62.53928984883367
 21
13.68249203595159
 31
0.0
  0
LINE
  5
AF
330
17
100
AcDbEntity
  8
0
100
AcDbLine
 10
86.68613433440387
 20
9.05
 30
-5.0
 11
86.68613433440387
 21
9.05
 31
0.0
  0
LINE
  5
B0
330
17
100
AcDbEntity
  8
0
100
AcDbLine
 10
86.68613433440386
 20
9.050000000000002
 30
0.0
 11
86.68613433440386
 21
-9.049999999999999
 31
0.0
  0
LINE
  5
B1
330
17
100
AcDbEntity
  8
0
100
AcDbLine
 10
-62.822713784525256
 20
28.748363518870292
 30
-5.0
 11
-62.822713784525256
 21
28.748363518870292
 31
0.0
  0
LINE
  5
B2
330
17
100
AcDbEntity
  8
0
100
AcDbLine
 10
-62.82271378452526
 20
28.748363518870292
 30
0.0
 11
-62.53928984883521
 21
13.68249203595156
 31
0.0
  0
LINE
  5
B3
330
17
100
AcDbEntity
  8
0
100
AcDbLine
 10
86.32702961090271
 20
14.67168547364065
 30
-5.0
 11
86.32702961090271
 21
14.67168547364065
 31
0.0
  0
LINE
  5
B4
330
17
100
AcDbEntity
  8
0
100
AcDbLine
 10
86.68613433440387
 20
9.049999999999999
 30
0.0
 11
86.32702961090271
 21
14.67168547364065
 31
0.0
  0
LINE
  5
B5
330
17
100
AcDbEntity
  8
0
100
AcDbLine
 10
-62.551448640619476
 20
29.78363884489005
 30
-5.0
 11
-62.551448640619476
 21
29.78363884489005
 31
0.0
  0
LINE
  5
B6
330
17
100
AcDbEntity
  8
0
100
AcDbLine
 10
-62.55144864061948
 20
29.783638844890053
 30
0.0
 11
-62.82271378452526
 21
28.748363518870296
 31
0.0
  0
LINE
  5
B7
330
17
100
AcDbEntity
  8
0
100
AcDbLine
 10
84.0665831781642
 20
32.05835137704281
 30
-5.0
 11
84.0665831781642
 21
32.05835137704281
 31
0.0
  0
LINE
  5
B8
330
17
100
AcDbEntity
  8
0
100
AcDbLine
 10
84.06658317816417
 20
32.05835137704281
 30
0.0
 11
86.32702961090268
 21
14.671685473640647
 31
0.0
  0
LINE
  5
B9
330
17
100
AcDbEntity
  8
0
100
AcDbLine
 10
-53.26569015980927
 20
39.92586062187465
 30
-5.0
 11
-53.26569015980927
 21
39.92586062187465
 31
0.0
  0
LINE
  5
BA
330
17
100
AcDbEntity
  8
0
100
AcDbLine
 10
-62.55144864061948
 20
29.78363884489005
 30
0.0
 11
-53.26569015980927
 21
39.92586062187465
 31
0.0
  0
LINE
  5
BB
330
17
100
AcDbEntity
  8
0
100
AcDbLine
 10
74.5665831781642
 20
42.55835137704281
 30
-5.0
 11
74.5665831781642
 21
42.55835137704281
 31
0.0
  0
LINE
  5
BC
330
17
100
AcDbEntity
  8
0
100
AcDbLine
 10
84.0665831781642
 20
32.0583513770428
 30
0.0
 11
74.56658317816418
 21
42.558351377042804
 31
0.0
  0
LINE
  5
BD
330
17
100
AcDbEntity
  8
0
100
AcDbLine
 10
-13.031259745785867
 20
39.92586062187465
 30
-5.0
 11
-13.031259745785867
 21
39.92586062187465
 31
0.0
  0
LINE
  5
BE
330
17
100
AcDbEntity
  8
0
100
AcDbLine
 10
-13.031259745785867
 20
39.92586062187464
 30
0.0
 11
-53.26569015980927
 21
39.92586062187464
 31
0.0
  0
LINE
  5
BF
330
17
100
AcDbEntity
  8
0
100
AcDbLine
 10
71.98431712883632
 20
45.92586062187465
 30
-5.0
 11
71.98431712883632
 21
45.92586062187465
 31
0.0
  0
LINE
  5
C0
330
17
100
AcDbEntity
  8
0
100
AcDbLine
 10
74.5665831781642
 20
42.55835137704281
 30
-1.7763568394002505e-15
 11
71.98431712883632
 21
45.92586062187465
 31
-1.7763568394002505e-15
  0
LINE
  5
C1
330
17
100
AcDbEntity
  8
0
100
AcDbLine
 10
-7.379346990639492
 20
45.92586062187465
 30
-5.0
 11
-7.379346990639492
 21
45.92586062187465
 31
0.0
  0
LINE
  5
C2
330
17
100
AcDbEntity
  8
0
100
AcDbLine
 10
-13.031259745785867
 20
39.92586062187465
 30
0.0
 11
-7.37934699063949
 21
45.92586062187465
 31
0.0
  0
LINE
  5
C3
330
17
100
AcDbEntity
  8
0
100
AcDbLine
 10
35.7528927269334
 20
45.92586062187465
 30
-5.0
 11
35.7528927269334
 21
45.92586062187465
 31
0.0
  0
LINE
  5
C4
330
17
100
AcDbEntity
  8
0
100
AcDbLine
 10
71.98431712883632
 20
45.925860621874655
 30
0.0
 11
35.752892726933396
 21
45.925860621874655
 31
0.0
  0
LINE
  5
C5
330
17
100
AcDbEntity
  8
0
100
AcDbLine
 10
10.08400134781025
 20
45.92586062187465
 30
-5.0
 11
10.08400134781025
 21
45.92586062187465
 31
0.0
  0
LINE
  5
C6
330
17
100
AcDbEntity
  8
0
100
AcDbLine
 10
10.08400134781025
 20
45.92586062187465
 30
0.0
 11
-7.379346990639497
 21
45.92586062187465
 31
0.0
  0
LINE
  5
C7
330
17
100
AcDbEntity
  8
0
100
AcDbLine
 10
32.63052582356904
 20
48.74586062187465
 30
-5.0
 11
32.63052582356904
 21
48.74586062187465
 31
0.0
  0
LINE
  5
C8
330
17
100
AcDbEntity
  8
0
100
AcDbLine
 10
35.7528927269334
 20
45.92586062187465
 30
0.0
 11
32.63052582356904
 21
48.745860621874655
 31
0.0
  0
LINE
  5
C9
330
17
100
AcDbEntity
  8
0
100
AcDbLine
 10
15.519310778351539
 20
48.74586062187465
 30
-5.0
 11
15.519310778351539
 21
48.74586062187465
 31
0.0
  0
LINE
  5
CA
330
17
100
AcDbEntity
  8
0
100
AcDbLine
 10
10.084001347810249
 20
45.925860621874655
 30
0.0
 11
15.519310778351535
 21
48.745860621874655
 31
0.0
  0
LINE
  5
CB
330
17
100
AcDbEntity
  8
0
100
AcDbLine
 10
32.63052582356904
 20
48.74586062187465
 30
0.0
 11
15.519310778351539
 21
48.74586062187465
 31
0.0
  0
LINE
  5
CC
330
17
100
AcDbEntity
  8
0
100
AcDbLine
 10
44.155774558668334
 20
-93.00835137704281
 30
-5.0
 11
44.155774558668334
 21
-93.00835137704281
 31
-4.0
  0
CIRCLE
  5
CD
330
17
100
AcDbEntity
  8
0
100
AcDbCircle
 10
46.155774558668334
 20
-93.00835137704281
 30
-4.0
 40
2.0
  0
LINE
  5
CE
330
17
100
AcDbEntity
  8
0
100
AcDbLine
 10
-3.321680155184393
 20
-63.58298051617433
 30
-5.0
 11
-3.321680155184393
 21
-63.58298051617433
 31
-4.0
  0
CIRCLE
  5
CF
330
17
100
AcDbEntity
  8
0
100
AcDbCircle
 10
-1.3216801551843933
 20
-63.58298051617433
 30
-4.0
 40
2.0
  0
LINE
  5
D0
330
17
100
AcDbEntity
  8
0
100
AcDbLine
 10
-58.311237963180275
 20
-33.19730089791581
 30
-5.0
 11
-58.311237963180275
 21
-33.19730089791581
 31
-4.0
  0
CIRCLE
  5
D1
330
17
100
AcDbEntity
  8
0
100
AcDbCircle
 10
-56.311237963180275
 20
-33.19730089791581
 30
-4.0
 40
2.0
  0
LINE
  5
D2
330
17
100
AcDbEntity
  8
0
100
AcDbLine
 10
78.64680639453346
 20
-27.31501842534174
 30
-5.0
 11
78.64680639453346
 21
-27.31501842534174
 31
-4.0
  0
CIRCLE
  5
D3
330
17
100
AcDbEntity
  8
0
100
AcDbCircle
 10
80.64680639453346
 20
-27.31501842534174
 30
-4.0
 40
2.0
  0
LINE
  5
D4
330
17
100
AcDbEntity
  8
0
100
AcDbLine
 10
78.64680639453346
 20
23.315018425341734
 30
-5.0
 11
78.64680639453346
 21
23.315018425341734
 31
-4.0
  0
CIRCLE
  5
D5
330
17
100
AcDbEntity
  8
0
100
AcDbCircle
 10
80.64680639453346
 20
23.315018425341734
 30
-4.0
 40
2.0
  0
LINE
  5
D6
330
17
100
AcDbEntity
  8
0
100
AcDbLine
 10
-0.07919889981832151
 20
40.23730032546743
 30
-5.0
 11
-0.07919889981832151
 21
40.23730032546743
 31
-4.0
  0
CIRCLE
  5
D7
330
17
100
AcDbEntity
  8
0
100
AcDbCircle
 10
1.9208011001816785
 20
40.23730032546743
 30
-4.0
 40
2.0
  0
LINE
  5
D8
330
17
100
AcDbEntity
  8
0
100
AcDbLine
 10
-58.311237963180275
 20
21.197300897915813
 30
-5.0
 11
-58.311237963180275
 21
21.197300897915813
 31
-4.0
  0
CIRCLE
  5
D9
330
17
100
AcDbEntity
  8
0
100
AcDbCircle
 10
-56.311237963180275
 20
21.197300897915813
 30
-4.0
 40
2.0
  0
CIRCLE
  5
DA
330
17
100
AcDbEntity
  8
0
100
AcDbCircle
 10
46.15577455866834
 20
-93.00835137704281
 30
0.0
 40
1.525
  0
CIRCLE
  5
DB
330
17
100
AcDbEntity
  8
0
100
AcDbCircle
 10
-1.321680155184386
 20
-63.582980516174324
 30
0.0
 40
1.525
  0
CIRCLE
  5
DC
330
17
100
AcDbEntity
  8
0
100
AcDbCircle
 10
-56.31123796318026
 20
-33.19730089791581
 30
0.0
 40
1.525
  0
CIRCLE
  5
DD
330
17
100
AcDbEntity
  8
0
100
AcDbCircle
 10
80.64680639453347
 20
-27.315018425341734
 30
0.0
 40
1.525
  0
CIRCLE
  5
DE
330
17
100
AcDbEntity
  8
0
100
AcDbCircle
 10
80.64680639453347
 20
23.315018425341734
 30
0.0
 40
1.525
  0
CIRCLE
  5
DF
330
17
100
AcDbEntity
  8
0
100
AcDbCircle
 10
1.9208011001816854
 20
40.23730032546743
 30
0.0
 40
1.525
  0
CIRCLE
  5
E0
330
17
100
AcDbEntity
  8
0
100
AcDbCircle
 10
-56.31123796318026
 20
21.197300897915806
 30
0.0
 40
1.525
  0
LINE
  5
E1
330
17
100
AcDbEntity
  8
0
100
AcDbLine
 10
42.71717730792781
 20
-91.77848308457588
 30
0.0
 11
42.718546055837
 21
-91.78036700445176
 31
0.0
  0
LINE
  5
E2
330
17
100
AcDbEntity
  8
0
100
AcDbLine
 10
44.0337357815843
 20
-87.61135822372864
 30
0.0
 11
42.717177307927834
 21
-91.7784830845759
 31
0.0
  0
LINE
  5
E3
330
17
100
AcDbEntity
  8
0
100
AcDbLine
 10
44.033735781584284
 20
-87.61135822372864
 30
0.0
 11
34.04851633645973
 21
-76.5216485446575
 31
0.0
  0
LINE
  5
E4
330
17
100
AcDbEntity
  8
0
100
AcDbLine
 10
34.04851633645974
 20
-76.5216485446575
 30
0.0
 11
23.12682398178297
 21
-61.650868279944305
 31
0.0
  0
LINE
  5
E5
330
17
100
AcDbEntity
  8
0
100
AcDbLine
 10
22.243379956402723
 20
-60.78978533949021
 30
-8.881784197001252e-16
 11
23.126823981782973
 21
-61.65086827994431
 31
-8.881784197001252e-16
  0
LINE
  5
E6
330
17
100
AcDbEntity
  8
0
100
AcDbLine
 10
22.148254832146304
 20
-60.773012213540554
 30
0.0
 11
22.243379956402727
 21
-60.78978533949021
 31
0.0
  0
LINE
  5
E7
330
17
100
AcDbEntity
  8
0
100
AcDbLine
 10
22.1482548321463
 20
-60.77301221354055
 30
0.0
 11
6.1293875090651335
 21
-63.18823865284998
 31
0.0
  0
LINE
  5
E8
330
17
100
AcDbEntity
  8
0
100
AcDbLine
 10
6.129387509065136
 20
-63.18823865284999
 30
0.0
 11
2.306909689554646
 21
-63.18823865284999
 31
0.0
  0
ARC
  5
E9
330
17
100
AcDbEntity
  8
0
100
AcDbCircle
 10
-1.321680155184386
 20
-63.582980516174324
 30
0.0
 40
3.6499979999999996
100
AcDbArc
 50
6.208596547196407
 51
173.7914034528036
  0
LINE
  5
EA
330
17
100
AcDbEntity
  8
0
100
AcDbLine
 10
-4.950269999923419
 20
-63.18823865284999
 30
0.0
 11
-13.37192847767712
 21
-63.18823865284999
 31
0.0
  0
LINE
  5
EB
330
17
100
AcDbEntity
  8
0
100
AcDbLine
 10
-16.463939168745576
 20
-51.92586062187465
 30
0.0
 11
-13.371928477677118
 21
-63.18823865284999
 31
0.0
  0
LINE
  5
EC
330
17
100
AcDbEntity
  8
0
100
AcDbLine
 10
-12.932498010617842
 20
-51.92586062187465
 30
0.0
 11
-16.463939168745576
 21
-51.92586062187465
 31
0.0
  0
LINE
  5
ED
330
17
100
AcDbEntity
  8
0
100
AcDbLine
 10
-12.932498010617762
 20
-51.92586062187465
 30
0.0
 11
-12.745719519396388
 21
-47.48260155767187
 31
0.0
  0
LINE
  5
EE
330
17
100
AcDbEntity
  8
0
100
AcDbLine
 10
-13.35186511554985
 20
-46.44732623165211
 30
0.0
 11
-12.745719519396388
 21
-47.48260155767187
 31
0.0
  0
LINE
  5
EF
330
17
100
AcDbEntity
  8
0
100
AcDbLine
 10
-13.351865115549849
 20
-46.4473262316521
 30
0.0
 11
-53.35361407668415
 21
-46.4473262316521
 31
0.0
  0
LINE
  5
F0
330
17
100
AcDbEntity
  8
0
100
AcDbLine
 10
-57.94786230859095
 20
-40.98960578499201
 30
0.0
 11
-53.35361407668414
 21
-46.447326231652106
 31
0.0
  0
LINE
  5
F1
330
17
100
AcDbEntity
  8
0
100
AcDbLine
 10
-57.92791049955023
 20
-39.929034135933094
 30
0.0
 11
-57.94786230859095
 21
-40.98960578499202
 31
0.0
  0
LINE
  5
F2
330
17
100
AcDbEntity
  8
0
100
AcDbLine
 10
-57.64591141764858
 20
-36.594525083915556
 30
0.0
 11
-57.92791049955024
 21
-39.929034135933094
 31
0.0
  0
ARC
  5
F3
330
17
100
AcDbEntity
  8
0
100
AcDbCircle
 10
-56.31123796318026
 20
-33.19730089791581
 30
0.0
 40
3.6499979999999996
100
AcDbArc
 50
-111.44846198621065
 51
101.78047073285033
  0
LINE
  5
F4
330
17
100
AcDbEntity
  8
0
100
AcDbLine
 10
-56.51355246368909
 20
-23.204902831784565
 30
0.0
 11
-57.05643028933373
 21
-29.624182680301676
 31
0.0
  0
LINE
  5
F5
330
17
100
AcDbEntity
  8
0
100
AcDbLine
 10
-56.16302012329701
 20
-15.05
 30
0.0
 11
-56.51355246368908
 21
-23.204902831784565
 31
0.0
  0
LINE
  5
F6
330
17
100
AcDbEntity
  8
0
100
AcDbLine
 10
-56.163020123296825
 20
-15.050000000000002
 30
0.0
 11
-56.16302012329704
 21
3.0500000000000007
 31
0.0
  0
LINE
  5
F7
330
17
100
AcDbEntity
  8
0
100
AcDbLine
 10
-56.513552463689095
 20
11.204902831784565
 30
0.0
 11
-56.16302012329703
 21
3.049999999999999
 31
0.0
  0
LINE
  5
F8
330
17
100
AcDbEntity
  8
0
100
AcDbLine
 10
-56.51355246368909
 20
11.204902831784565
 30
0.0
 11
-57.05643028933373
 21
17.62418268030168
 31
0.0
  0
ARC
  5
F9
330
17
100
AcDbEntity
  8
0
100
AcDbCircle
 10
-56.31123796318026
 20
21.197300897915806
 30
0.0
 40
3.6499979999999996
100
AcDbArc
 50
-101.78047073285046
 51
111.44846198621079
  0
LINE
  5
FA
330
17
100
AcDbEntity
  8
0
100
AcDbLine
 10
-57.64591141764858
 20
24.59452508391555
 30
0.0
 11
-57.92791049955024
 21
27.929034135933097
 31
0.0
  0
LINE
  5
FB
330
17
100
AcDbEntity
  8
0
100
AcDbLine
 10
-57.927910499550144
 20
27.929034135933097
 30
0.0
 11
-57.94786230859091
 21
28.989605784992072
 31
0.0
  0
LINE
  5
FC
330
17
100
AcDbEntity
  8
0
100
AcDbLine
 10
-53.35361407668415
 20
34.44732623165212
 30
0.0
 11
-57.94786230859096
 21
28.98960578499202
 31
0.0
  0
LINE
  5
FD
330
17
100
AcDbEntity
  8
0
100
AcDbLine
 10
-13.351865115549849
 20
34.447326231652106
 30
0.0
 11
-53.35361407668415
 21
34.447326231652106
 31
0.0
  0
LINE
  5
FE
330
17
100
AcDbEntity
  8
0
100
AcDbLine
 10
-13.351865115549849
 20
34.447326231652106
 30
0.0
 11
-7.929404222846491
 21
40.44732623165211
 31
0.0
  0
LINE
  5
FF
330
17
100
AcDbEntity
  8
0
100
AcDbLine
 10
-7.929404222846499
 20
40.44732623165211
 30
0.0
 11
-1.7231492999658395
 21
40.44732623165211
 31
0.0
  0
ARC
  5
100
330
17
100
AcDbEntity
  8
0
100
AcDbCircle
 10
1.9208011001816854
 20
40.23730032546743
 30
0.0
 40
3.6499979999999996
100
AcDbArc
 50
-183.29870002308508
 51
3.2987000230851606
  0
LINE
  5
101
330
17
100
AcDbEntity
  8
0
100
AcDbLine
 10
5.56475150032921
 20
40.44732623165211
 30
0.0
 11
9.53315452148854
 21
40.44732623165211
 31
0.0
  0
LINE
  5
102
330
17
100
AcDbEntity
  8
0
100
AcDbLine
 10
14.742414765353187
 20
43.267326231652106
 30
0.0
 11
9.533154521488541
 21
40.44732623165211
 31
0.0
  0
LINE
  5
103
330
17
100
AcDbEntity
  8
0
100
AcDbLine
 10
14.742414765353187
 20
43.26732623165211
 30
0.0
 11
31.66455561117602
 21
43.26732623165211
 31
0.0
  0
LINE
  5
104
330
17
100
AcDbEntity
  8
0
100
AcDbLine
 10
31.66455561117601
 20
43.267326231652106
 30
0.0
 11
34.57318793640328
 21
40.447326231652106
 31
0.0
  0
LINE
  5
105
330
17
100
AcDbEntity
  8
0
100
AcDbLine
 10
70.59985601079266
 20
40.44732623165211
 30
0.0
 11
34.573187936403286
 21
40.44732623165211
 31
0.0
  0
LINE
  5
106
330
17
100
AcDbEntity
  8
0
100
AcDbLine
 10
70.59985601079266
 20
40.44732623165212
 30
0.0
 11
74.4665831781642
 21
37.95835137704282
 31
0.0
  0
LINE
  5
107
330
17
100
AcDbEntity
  8
0
100
AcDbLine
 10
79.4665831781642
 20
31.958351377042817
 30
0.0
 11
74.4665831781642
 21
37.958351377042824
 31
0.0
  0
LINE
  5
108
330
17
100
AcDbEntity
  8
0
100
AcDbLine
 10
80.12072330516679
 20
26.926904633832585
 30
0.0
 11
79.46658317816419
 21
31.95835137704281
 31
0.0
  0
ARC
  5
109
330
17
100
AcDbEntity
  8
0
100
AcDbCircle
 10
80.64680639453347
 20
23.315018425341734
 30
0.0
 40
3.6499979999999996
100
AcDbArc
 50
-261.712956986062
 51
-83.472053008422
  0
LINE
  5
10A
330
17
100
AcDbEntity
  8
0
100
AcDbLine
 10
81.7270296109027
 20
14.571685473640647
 30
0.0
 11
81.06176672295784
 21
19.688685108361902
 31
0.0
  0
LINE
  5
10B
330
17
100
AcDbEntity
  8
0
100
AcDbLine
 10
82.08613433440388
 20
8.95
 30
0.0
 11
81.72702961090272
 21
14.571685473640649
 31
0.0
  0
LINE
  5
10C
330
17
100
AcDbEntity
  8
0
100
AcDbLine
 10
82.08613433440387
 20
-8.95
 30
0.0
 11
82.08613433440387
 21
8.95
 31
0.0
  0
LINE
  5
10D
330
17
100
AcDbEntity
  8
0
100
AcDbLine
 10
82.08613433440388
 20
-8.95
 30
0.0
 11
81.72702961090272
 21
-14.571685473640649
 31
0.0
  0
LINE
  5
10E
330
17
100
AcDbEntity
  8
0
100
AcDbLine
 10
81.72702961090272
 20
-14.571685473640649
 30
0.0
 11
80.54461597602115
 21
-23.666451238298542
 31
0.0
  0
ARC
  5
10F
330
17
100
AcDbEntity
  8
0
100
AcDbCircle
 10
80.64680639453347
 20
-27.315018425341734
 30
0.0
 40
3.6499979999999996
100
AcDbArc
 50
-268.39565805830324
 51
-106.41933194721241
  0
LINE
  5
110
330
17
100
AcDbEntity
  8
0
100
AcDbLine
 10
79.61507927485397
 20
-30.81616460202757
 30
0.0
 11
79.4665831781642
 21
-31.958351377042817
 31
0.0
  0
LINE
  5
111
330
17
100
AcDbEntity
  8
0
100
AcDbLine
 10
79.46658317816419
 20
-31.958351377042803
 30
0.0
 11
76.42020663777465
 21
-38.856395131809556
 31
0.0
  0
LINE
  5
112
330
17
100
AcDbEntity
  8
0
100
AcDbLine
 10
77.85552815034382
 20
-40.60658175519634
 30
0.0
 11
76.42020663777467
 21
-38.85639513180957
 31
0.0
  0
LINE
  5
113
330
17
100
AcDbEntity
  8
0
100
AcDbLine
 10
77.85552815034382
 20
-40.60658175519633
 30
0.0
 11
86.71140444067977
 21
-48.03754428416885
 31
0.0
  0
LINE
  5
114
330
17
100
AcDbEntity
  8
0
100
AcDbLine
 10
86.71140444067977
 20
-48.03754428416884
 30
0.0
 11
82.411254099029
 21
-56.93920338893048
 31
0.0
  0
LINE
  5
115
330
17
100
AcDbEntity
  8
0
100
AcDbLine
 10
82.41125409902901
 20
-56.93920338893049
 30
0.0
 11
85.64023098494854
 21
-61.07210533460807
 31
0.0
  0
LINE
  5
116
330
17
100
AcDbEntity
  8
0
100
AcDbLine
 10
92.30192937365157
 20
-73.83388922759983
 30
0.0
 11
85.64023098494854
 21
-61.07210533460807
 31
0.0
  0
LINE
  5
117
330
17
100
AcDbEntity
  8
0
100
AcDbLine
 10
92.30192937365156
 20
-73.83388922759983
 30
0.0
 11
91.6182097893116
 21
-77.41426816689767
 31
0.0
  0
LINE
  5
118
330
17
100
AcDbEntity
  8
0
100
AcDbLine
 10
91.61820978931162
 20
-77.41426816689768
 30
0.0
 11
77.74554429037661
 21
-88.77659182765868
 31
0.0
  0
LINE
  5
119
330
17
100
AcDbEntity
  8
0
100
AcDbLine
 10
74.41027086212279
 20
-89.52677093017425
 30
0.0
 11
77.74554429037661
 21
-88.77659182765866
 31
0.0
  0
LINE
  5
11A
330
17
100
AcDbEntity
  8
0
100
AcDbLine
 10
74.41027086212279
 20
-89.52677093017425
 30
0.0
 11
72.87950542485459
 21
-90.22432251835124
 31
0.0
  0
LINE
  5
11B
330
17
100
AcDbEntity
  8
0
100
AcDbLine
 10
72.87950542485459
 20
-90.22432251835124
 30
0.0
 11
72.81683854375378
 21
-90.27914770909344
 31
0.0
  0
LINE
  5
11C
330
17
100
AcDbEntity
  8
0
100
AcDbLine
 10
72.80198633125644
 20
-90.29214142074476
 30
0.0
 11
72.81683854375378
 21
-90.27914770909344
 31
0.0
  0
LINE
  5
11D
330
17
100
AcDbEntity
  8
0
100
AcDbLine
 10
72.80198633125643
 20
-90.29214142074474
 30
0.0
 11
58.92606857719033
 21
-102.43172494917843
 31
0.0
  0
LINE
  5
11E
330
17
100
AcDbEntity
  8
0
100
AcDbLine
 10
53.62717147070752
 20
-102.80935860221219
 30
0.0
 11
58.92606857719032
 21
-102.43172494917849
 31
0.0
  0
LINE
  5
11F
330
17
100
AcDbEntity
  8
0
100
AcDbLine
 10
48.47285686861138
 20
-99.70049637192798
 30
-8.881784197001252e-16
 11
53.62717147070752
 21
-102.80935860221214
 31
-8.881784197001252e-16
  0
LINE
  5
120
330
17
100
AcDbEntity
  8
0
100
AcDbLine
 10
46.26149507720405
 20
-96.65681798261349
 30
0.0
 11
48.47285686861138
 21
-99.70049637192795
 31
0.0
  0
ARC
  5
121
330
17
100
AcDbEntity
  8
0
100
AcDbCircle
 10
46.15577455866834
 20
-93.00835137704281
 30
0.0
 40
3.6499979999999996
100
AcDbArc
 50
-88.34022188449097
 51
160.3402218844789
  0
CIRCLE
  5
122
330
17
100
AcDbEntity
  8
0
100
AcDbCircle
 10
46.15577455866834
 20
-93.00835137704281
 30
-4.0
 40
1.525
  0
CIRCLE
  5
123
330
17
100
AcDbEntity
  8
0
100
AcDbCircle
 10
-1.321680155184386
 20
-63.582980516174324
 30
-4.0
 40
1.525
  0
CIRCLE
  5
124
330
17
100
AcDbEntity
  8
0
100
AcDbCircle
 10
-56.31123796318026
 20
-33.19730089791581
 30
-4.0
 40
1.525
  0
CIRCLE
  5
125
330
17
100
AcDbEntity
  8
0
100
AcDbCircle
 10
80.64680639453347
 20
-27.315018425341734
 30
-4.0
 40
1.525
  0
CIRCLE
  5
126
330
17
100
AcDbEntity
  8
0
100
AcDbCircle
 10
80.64680639453347
 20
23.315018425341734
 30
-4.0
 40
1.525
  0
CIRCLE
  5
127
330
17
100
AcDbEntity
  8
0
100
AcDbCircle
 10
1.9208011001816854
 20
40.23730032546743
 30
-4.0
 40
1.525
  0
CIRCLE
  5
128
330
17
100
AcDbEntity
  8
0
100
AcDbCircle
 10
-56.31123796318026
 20
21.197300897915806
 30
-4.0
 40
1.525
  0
LINE
  5
129
330
17
100
AcDbEntity
  8
0
100
AcDbLine
 10
44.63077455866834
 20
-93.00835137704281
 30
-4.0
 11
44.63077455866834
 21
-93.00835137704281
 31
0.0
  0
LINE
  5
12A
330
17
100
AcDbEntity
  8
0
100
AcDbLine
 10
-2.846680155184386
 20
-63.582980516174324
 30
-4.0
 11
-2.846680155184386
 21
-63.582980516174324
 31
0.0
  0
LINE
  5
12B
330
17
100
AcDbEntity
  8
0
100
AcDbLine
 10
-57.83623796318026
 20
-33.19730089791581
 30
-4.0
 11
-57.83623796318026
 21
-33.19730089791581
 31
0.0
  0
LINE
  5
12C
330
17
100
AcDbEntity
  8
0
100
AcDbLine
 10
79.12180639453346
 20
-27.315018425341734
 30
-4.0
 11
79.12180639453346
 21
-27.315018425341734
 31
0.0
  0
LINE
  5
12D
330
17
100
AcDbEntity
  8
0
100
AcDbLine
 10
79.12180639453346
 20
23.315018425341734
 30
-4.0
 11
79.12180639453346
 21
23.315018425341734
 31
0.0
  0
LINE
  5
12E
330
17
100
AcDbEntity
  8
0
100
AcDbLine
 10
0.39580110018168546
 20
40.23730032546743
 30
-4.0
 11
0.39580110018168546
 21
40.23730032546743
 31
0.0
  0
LINE
  5
12F
330
17
100
AcDbEntity
  8
0
100
AcDbLine
 10
-57.83623796318026
 20
21.197300897915806
 30
-4.0
 11
-57.83623796318026
 21
21.197300897915806
 31
0.0
  0
LINE
  5
130
330
17
100
AcDbEntity
  8
0
100
AcDbLine
 10
42.71717730792781
 20
-91.77848308457588
 30
-2.0
 11
42.718546055837
 21
-91.78036700445176
 31
-2.0
  0
LINE
  5
131
330
17
100
AcDbEntity
  8
0
100
AcDbLine
 10
42.718546055837
 20
-91.78036700445178
 30
-2.0
 11
42.718546055837
 21
-91.78036700445178
 31
0.0
  0
LINE
  5
132
330
17
100
AcDbEntity
  8
0
100
AcDbLine
 10
42.71717730792783
 20
-91.7784830845759
 30
-2.0
 11
42.71717730792783
 21
-91.7784830845759
 31
0.0
  0
LINE
  5
133
330
17
100
AcDbEntity
  8
0
100
AcDbLine
 10
44.0337357815843
 20
-87.61135822372864
 30
-2.0
 11
42.717177307927834
 21
-91.7784830845759
 31
-2.0
  0
LINE
  5
134
330
17
100
AcDbEntity
  8
0
100
AcDbLine
 10
44.033735781584284
 20
-87.61135822372864
 30
-2.0
 11
44.033735781584284
 21
-87.61135822372864
 31
0.0
  0
LINE
  5
135
330
17
100
AcDbEntity
  8
0
100
AcDbLine
 10
44.033735781584284
 20
-87.61135822372864
 30
-2.0
 11
34.04851633645973
 21
-76.5216485446575
 31
-2.0
  0
LINE
  5
136
330
17
100
AcDbEntity
  8
0
100
AcDbLine
 10
34.04851633645973
 20
-76.5216485446575
 30
-2.0
 11
34.04851633645973
 21
-76.5216485446575
 31
0.0
  0
LINE
  5
137
330
17
100
AcDbEntity
  8
0
100
AcDbLine
 10
34.04851633645974
 20
-76.5216485446575
 30
-2.0
 11
23.12682398178297
 21
-61.650868279944305
 31
-2.0
  0
LINE
  5
138
330
17
100
AcDbEntity
  8
0
100
AcDbLine
 10
23.12682398178297
 20
-61.650868279944305
 30
-2.0
 11
23.12682398178297
 21
-61.650868279944305
 31
0.0
  0
LINE
  5
139
330
17
100
AcDbEntity
  8
0
100
AcDbLine
 10
22.243379956402723
 20
-60.78978533949021
 30
-2.000000000000001
 11
23.126823981782973
 21
-61.65086827994431
 31
-2.000000000000001
  0
LINE
  5
13A
330
17
100
AcDbEntity
  8
0
100
AcDbLine
 10
22.243379956402723
 20
-60.78978533949021
 30
-2.0
 11
22.243379956402723
 21
-60.78978533949021
 31
0.0
  0
LINE
  5
13B
330
17
100
AcDbEntity
  8
0
100
AcDbLine
 10
22.148254832146304
 20
-60.773012213540554
 30
-2.0
 11
22.243379956402727
 21
-60.78978533949021
 31
-2.0
  0
LINE
  5
13C
330
17
100
AcDbEntity
  8
0
100
AcDbLine
 10
22.1482548321463
 20
-60.773012213540554
 30
-2.0
 11
22.1482548321463
 21
-60.773012213540554
 31
0.0
  0
LINE
  5
13D
330
17
100
AcDbEntity
  8
0
100
AcDbLine
 10
22.1482548321463
 20
-60.77301221354055
 30
-2.0000000000000004
 11
6.1293875090651335
 21
-63.18823865284998
 31
-2.0000000000000004
  0
LINE
  5
13E
330
17
100
AcDbEntity
  8
0
100
AcDbLine
 10
6.129387509065136
 20
-63.188238652849996
 30
-2.0
 11
6.129387509065136
 21
-63.188238652849996
 31
0.0
  0
LINE
  5
13F
330
17
100
AcDbEntity
  8
0
100
AcDbLine
 10
6.129387509065136
 20
-63.18823865284999
 30
-2.0
 11
2.306909689554646
 21
-63.18823865284999
 31
-2.0
  0
LINE
  5
140
330
17
100
AcDbEntity
  8
0
100
AcDbLine
 10
2.306909689554646
 20
-63.18823865284999
 30
-2.0
 11
2.306909689554646
 21
-63.18823865284999
 31
0.0
  0
ARC
  5
141
330
17
100
AcDbEntity
  8
0
100
AcDbCircle
 10
-1.321680155184386
 20
-63.582980516174324
 30
-2.0
 40
3.6499979999999996
100
AcDbArc
 50
6.208596547196407
 51
173.7914034528036
  0
LINE
  5
142
330
17
100
AcDbEntity
  8
0
100
AcDbLine
 10
-4.950269999923419
 20
-63.18823865284999
 30
-2.0
 11
-4.950269999923419
 21
-63.18823865284999
 31
0.0
  0
LINE
  5
143
330
17
100
AcDbEntity
  8
0
100
AcDbLine
 10
-4.950269999923419
 20
-63.18823865284999
 30
-2.0
 11
-13.37192847767712
 21
-63.18823865284999
 31
-2.0
  0
LINE
  5
144
330
17
100
AcDbEntity
  8
0
100
AcDbLine
 10
-13.37192847767712
 20
-63.18823865284999
 30
-2.0
 11
-13.37192847767712
 21
-63.18823865284999
 31
0.0
  0
LINE
  5
145
330
17
100
AcDbEntity
  8
0
100
AcDbLine
 10
-16.463939168745576
 20
-51.92586062187465
 30
-2.0
 11
-13.371928477677118
 21
-63.18823865284999
 31
-2.0
  0
LINE
  5
146
330
17
100
AcDbEntity
  8
0
100
AcDbLine
 10
-16.463939168745576
 20
-51.92586062187465
 30
-2.0
 11
-16.463939168745576
 21
-51.92586062187465
 31
0.0
  0
LINE
  5
147
330
17
100
AcDbEntity
  8
0
100
AcDbLine
 10
-12.932498010617842
 20
-51.92586062187465
 30
-2.0
 11
-16.463939168745576
 21
-51.92586062187465
 31
-2.0
  0
LINE
  5
148
330
17
100
AcDbEntity
  8
0
100
AcDbLine
 10
-12.932498010617842
 20
-51.92586062187465
 30
-2.0
 11
-12.932498010617842
 21
-51.92586062187465
 31
0.0
  0
LINE
  5
149
330
17
100
AcDbEntity
  8
0
100
AcDbLine
 10
-12.932498010617762
 20
-51.92586062187465
 30
-2.0
 11
-12.745719519396388
 21
-47.48260155767187
 31
-2.0
  0
LINE
  5
14A
330
17
100
AcDbEntity
  8
0
100
AcDbLine
 10
-12.74571951939639
 20
-47.48260155767187
 30
-2.0
 11
-12.74571951939639
 21
-47.48260155767187
 31
0.0
  0
LINE
  5
14B
330
17
100
AcDbEntity
  8
0
100
AcDbLine
 10
-13.35186511554985
 20
-46.44732623165211
 30
-2.0
 11
-12.745719519396388
 21
-47.48260155767187
 31
-2.0
  0
LINE
  5
14C
330
17
100
AcDbEntity
  8
0
100
AcDbLine
 10
-13.351865115549852
 20
-46.44732623165211
 30
-2.0
 11
-13.351865115549852
 21
-46.44732623165211
 31
0.0
  0
LINE
  5
14D
330
17
100
AcDbEntity
  8
0
100
AcDbLine
 10
-13.351865115549849
 20
-46.4473262316521
 30
-2.0
 11
-53.35361407668415
 21
-46.4473262316521
 31
-2.0
  0
LINE
  5
14E
330
17
100
AcDbEntity
  8
0
100
AcDbLine
 10
-53.353614076684146
 20
-46.44732623165211
 30
-2.0
 11
-53.353614076684146
 21
-46.44732623165211
 31
0.0
  0
LINE
  5
14F
330
17
100
AcDbEntity
  8
0
100
AcDbLine
 10
-57.94786230859095
 20
-40.98960578499201
 30
-2.0
 11
-53.35361407668414
 21
-46.447326231652106
 31
-2.0
  0
LINE
  5
150
330
17
100
AcDbEntity
  8
0
100
AcDbLine
 10
-57.947862308590956
 20
-40.98960578499201
 30
-2.0
 11
-57.947862308590956
 21
-40.98960578499201
 31
0.0
  0
LINE
  5
151
330
17
100
AcDbEntity
  8
0
100
AcDbLine
 10
-57.92791049955023
 20
-39.929034135933094
 30
-2.0
 11
-57.94786230859095
 21
-40.98960578499202
 31
-2.0
  0
LINE
  5
152
330
17
100
AcDbEntity
  8
0
100
AcDbLine
 10
-57.92791049955023
 20
-39.929034135933094
 30
-2.0
 11
-57.92791049955023
 21
-39.929034135933094
 31
0.0
  0
LINE
  5
153
330
17
100
AcDbEntity
  8
0
100
AcDbLine
 10
-57.64591141764858
 20
-36.594525083915556
 30
-2.0000000000000004
 11
-57.92791049955024
 21
-39.929034135933094
 31
-2.0000000000000004
  0
LINE
  5
154
330
17
100
AcDbEntity
  8
0
100
AcDbLine
 10
-57.64591141764857
 20
-36.594525083915556
 30
-1.999999999999996
 11
-57.64591141764857
 21
-36.594525083915556
 31
3.552713678800501e-15
  0
ARC
  5
155
330
17
100
AcDbEntity
  8
0
100
AcDbCircle
 10
-56.31123796318026
 20
-33.19730089791581
 30
-2.0
 40
3.6499979999999996
100
AcDbArc
 50
-111.44846198621065
 51
101.78047073285033
  0
LINE
  5
156
330
17
100
AcDbEntity
  8
0
100
AcDbLine
 10
-57.05643028933373
 20
-29.624182680301676
 30
-2.000000000000006
 11
-57.05643028933373
 21
-29.624182680301676
 31
-6.217248937900877e-15
  0
LINE
  5
157
330
17
100
AcDbEntity
  8
0
100
AcDbLine
 10
-56.51355246368909
 20
-23.204902831784565
 30
-2.0000000000000004
 11
-57.05643028933373
 21
-29.624182680301676
 31
-2.0000000000000004
  0
LINE
  5
158
330
17
100
AcDbEntity
  8
0
100
AcDbLine
 10
-56.51355246368909
 20
-23.204902831784565
 30
-2.0
 11
-56.51355246368909
 21
-23.204902831784565
 31
0.0
  0
LINE
  5
159
330
17
100
AcDbEntity
  8
0
100
AcDbLine
 10
-56.16302012329701
 20
-15.05
 30
-2.0
 11
-56.51355246368908
 21
-23.204902831784565
 31
-2.0
  0
LINE
  5
15A
330
17
100
AcDbEntity
  8
0
100
AcDbLine
 10
-56.163020123297024
 20
-15.05
 30
-2.0
 11
-56.163020123297024
 21
-15.05
 31
0.0
  0
LINE
  5
15B
330
17
100
AcDbEntity
  8
0
100
AcDbLine
 10
-56.163020123296825
 20
-15.050000000000002
 30
-2.0
 11
-56.16302012329704
 21
3.0500000000000007
 31
-2.0
  0
LINE
  5
15C
330
17
100
AcDbEntity
  8
0
100
AcDbLine
 10
-56.163020123297024
 20
3.0500000000000007
 30
-2.0
 11
-56.163020123297024
 21
3.0500000000000007
 31
0.0
  0
LINE
  5
15D
330
17
100
AcDbEntity
  8
0
100
AcDbLine
 10
-56.513552463689095
 20
11.204902831784565
 30
-2.0
 11
-56.16302012329703
 21
3.049999999999999
 31
-2.0
  0
LINE
  5
15E
330
17
100
AcDbEntity
  8
0
100
AcDbLine
 10
-56.51355246368909
 20
11.204902831784565
 30
-2.0
 11
-56.51355246368909
 21
11.204902831784565
 31
0.0
  0
LINE
  5
15F
330
17
100
AcDbEntity
  8
0
100
AcDbLine
 10
-56.51355246368909
 20
11.204902831784565
 30
-2.0
 11
-57.05643028933373
 21
17.62418268030168
 31
-2.0
  0
LINE
  5
160
330
17
100
AcDbEntity
  8
0
100
AcDbLine
 10
-57.05643028933374
 20
17.62418268030168
 30
-2.0000000000000036
 11
-57.05643028933374
 21
17.62418268030168
 31
-3.552713678800501e-15
  0
ARC
  5
161
330
17
100
AcDbEntity
  8
0
100
AcDbCircle
 10
-56.31123796318026
 20
21.197300897915806
 30
-2.0
 40
3.6499979999999996
100
AcDbArc
 50
-101.78047073285046
 51
111.44846198621079
  0
LINE
  5
162
330
17
100
AcDbEntity
  8
0
100
AcDbLine
 10
-57.64591141764858
 20
24.59452508391555
 30
-2.0000000000000036
 11
-57.64591141764858
 21
24.59452508391555
 31
-3.552713678800501e-15
  0
LINE
  5
163
330
17
100
AcDbEntity
  8
0
100
AcDbLine
 10
-57.64591141764858
 20
24.59452508391555
 30
-2.0
 11
-57.92791049955024
 21
27.929034135933097
 31
-2.0
  0
LINE
  5
164
330
17
100
AcDbEntity
  8
0
100
AcDbLine
 10
-57.92791049955023
 20
27.929034135933097
 30
-2.0
 11
-57.92791049955023
 21
27.929034135933097
 31
0.0
  0
LINE
  5
165
330
17
100
AcDbEntity
  8
0
100
AcDbLine
 10
-57.927910499550144
 20
27.929034135933097
 30
-2.0
 11
-57.94786230859091
 21
28.989605784992072
 31
-2.0
  0
LINE
  5
166
330
17
100
AcDbEntity
  8
0
100
AcDbLine
 10
-57.94786230859091
 20
28.989605784992072
 30
-2.0
 11
-57.94786230859091
 21
28.989605784992072
 31
0.0
  0
LINE
  5
167
330
17
100
AcDbEntity
  8
0
100
AcDbLine
 10
-53.35361407668415
 20
34.44732623165212
 30
-1.9999999999999996
 11
-57.94786230859096
 21
28.98960578499202
 31
-1.9999999999999996
  0
LINE
  5
168
330
17
100
AcDbEntity
  8
0
100
AcDbLine
 10
-53.353614076684146
 20
34.44732623165211
 30
-2.0
 11
-53.353614076684146
 21
34.44732623165211
 31
0.0
  0
LINE
  5
169
330
17
100
AcDbEntity
  8
0
100
AcDbLine
 10
-13.351865115549849
 20
34.447326231652106
 30
-2.0
 11
-53.35361407668415
 21
34.447326231652106
 31
-2.0
  0
LINE
  5
16A
330
17
100
AcDbEntity
  8
0
100
AcDbLine
 10
-13.351865115549852
 20
34.44732623165211
 30
-2.0
 11
-13.351865115549852
 21
34.44732623165211
 31
0.0
  0
LINE
  5
16B
330
17
100
AcDbEntity
  8
0
100
AcDbLine
 10
-13.351865115549849
 20
34.447326231652106
 30
-2.0
 11
-7.929404222846491
 21
40.44732623165211
 31
-2.0
  0
LINE
  5
16C
330
17
100
AcDbEntity
  8
0
100
AcDbLine
 10
-7.9294042228464905
 20
40.44732623165211
 30
-2.0
 11
-7.9294042228464905
 21
40.44732623165211
 31
0.0
  0
LINE
  5
16D
330
17
100
AcDbEntity
  8
0
100
AcDbLine
 10
-7.929404222846499
 20
40.44732623165211
 30
-2.0
 11
-1.7231492999658395
 21
40.44732623165211
 31
-2.0
  0
LINE
  5
16E
330
17
100
AcDbEntity
  8
0
100
AcDbLine
 10
-1.7231492999658395
 20
40.44732623165211
 30
-2.0
 11
-1.7231492999658395
 21
40.44732623165211
 31
0.0
  0
ARC
  5
16F
330
17
100
AcDbEntity
  8
0
100
AcDbCircle
 10
1.9208011001816854
 20
40.23730032546743
 30
-2.0
 40
3.6499979999999996
100
AcDbArc
 50
-183.29870002308508
 51
3.2987000230851606
  0
LINE
  5
170
330
17
100
AcDbEntity
  8
0
100
AcDbLine
 10
5.56475150032921
 20
40.44732623165211
 30
-2.0
 11
5.56475150032921
 21
40.44732623165211
 31
0.0
  0
LINE
  5
171
330
17
100
AcDbEntity
  8
0
100
AcDbLine
 10
5.56475150032921
 20
40.44732623165211
 30
-2.0
 11
9.53315452148854
 21
40.44732623165211
 31
-2.0
  0
LINE
  5
172
330
17
100
AcDbEntity
  8
0
100
AcDbLine
 10
9.53315452148854
 20
40.44732623165211
 30
-2.0
 11
9.53315452148854
 21
40.44732623165211
 31
0.0
  0
LINE
  5
173
330
17
100
AcDbEntity
  8
0
100
AcDbLine
 10
14.742414765353187
 20
43.267326231652106
 30
-2.0
 11
9.533154521488541
 21
40.44732623165211
 31
-2.0
  0
LINE
  5
174
330
17
100
AcDbEntity
  8
0
100
AcDbLine
 10
14.742414765353187
 20
43.26732623165211
 30
-2.0
 11
14.742414765353187
 21
43.26732623165211
 31
0.0
  0
LINE
  5
175
330
17
100
AcDbEntity
  8
0
100
AcDbLine
 10
14.742414765353187
 20
43.26732623165211
 30
-2.0
 11
31.66455561117602
 21
43.26732623165211
 31
-2.0
  0
LINE
  5
176
330
17
100
AcDbEntity
  8
0
100
AcDbLine
 10
31.664555611176016
 20
43.26732623165211
 30
-2.0
 11
31.664555611176016
 21
43.26732623165211
 31
0.0
  0
LINE
  5
177
330
17
100
AcDbEntity
  8
0
100
AcDbLine
 10
31.66455561117601
 20
43.267326231652106
 30
-2.0
 11
34.57318793640328
 21
40.447326231652106
 31
-2.0
  0
LINE
  5
178
330
17
100
AcDbEntity
  8
0
100
AcDbLine
 10
34.573187936403286
 20
40.44732623165211
 30
-2.0
 11
34.573187936403286
 21
40.44732623165211
 31
0.0
  0
LINE
  5
179
330
17
100
AcDbEntity
  8
0
100
AcDbLine
 10
70.59985601079266
 20
40.44732623165211
 30
-2.0
 11
34.573187936403286
 21
40.44732623165211
 31
-2.0
  0
LINE
  5
17A
330
17
100
AcDbEntity
  8
0
100
AcDbLine
 10
70.59985601079266
 20
40.44732623165211
 30
-2.0
 11
70.59985601079266
 21
40.44732623165211
 31
0.0
  0
LINE
  5
17B
330
17
100
AcDbEntity
  8
0
100
AcDbLine
 10
70.59985601079266
 20
40.44732623165212
 30
-2.0
 11
74.4665831781642
 21
37.95835137704282
 31
-2.0
  0
LINE
  5
17C
330
17
100
AcDbEntity
  8
0
100
AcDbLine
 10
74.4665831781642
 20
37.95835137704282
 30
-2.0
 11
74.4665831781642
 21
37.95835137704282
 31
0.0
  0
LINE
  5
17D
330
17
100
AcDbEntity
  8
0
100
AcDbLine
 10
79.4665831781642
 20
31.958351377042817
 30
-2.0
 11
74.4665831781642
 21
37.958351377042824
 31
-2.0
  0
LINE
  5
17E
330
17
100
AcDbEntity
  8
0
100
AcDbLine
 10
79.4665831781642
 20
31.958351377042813
 30
-2.0
 11
79.4665831781642
 21
31.958351377042813
 31
0.0
  0
LINE
  5
17F
330
17
100
AcDbEntity
  8
0
100
AcDbLine
 10
80.12072330516679
 20
26.926904633832585
 30
-2.0
 11
79.46658317816419
 21
31.95835137704281
 31
-2.0
  0
LINE
  5
180
330
17
100
AcDbEntity
  8
0
100
AcDbLine
 10
80.1207233051668
 20
26.926904633832585
 30
-2.0
 11
80.1207233051668
 21
26.926904633832585
 31
0.0
  0
ARC
  5
181
330
17
100
AcDbEntity
  8
0
100
AcDbCircle
 10
80.64680639453347
 20
23.315018425341734
 30
-2.0
 40
3.6499979999999996
100
AcDbArc
 50
-261.712956986062
 51
-83.472053008422
  0
LINE
  5
182
330
17
100
AcDbEntity
  8
0
100
AcDbLine
 10
81.06176672295784
 20
19.688685108361902
 30
-2.0
 11
81.06176672295784
 21
19.688685108361902
 31
0.0
  0
LINE
  5
183
330
17
100
AcDbEntity
  8
0
100
AcDbLine
 10
81.7270296109027
 20
14.571685473640647
 30
-2.0
 11
81.06176672295784
 21
19.688685108361902
 31
-2.0
  0
LINE
  5
184
330
17
100
AcDbEntity
  8
0
100
AcDbLine
 10
81.72702961090272
 20
14.571685473640649
 30
-2.0
 11
81.72702961090272
 21
14.571685473640649
 31
0.0
  0
LINE
  5
185
330
17
100
AcDbEntity
  8
0
100
AcDbLine
 10
82.08613433440388
 20
8.95
 30
-2.0
 11
81.72702961090272
 21
14.571685473640649
 31
-2.0
  0
LINE
  5
186
330
17
100
AcDbEntity
  8
0
100
AcDbLine
 10
82.08613433440388
 20
8.95
 30
-2.0
 11
82.08613433440388
 21
8.95
 31
0.0
  0
LINE
  5
187
330
17
100
AcDbEntity
  8
0
100
AcDbLine
 10
82.08613433440387
 20
-8.95
 30
-2.0
 11
82.08613433440387
 21
8.95
 31
-2.0
  0
LINE
  5
188
330
17
100
AcDbEntity
  8
0
100
AcDbLine
 10
82.08613433440388
 20
-8.95
 30
-2.0
 11
82.08613433440388
 21
-8.95
 31
0.0
  0
LINE
  5
189
330
17
100
AcDbEntity
  8
0
100
AcDbLine
 10
82.08613433440388
 20
-8.95
 30
-2.0
 11
81.72702961090272
 21
-14.571685473640649
 31
-2.0
  0
LINE
  5
18A
330
17
100
AcDbEntity
  8
0
100
AcDbLine
 10
81.72702961090272
 20
-14.571685473640649
 30
-2.0
 11
81.72702961090272
 21
-14.571685473640649
 31
0.0
  0
LINE
  5
18B
330
17
100
AcDbEntity
  8
0
100
AcDbLine
 10
81.72702961090272
 20
-14.571685473640649
 30
-2.0
 11
80.54461597602115
 21
-23.666451238298542
 31
-2.0
  0
LINE
  5
18C
330
17
100
AcDbEntity
  8
0
100
AcDbLine
 10
80.54461597602115
 20
-23.666451238298542
 30
-2.0000000000000004
 11
80.54461597602115
 21
-23.666451238298542
 31
0.0
  0
ARC
  5
18D
330
17
100
AcDbEntity
  8
0
100
AcDbCircle
 10
80.64680639453347
 20
-27.315018425341734
 30
-2.0
 40
3.6499979999999996
100
AcDbArc
 50
-268.39565805830324
 51
-106.41933194721241
  0
LINE
  5
18E
330
17
100
AcDbEntity
  8
0
100
AcDbLine
 10
79.61507927485398
 20
-30.816164602027573
 30
-2.0
 11
79.61507927485398
 21
-30.816164602027573
 31
0.0
  0
LINE
  5
18F
330
17
100
AcDbEntity
  8
0
100
AcDbLine
 10
79.61507927485397
 20
-30.81616460202757
 30
-2.0
 11
79.4665831781642
 21
-31.958351377042817
 31
-2.0
  0
LINE
  5
190
330
17
100
AcDbEntity
  8
0
100
AcDbLine
 10
79.4665831781642
 20
-31.958351377042813
 30
-2.0
 11
79.4665831781642
 21
-31.958351377042813
 31
0.0
  0
LINE
  5
191
330
17
100
AcDbEntity
  8
0
100
AcDbLine
 10
79.46658317816419
 20
-31.958351377042803
 30
-2.0
 11
76.42020663777465
 21
-38.856395131809556
 31
-2.0
  0
LINE
  5
192
330
17
100
AcDbEntity
  8
0
100
AcDbLine
 10
76.42020663777467
 20
-38.85639513180956
 30
-2.0
 11
76.42020663777467
 21
-38.85639513180956
 31
0.0
  0
LINE
  5
193
330
17
100
AcDbEntity
  8
0
100
AcDbLine
 10
77.85552815034382
 20
-40.60658175519634
 30
-2.0
 11
76.42020663777467
 21
-38.85639513180957
 31
-2.0
  0
LINE
  5
194
330
17
100
AcDbEntity
  8
0
100
AcDbLine
 10
77.85552815034382
 20
-40.60658175519634
 30
-2.0
 11
77.85552815034382
 21
-40.60658175519634
 31
0.0
  0
LINE
  5
195
330
17
100
AcDbEntity
  8
0
100
AcDbLine
 10
77.85552815034382
 20
-40.60658175519633
 30
-2.0
 11
86.71140444067977
 21
-48.03754428416885
 31
-2.0
  0
LINE
  5
196
330
17
100
AcDbEntity
  8
0
100
AcDbLine
 10
86.71140444067979
 20
-48.037544284168845
 30
-2.0
 11
86.71140444067979
 21
-48.037544284168845
 31
0.0
  0
LINE
  5
197
330
17
100
AcDbEntity
  8
0
100
AcDbLine
 10
86.71140444067977
 20
-48.03754428416884
 30
-2.0
 11
82.411254099029
 21
-56.93920338893048
 31
-2.0
  0
LINE
  5
198
330
17
100
AcDbEntity
  8
0
100
AcDbLine
 10
82.41125409902901
 20
-56.93920338893049
 30
-2.0
 11
82.41125409902901
 21
-56.93920338893049
 31
0.0
  0
LINE
  5
199
330
17
100
AcDbEntity
  8
0
100
AcDbLine
 10
82.41125409902901
 20
-56.93920338893049
 30
-2.0
 11
85.64023098494854
 21
-61.07210533460807
 31
-2.0
  0
LINE
  5
19A
330
17
100
AcDbEntity
  8
0
100
AcDbLine
 10
85.64023098494854
 20
-61.07210533460807
 30
-2.0
 11
85.64023098494854
 21
-61.07210533460807
 31
0.0
  0
LINE
  5
19B
330
17
100
AcDbEntity
  8
0
100
AcDbLine
 10
92.30192937365157
 20
-73.83388922759983
 30
-2.0000000000000004
 11
85.64023098494854
 21
-61.07210533460807
 31
-2.0000000000000004
  0
LINE
  5
19C
330
17
100
AcDbEntity
  8
0
100
AcDbLine
 10
92.30192937365156
 20
-73.83388922759983
 30
-2.0
 11
92.30192937365156
 21
-73.83388922759983
 31
0.0
  0
LINE
  5
19D
330
17
100
AcDbEntity
  8
0
100
AcDbLine
 10
92.30192937365156
 20
-73.83388922759983
 30
-2.0
 11
91.6182097893116
 21
-77.41426816689767
 31
-2.0
  0
LINE
  5
19E
330
17
100
AcDbEntity
  8
0
100
AcDbLine
 10
91.6182097893116
 20
-77.41426816689767
 30
-2.0
 11
91.6182097893116
 21
-77.41426816689767
 31
0.0
  0
LINE
  5
19F
330
17
100
AcDbEntity
  8
0
100
AcDbLine
 10
91.61820978931162
 20
-77.41426816689768
 30
-2.0
 11
77.74554429037661
 21
-88.77659182765868
 31
-2.0
  0
LINE
  5
1A0
330
17
100
AcDbEntity
  8
0
100
AcDbLine
 10
77.74554429037661
 20
-88.77659182765866
 30
-2.0
 11
77.74554429037661
 21
-88.77659182765866
 31
0.0
  0
LINE
  5
1A1
330
17
100
AcDbEntity
  8
0
100
AcDbLine
 10
74.41027086212279
 20
-89.52677093017425
 30
-2.0
 11
77.74554429037661
 21
-88.77659182765866
 31
-2.0
  0
LINE
  5
1A2
330
17
100
AcDbEntity
  8
0
100
AcDbLine
 10
74.41027086212279
 20
-89.52677093017425
 30
-2.0
 11
74.41027086212279
 21
-89.52677093017425
 31
0.0
  0
LINE
  5
1A3
330
17
100
AcDbEntity
  8
0
100
AcDbLine
 10
74.41027086212279
 20
-89.52677093017425
 30
-2.0
 11
72.87950542485459
 21
-90.22432251835124
 31
-2.0
  0
LINE
  5
1A4
330
17
100
AcDbEntity
  8
0
100
AcDbLine
 10
72.87950542485459
 20
-90.22432251835124
 30
-2.0
 11
72.87950542485459
 21
-90.22432251835124
 31
0.0
  0
LINE
  5
1A5
330
17
100
AcDbEntity
  8
0
100
AcDbLine
 10
72.87950542485459
 20
-90.22432251835124
 30
-2.0
 11
72.81683854375378
 21
-90.27914770909344
 31
-2.0
  0
LINE
  5
1A6
330
17
100
AcDbEntity
  8
0
100
AcDbLine
 10
72.81683854375378
 20
-90.27914770909344
 30
-2.0
 11
72.81683854375378
 21
-90.27914770909344
 31
0.0
  0
LINE
  5
1A7
330
17
100
AcDbEntity
  8
0
100
AcDbLine
 10
72.80198633125644
 20
-90.29214142074476
 30
-1.9999999999999996
 11
72.81683854375378
 21
-90.27914770909344
 31
-1.9999999999999996
  0
LINE
  5
1A8
330
17
100
AcDbEntity
  8
0
100
AcDbLine
 10
72.80198633125643
 20
-90.29214142074474
 30
-2.0
 11
72.80198633125643
 21
-90.29214142074474
 31
0.0
  0
LINE
  5
1A9
330
17
100
AcDbEntity
  8
0
100
AcDbLine
 10
72.80198633125643
 20
-90.29214142074474
 30
-2.0
 11
58.92606857719033
 21
-102.43172494917843
 31
-2.0
  0
LINE
  5
1AA
330
17
100
AcDbEntity
  8
0
100
AcDbLine
 10
58.92606857719032
 20
-102.43172494917843
 30
-2.0
 11
58.92606857719032
 21
-102.43172494917843
 31
0.0
  0
LINE
  5
1AB
330
17
100
AcDbEntity
  8
0
100
AcDbLine
 10
53.62717147070752
 20
-102.80935860221219
 30
-2.0
 11
58.92606857719032
 21
-102.43172494917849
 31
-2.0
  0
LINE
  5
1AC
330
17
100
AcDbEntity
  8
0
100
AcDbLine
 10
53.62717147070752
 20
-102.80935860221214
 30
-2.0000000000000004
 11
53.62717147070752
 21
-102.80935860221214
 31
0.0
  0
LINE
  5
1AD
330
17
100
AcDbEntity
  8
0
100
AcDbLine
 10
48.47285686861138
 20
-99.70049637192798
 30
-2.000000000000001
 11
53.62717147070752
 21
-102.80935860221214
 31
-2.000000000000001
  0
LINE
  5
1AE
330
17
100
AcDbEntity
  8
0
100
AcDbLine
 10
48.47285686861139
 20
-99.70049637192797
 30
-2.0
 11
48.47285686861139
 21
-99.70049637192797
 31
0.0
  0
LINE
  5
1AF
330
17
100
AcDbEntity
  8
0
100
AcDbLine
 10
46.26149507720405
 20
-96.65681798261349
 30
-2.0
 11
48.47285686861138
 21
-99.70049637192795
 31
-2.0
  0
LINE
  5
1B0
330
17
100
AcDbEntity
  8
0
100
AcDbLine
 10
46.26149507720405
 20
-96.6568179826135
 30
-2.0
 11
46.26149507720405
 21
-96.6568179826135
 31
0.0
  0
ARC
  5
1B1
330
17
100
AcDbEntity
  8
0
100
AcDbCircle
 10
46.15577455866834
 20
-93.00835137704281
 30
-2.0
 40
3.6499979999999996
100
AcDbArc
 50
-88.34022188449097
 51
160.3402218844789
  0
ENDSEC
  0
SECTION
  2
OBJECTS
  0
DICTIONARY
  5
A
330
0
100
AcDbDictionary
281
1
  3
ACAD_COLOR
350
B
  3
ACAD_GROUP
350
C
  3
ACAD_LAYOUT
350
D
  3
ACAD_MATERIAL
350
E
  3
ACAD_MLEADERSTYLE
350
F
  3
ACAD_MLINESTYLE
350
10
  3
ACAD_PLOTSETTINGS
350
11
  3
ACAD_PLOTSTYLENAME
350
12
  3
ACAD_SCALELIST
350
14
  3
ACAD_TABLESTYLE
350
15
  3
ACAD_VISUALSTYLE
350
16
  3
EZDXF_META
350
2D
  0
DICTIONARY
  5
B
330
A
100
AcDbDictionary
281
1
  0
DICTIONARY
  5
C
330
A
100
AcDbDictionary
281
1
  0
DICTIONARY
  5
D
330
A
100
AcDbDictionary
281
1
  3
Model
350
1A
  3
Layout1
350
1E
  0
DICTIONARY
  5
E
330
A
100
AcDbDictionary
281
1
  3
ByBlock
350
1F
  3
ByLayer
350
20
  3
Global
350
21
  0
DICTIONARY
  5
F
330
A
100
AcDbDictionary
281
1
  3
Standard
350
2C
  0
DICTIONARY
  5
10
330
A
100
AcDbDictionary
281
1
  3
Standard
350
22
  0
DICTIONARY
  5
11
330
A
100
AcDbDictionary
281
1
  0
ACDBDICTIONARYWDFLT
  5
12
330
A
100
AcDbDictionary
281
1
  3
Normal
350
13
100
AcDbDictionaryWithDefault
340
13
  0
ACDBPLACEHOLDER
  5
13
330
12
  0
DICTIONARY
  5
14
330
A
100
AcDbDictionary
281
1
  0
DICTIONARY
  5
15
330
A
100
AcDbDictionary
281
1
  0
DICTIONARY
  5
16
330
A
100
AcDbDictionary
281
1
  0
LAYOUT
  5
1A
330
D
100
AcDbPlotSettings
  1

  2
Adobe PDF
  4
A3
  6

 40
7.5
 41
20.0
 42
7.5
 43
20.0
 44
420.0
 45
297.0
 46
0.0
 47
0.0
 48
0.0
 49
0.0
140
0.0
141
0.0
142
1.0
143
1.0
 70
1024
 72
1
 73
1
 74
5
  7

 75
16
 76
0
 77
2
 78
300
147
1.0
148
0.0
149
0.0
100
AcDbLayout
  1
Model
 70
1
 71
0
 10
0.0
 20
0.0
 11
420.0
 21
297.0
 12
0.0
 22
0.0
 32
0.0
 14
1e+20
 24
1e+20
 34
1e+20
 15
-1e+20
 25
-1e+20
 35
-1e+20
146
0.0
 13
0.0
 23
0.0
 33
0.0
 16
1.0
 26
0.0
 36
0.0
 17
0.0
 27
1.0
 37
0.0
 76
1
330
17
  0
LAYOUT
  5
1E
330
D
100
AcDbPlotSettings
  1

  2
Adobe PDF
  4
A3
  6

 40
7.5
 41
20.0
 42
7.5
 43
20.0
 44
420.0
 45
297.0
 46
0.0
 47
0.0
 48
0.0
 49
0.0
140
0.0
141
0.0
142
1.0
143
1.0
 70
0
 72
1
 73
1
 74
5
  7

 75
16
 76
0
 77
2
 78
300
147
1.0
148
0.0
149
0.0
100
AcDbLayout
  1
Layout1
 70
1
 71
1
 10
0.0
 20
0.0
 11
420.0
 21
297.0
 12
0.0
 22
0.0
 32
0.0
 14
1e+20
 24
1e+20
 34
1e+20
 15
-1e+20
 25
-1e+20
 35
-1e+20
146
0.0
 13
0.0
 23
0.0
 33
0.0
 16
1.0
 26
0.0
 36
0.0
 17
0.0
 27
1.0
 37
0.0
 76
1
330
1B
  0
MATERIAL
  5
1F
102
{ACAD_REACTORS
330
E
102
}
330
E
100
AcDbMaterial
  1
ByBlock
  2

 70
0
 40
1.0
 71
1
 41
1.0
 91
-1023410177
 42
1.0
 72
1
  3

 73
1
 74
1
 75
1
 44
0.5
 73
0
 45
1.0
 46
1.0
 77
1
  4

 78
1
 79
1
170
1
 48
1.0
171
1
  6

172
1
173
1
174
1
140
1.0
141
1.0
175
1
  7

176
1
177
1
178
1
143
1.0
179
1
  8

270
1
271
1
272
1
145
1.0
146
1.0
273
1
  9

274
1
275
1
276
1
 42
1.0
 72
1
  3

 73
1
 74
1
 75
1
 94
63
  0
MATERIAL
  5
20
102
{ACAD_REACTORS
330
E
102
}
330
E
100
AcDbMaterial
  1
ByLayer
  2

 70
0
 40
1.0
 71
1
 41
1.0
 91
-1023410177
 42
1.0
 72
1
  3

 73
1
 74
1
 75
1
 44
0.5
 73
0
 45
1.0
 46
1.0
 77
1
  4

 78
1
 79
1
170
1
 48
1.0
171
1
  6

172
1
173
1
174
1
140
1.0
141
1.0
175
1
  7

176
1
177
1
178
1
143
1.0
179
1
  8

270
1
271
1
272
1
145
1.0
146
1.0
273
1
  9

274
1
275
1
276
1
 42
1.0
 72
1
  3

 73
1
 74
1
 75
1
 94
63
  0
MATERIAL
  5
21
102
{ACAD_REACTORS
330
E
102
}
330
E
100
AcDbMaterial
  1
Global
  2

 70
0
 40
1.0
 71
1
 41
1.0
 91
-1023410177
 42
1.0
 72
1
  3

 73
1
 74
1
 75
1
 44
0.5
 73
0
 45
1.0
 46
1.0
 77
1
  4

 78
1
 79
1
170
1
 48
1.0
171
1
  6

172
1
173
1
174
1
140
1.0
141
1.0
175
1
  7

176
1
177
1
178
1
143
1.0
179
1
  8

270
1
271
1
272
1
145
1.0
146
1.0
273
1
  9

274
1
275
1
276
1
 42
1.0
 72
1
  3

 73
1
 74
1
 75
1
 94
63
  0
MLINESTYLE
  5
22
102
{ACAD_REACTORS
330
10
102
}
330
10
100
AcDbMlineStyle
  2
Standard
 70
0
  3

 62
256
 51
90.0
 52
90.0
 71
2
 49
0.5
 62
256
  6
BYLAYER
 49
-0.5
 62
256
  6
BYLAYER
  0
MLEADERSTYLE
  5
2C
102
{ACAD_REACTORS
330
F
102
}
330
F
100
AcDbMLeaderStyle
179
2
170
2
171
1
172
0
 90
2
 40
0.0
 41
0.0
173
1
 91
-1056964608
 92
-2
290
1
 42
2.0
291
1
 43
8.0
  3
Standard
 44
4.0
300

342
29
174
1
175
1
176
0
178
1
 93
-1056964608
 45
4.0
292
0
297
0
 46
4.0
 94
-1056964608
 47
1.0
 49
1.0
140
1.0
294
1
141
0.0
177
0
142
1.0
295
0
296
0
143
3.75
271
0
272
9
273
9
  0
DICTIONARY
  5
2D
330
A
100
AcDbDictionary
280
1
281
1
  3
CREATED_BY_EZDXF
350
2E
  3
WRITTEN_BY_EZDXF
350
1B4
  0
DICTIONARYVAR
  5
2E
330
2D
100
DictionaryVariables
280
0
  1
0.18.1 @ 2023-01-07T09:59:46.822726+00:00
  0
DICTIONARYVAR
  5
1B4
330
2D
100
DictionaryVariables
280
0
  1
0.18.1 @ 2023-01-07T09:59:46.985686+00:00
  0
ENDSEC
  0
EOF
