  0
SECTION
  2
HEADER
  9
$ACADVER
  1
AC1027
  9
$ACADMAINTVER
 70
105
  9
$DWGCODEPAGE
  3
ANSI_1252
  9
$LASTSAVEDBY
  1
ezdxf
  9
$REQUIREDVERSIONS
160
0
  9
$INSBASE
 10
0.0
 20
0.0
 30
0.0
  9
$EXTMIN
 10
1e+20
 20
1e+20
 30
1e+20
  9
$EXTMAX
 10
-1e+20
 20
-1e+20
 30
-1e+20
  9
$LIMMIN
 10
0.0
 20
0.0
  9
$LIMMAX
 10
420.0
 20
297.0
  9
$ORTHOMODE
 70
0
  9
$REGENMODE
 70
1
  9
$FILLMODE
 70
1
  9
$QTEXTMODE
 70
0
  9
$MIRRTEXT
 70
1
  9
$LTSCALE
 40
1.0
  9
$ATTMODE
 70
1
  9
$TEXTSIZE
 40
2.5
  9
$TRACEWID
 40
1.0
  9
$TEXTSTYLE
  7
Standard
  9
$CLAYER
  8
0
  9
$CELTYPE
  6
ByLayer
  9
$CECOLOR
 62
256
  9
$CELTSCALE
 40
1.0
  9
$DISPSILH
 70
0
  9
$DIMSCALE
 40
1.0
  9
$DIMASZ
 40
2.5
  9
$DIMEXO
 40
0.625
  9
$DIMDLI
 40
3.75
  9
$DIMRND
 40
0.0
  9
$DIMDLE
 40
0.0
  9
$DIMEXE
 40
1.25
  9
$DIMTP
 40
0.0
  9
$DIMTM
 40
0.0
  9
$DIMTXT
 40
2.5
  9
$DIMCEN
 40
2.5
  9
$DIMTSZ
 40
0.0
  9
$DIMTOL
 70
0
  9
$DIMLIM
 70
0
  9
$DIMTIH
 70
0
  9
$DIMTOH
 70
0
  9
$DIMSE1
 70
0
  9
$DIMSE2
 70
0
  9
$DIMTAD
 70
1
  9
$DIMZIN
 70
8
  9
$DIMBLK
  1

  9
$DIMASO
 70
1
  9
$DIMSHO
 70
1
  9
$DIMPOST
  1

  9
$DIMAPOST
  1

  9
$DIMALT
 70
0
  9
$DIMALTD
 70
3
  9
$DIMALTF
 40
0.03937007874
  9
$DIMLFAC
 40
1.0
  9
$DIMTOFL
 70
1
  9
$DIMTVP
 40
0.0
  9
$DIMTIX
 70
0
  9
$DIMSOXD
 70
0
  9
$DIMSAH
 70
0
  9
$DIMBLK1
  1

  9
$DIMBLK2
  1

  9
$DIMSTYLE
  2
ISO-25
  9
$DIMCLRD
 70
0
  9
$DIMCLRE
 70
0
  9
$DIMCLRT
 70
0
  9
$DIMTFAC
 40
1.0
  9
$DIMGAP
 40
0.625
  9
$DIMJUST
 70
0
  9
$DIMSD1
 70
0
  9
$DIMSD2
 70
0
  9
$DIMTOLJ
 70
0
  9
$DIMTZIN
 70
8
  9
$DIMALTZ
 70
0
  9
$DIMALTTZ
 70
0
  9
$DIMUPT
 70
0
  9
$DIMDEC
 70
2
  9
$DIMTDEC
 70
2
  9
$DIMALTU
 70
2
  9
$DIMALTTD
 70
3
  9
$DIMTXSTY
  7
Standard
  9
$DIMAUNIT
 70
0
  9
$DIMADEC
 70
0
  9
$DIMALTRND
 40
0.0
  9
$DIMAZIN
 70
0
  9
$DIMDSEP
 70
44
  9
$DIMATFIT
 70
3
  9
$DIMFRAC
 70
0
  9
$DIMLDRBLK
  1

  9
$DIMLUNIT
 70
2
  9
$DIMLWD
 70
-2
  9
$DIMLWE
 70
-2
  9
$DIMTMOVE
 70
0
  9
$DIMFXL
 40
1.0
  9
$DIMFXLON
 70
0
  9
$DIMJOGANG
 40
0.785398163397
  9
$DIMTFILL
 70
0
  9
$DIMTFILLCLR
 70
0
  9
$DIMARCSYM
 70
0
  9
$DIMLTYPE
  6

  9
$DIMLTEX1
  6

  9
$DIMLTEX2
  6

  9
$DIMTXTDIRECTION
 70
0
  9
$LUNITS
 70
2
  9
$LUPREC
 70
4
  9
$SKETCHINC
 40
1.0
  9
$FILLETRAD
 40
10.0
  9
$AUNITS
 70
0
  9
$AUPREC
 70
2
  9
$MENU
  1
.
  9
$ELEVATION
 40
0.0
  9
$PELEVATION
 40
0.0
  9
$THICKNESS
 40
0.0
  9
$LIMCHECK
 70
0
  9
$CHAMFERA
 40
0.0
  9
$CHAMFERB
 40
0.0
  9
$CHAMFERC
 40
0.0
  9
$CHAMFERD
 40
0.0
  9
$SKPOLY
 70
0
  9
$TDCREATE
 40
2459952.4109953702
  9
$TDUCREATE
 40
2458532.153996898
  9
$TDUPDATE
 40
2459952.4109953702
  9
$TDUUPDATE
 40
2458532.1544311
  9
$TDINDWG
 40
0.0
  9
$TDUSRTIMER
 40
0.0
  9
$USRTIMER
 70
1
  9
$ANGBASE
 50
0.0
  9
$ANGDIR
 70
0
  9
$PDMODE
 70
0
  9
$PDSIZE
 40
0.0
  9
$PLINEWID
 40
0.0
  9
$SPLFRAME
 70
0
  9
$SPLINETYPE
 70
6
  9
$SPLINESEGS
 70
8
  9
$HANDSEED
  5
194
  9
$SURFTAB1
 70
6
  9
$SURFTAB2
 70
6
  9
$SURFTYPE
 70
6
  9
$SURFU
 70
6
  9
$SURFV
 70
6
  9
$UCSBASE
  2

  9
$UCSNAME
  2

  9
$UCSORG
 10
0.0
 20
0.0
 30
0.0
  9
$UCSXDIR
 10
1.0
 20
0.0
 30
0.0
  9
$UCSYDIR
 10
0.0
 20
1.0
 30
0.0
  9
$UCSORTHOREF
  2

  9
$UCSORTHOVIEW
 70
0
  9
$UCSORGTOP
 10
0.0
 20
0.0
 30
0.0
  9
$UCSORGBOTTOM
 10
0.0
 20
0.0
 30
0.0
  9
$UCSORGLEFT
 10
0.0
 20
0.0
 30
0.0
  9
$UCSORGRIGHT
 10
0.0
 20
0.0
 30
0.0
  9
$UCSORGFRONT
 10
0.0
 20
0.0
 30
0.0
  9
$UCSORGBACK
 10
0.0
 20
0.0
 30
0.0
  9
$PUCSBASE
  2

  9
$PUCSNAME
  2

  9
$PUCSORG
 10
0.0
 20
0.0
 30
0.0
  9
$PUCSXDIR
 10
1.0
 20
0.0
 30
0.0
  9
$PUCSYDIR
 10
0.0
 20
1.0
 30
0.0
  9
$PUCSORTHOREF
  2

  9
$PUCSORTHOVIEW
 70
0
  9
$PUCSORGTOP
 10
0.0
 20
0.0
 30
0.0
  9
$PUCSORGBOTTOM
 10
0.0
 20
0.0
 30
0.0
  9
$PUCSORGLEFT
 10
0.0
 20
0.0
 30
0.0
  9
$PUCSORGRIGHT
 10
0.0
 20
0.0
 30
0.0
  9
$PUCSORGFRONT
 10
0.0
 20
0.0
 30
0.0
  9
$PUCSORGBACK
 10
0.0
 20
0.0
 30
0.0
  9
$USERI1
 70
0
  9
$USERI2
 70
0
  9
$USERI3
 70
0
  9
$USERI4
 70
0
  9
$USERI5
 70
0
  9
$USERR1
 40
0.0
  9
$USERR2
 40
0.0
  9
$USERR3
 40
0.0
  9
$USERR4
 40
0.0
  9
$USERR5
 40
0.0
  9
$WORLDVIEW
 70
1
  9
$SHADEDGE
 70
3
  9
$SHADEDIF
 70
70
  9
$TILEMODE
 70
1
  9
$MAXACTVP
 70
64
  9
$PINSBASE
 10
0.0
 20
0.0
 30
0.0
  9
$PLIMCHECK
 70
0
  9
$PEXTMIN
 10
1e+20
 20
1e+20
 30
1e+20
  9
$PEXTMAX
 10
-1e+20
 20
-1e+20
 30
-1e+20
  9
$PLIMMIN
 10
0.0
 20
0.0
  9
$PLIMMAX
 10
420.0
 20
297.0
  9
$UNITMODE
 70
0
  9
$VISRETAIN
 70
1
  9
$PLINEGEN
 70
0
  9
$PSLTSCALE
 70
1
  9
$TREEDEPTH
 70
3020
  9
$CMLSTYLE
  2
Standard
  9
$CMLJUST
 70
0
  9
$CMLSCALE
 40
20.0
  9
$PROXYGRAPHICS
 70
1
  9
$MEASUREMENT
 70
1
  9
$CELWEIGHT
370
-1
  9
$ENDCAPS
280
0
  9
$JOINSTYLE
280
0
  9
$LWDISPLAY
290
0
  9
$INSUNITS
 70
6
  9
$HYPERLINKBASE
  1

  9
$STYLESHEET
  1

  9
$XEDIT
290
1
  9
$CEPSNTYPE
380
0
  9
$PSTYLEMODE
290
1
  9
$FINGERPRINTGUID
  2
{276AA692-3E8A-49BC-832E-BF7A952308E2}
  9
$VERSIONGUID
  2
{7BA714FB-6CBD-4ADB-BED0-ACC09826A490}
  9
$EXTNAMES
290
1
  9
$PSVPSCALE
 40
0.0
  9
$OLESTARTUP
290
0
  9
$SORTENTS
280
127
  9
$INDEXCTL
280
0
  9
$HIDETEXT
280
1
  9
$XCLIPFRAME
280
0
  9
$HALOGAP
280
0
  9
$OBSCOLOR
 70
257
  9
$OBSLTYPE
280
0
  9
$INTERSECTIONDISPLAY
280
0
  9
$INTERSECTIONCOLOR
 70
257
  9
$DIMASSOC
280
2
  9
$PROJECTNAME
  1

  9
$CAMERADISPLAY
290
0
  9
$LENSLENGTH
 40
50.0
  9
$CAMERAHEIGHT
 40
0.0
  9
$STEPSPERSEC
 40
24.0
  9
$STEPSIZE
 40
100.0
  9
$3DDWFPREC
 40
2.0
  9
$PSOLWIDTH
 40
0.005
  9
$PSOLHEIGHT
 40
0.08
  9
$LOFTANG1
 40
1.570796326795
  9
$LOFTANG2
 40
1.570796326795
  9
$LOFTMAG1
 40
0.0
  9
$LOFTMAG2
 40
0.0
  9
$LOFTPARAM
 70
7
  9
$LOFTNORMALS
280
1
  9
$LATITUDE
 40
37.795
  9
$LONGITUDE
 40
-122.394
  9
$NORTHDIRECTION
 40
0.0
  9
$TIMEZONE
 70
-8000
  9
$LIGHTGLYPHDISPLAY
280
1
  9
$TILEMODELIGHTSYNCH
280
1
  9
$CMATERIAL
347
20
  9
$SOLIDHIST
280
0
  9
$SHOWHIST
280
1
  9
$DWFFRAME
280
2
  9
$DGNFRAME
280
2
  9
$REALWORLDSCALE
290
1
  9
$INTERFERECOLOR
 62
256
  9
$CSHADOW
280
0
  9
$SHADOWPLANELOCATION
 40
0.0
  0
ENDSEC
  0
SECTION
  2
CLASSES
  0
CLASS
  1
ACDBDICTIONARYWDFLT
  2
AcDbDictionaryWithDefault
  3
ObjectDBX Classes
 90
0
 91
0
280
0
281
0
  0
CLASS
  1
SUN
  2
AcDbSun
  3
SCENEOE
 90
1153
 91
0
280
0
281
0
  0
CLASS
  1
VISUALSTYLE
  2
AcDbVisualStyle
  3
ObjectDBX Classes
 90
4095
 91
0
280
0
281
0
  0
CLASS
  1
MATERIAL
  2
AcDbMaterial
  3
ObjectDBX Classes
 90
1153
 91
0
280
0
281
0
  0
CLASS
  1
SCALE
  2
AcDbScale
  3
ObjectDBX Classes
 90
1153
 91
0
280
0
281
0
  0
CLASS
  1
TABLESTYLE
  2
AcDbTableStyle
  3
ObjectDBX Classes
 90
4095
 91
0
280
0
281
0
  0
CLASS
  1
MLEADERSTYLE
  2
AcDbMLeaderStyle
  3
ACDB_MLEADERSTYLE_CLASS
 90
4095
 91
0
280
0
281
0
  0
CLASS
  1
DICTIONARYVAR
  2
AcDbDictionaryVar
  3
ObjectDBX Classes
 90
0
 91
0
280
0
281
0
  0
CLASS
  1
CELLSTYLEMAP
  2
AcDbCellStyleMap
  3
ObjectDBX Classes
 90
1152
 91
0
280
0
281
0
  0
CLASS
  1
MENTALRAYRENDERSETTINGS
  2
AcDbMentalRayRenderSettings
  3
SCENEOE
 90
1024
 91
0
280
0
281
0
  0
CLASS
  1
ACDBDETAILVIEWSTYLE
  2
AcDbDetailViewStyle
  3
ObjectDBX Classes
 90
1025
 91
0
280
0
281
0
  0
CLASS
  1
ACDBSECTIONVIEWSTYLE
  2
AcDbSectionViewStyle
  3
ObjectDBX Classes
 90
1025
 91
0
280
0
281
0
  0
CLASS
  1
RASTERVARIABLES
  2
AcDbRasterVariables
  3
ISM
 90
0
 91
0
280
0
281
0
  0
CLASS
  1
LAYOUT
  2
AcDbLayout
  3
ObjectDBX Classes
 90
0
 91
0
280
0
281
0
  0
CLASS
  1
ACDBPLACEHOLDER
  2
AcDbPlaceHolder
  3
ObjectDBX Classes
 90
0
 91
0
280
0
281
0
  0
ENDSEC
  0
SECTION
  2
TABLES
  0
TABLE
  2
VPORT
  5
8
330
0
100
AcDbSymbolTable
 70
1
  0
VPORT
  5
23
330
8
100
AcDbSymbolTableRecord
100
AcDbViewportTableRecord
  2
*Active
 70
0
 10
0.0
 20
0.0
 11
1.0
 21
1.0
 12
0.0
 22
0.0
 13
0.0
 23
0.0
 14
0.5
 24
0.5
 15
0.5
 25
0.5
 16
0.0
 26
0.0
 36
1.0
 17
0.0
 27
0.0
 37
0.0
 40
1000.0
 41
1.34
 42
50.0
 43
0.0
 44
0.0
 50
0.0
 51
0.0
 71
0
 72
1000
 73
1
 74
3
 75
0
 76
0
 77
0
 78
0
281
0
 65
0
146
0.0
  0
ENDTAB
  0
TABLE
  2
LTYPE
  5
2
330
0
100
AcDbSymbolTable
 70
3
  0
LTYPE
  5
24
330
2
100
AcDbSymbolTableRecord
100
AcDbLinetypeTableRecord
  2
ByBlock
 70
0
  3

 72
65
 73
0
 40
0.0
  0
LTYPE
  5
25
330
2
100
AcDbSymbolTableRecord
100
AcDbLinetypeTableRecord
  2
ByLayer
 70
0
  3

 72
65
 73
0
 40
0.0
  0
LTYPE
  5
26
330
2
100
AcDbSymbolTableRecord
100
AcDbLinetypeTableRecord
  2
Continuous
 70
0
  3

 72
65
 73
0
 40
0.0
  0
ENDTAB
  0
TABLE
  2
LAYER
  5
1
330
0
100
AcDbSymbolTable
 70
2
  0
LAYER
  5
27
330
1
100
AcDbSymbolTableRecord
100
AcDbLayerTableRecord
  2
0
 70
0
 62
7
  6
Continuous
370
-3
390
13
347
21
  0
LAYER
  5
28
330
1
100
AcDbSymbolTableRecord
100
AcDbLayerTableRecord
  2
Defpoints
 70
0
 62
7
  6
Continuous
290
0
370
-3
390
13
347
21
  0
ENDTAB
  0
TABLE
  2
STYLE
  5
5
330
0
100
AcDbSymbolTable
 70
1
  0
STYLE
  5
29
330
5
100
AcDbSymbolTableRecord
100
AcDbTextStyleTableRecord
  2
Standard
 70
0
 40
0.0
 41
1.0
 50
0.0
 71
0
 42
2.5
  3
txt
  4

  0
ENDTAB
  0
TABLE
  2
VIEW
  5
7
330
0
100
AcDbSymbolTable
 70
0
  0
ENDTAB
  0
TABLE
  2
UCS
  5
6
330
0
100
AcDbSymbolTable
 70
0
  0
ENDTAB
  0
TABLE
  2
APPID
  5
3
330
0
100
AcDbSymbolTable
 70
3
  0
APPID
  5
2A
330
3
100
AcDbSymbolTableRecord
100
AcDbRegAppTableRecord
  2
ACAD
 70
0
  0
APPID
  5
191
330
3
100
AcDbSymbolTableRecord
100
AcDbRegAppTableRecord
  2
HATCHBACKGROUNDCOLOR
 70
0
  0
APPID
  5
192
330
3
100
AcDbSymbolTableRecord
100
AcDbRegAppTableRecord
  2
EZDXF
 70
0
  0
ENDTAB
  0
TABLE
  2
DIMSTYLE
  5
4
330
0
100
AcDbSymbolTable
 70
1
100
AcDbDimStyleTable
  0
DIMSTYLE
105
2B
330
4
100
AcDbSymbolTableRecord
100
AcDbDimStyleTableRecord
  2
Standard
 70
0
 40
1.0
 41
2.5
 42
0.625
 43
3.75
 44
1.25
 45
0.0
 46
0.0
 47
0.0
 48
0.0
 49
2.5
140
2.5
141
2.5
142
0.0
143
0.03937007874
144
1.0
145
0.0
146
1.0
147
0.625
148
0.0
 69
0
 70
0
 71
0
 72
0
 73
0
 74
0
 75
0
 76
0
 77
1
 78
8
 79
3
170
0
171
3
172
1
173
0
174
0
175
0
176
0
177
0
178
0
179
2
271
2
272
2
273
2
274
3
275
0
276
0
277
2
278
44
279
0
280
0
281
0
282
0
283
0
284
8
285
0
286
0
288
0
289
3
290
0
371
-2
372
-2
  0
ENDTAB
  0
TABLE
  2
BLOCK_RECORD
  5
9
330
0
100
AcDbSymbolTable
 70
2
  0
BLOCK_RECORD
  5
17
330
9
100
AcDbSymbolTableRecord
100
AcDbBlockTableRecord
  2
*Model_Space
340
1A
 70
0
280
1
281
0
  0
BLOCK_RECORD
  5
1B
330
9
100
AcDbSymbolTableRecord
100
AcDbBlockTableRecord
  2
*Paper_Space
340
1E
 70
0
280
1
281
0
  0
ENDTAB
  0
ENDSEC
  0
SECTION
  2
BLOCKS
  0
BLOCK
  5
18
330
17
100
AcDbEntity
  8
0
100
AcDbBlockBegin
  2
*Model_Space
 70
0
 10
0.0
 20
0.0
 30
0.0
  3
*Model_Space
  1

  0
ENDBLK
  5
19
330
17
100
AcDbEntity
  8
0
100
AcDbBlockEnd
  0
BLOCK
  5
1C
330
1B
100
AcDbEntity
  8
0
100
AcDbBlockBegin
  2
*Paper_Space
 70
0
 10
0.0
 20
0.0
 30
0.0
  3
*Paper_Space
  1

  0
ENDBLK
  5
1D
330
1B
100
AcDbEntity
  8
0
100
AcDbBlockEnd
  0
ENDSEC
  0
SECTION
  2
ENTITIES
  0
LINE
  5
2F
330
17
100
AcDbEntity
  8
0
100
AcDbLine
 10
-49.54492442002908
 20
-97.18768256142738
 30
-5.0
 11
-53.89081818518405
 21
-100.33530276250286
 31
-5.0
  0
LINE
  5
30
330
17
100
AcDbEntity
  8
0
100
AcDbLine
 10
-49.54492442002909
 20
-97.18768256142735
 30
-5.0
 11
-40.461363849752544
 21
-97.29305244551247
 31
-5.0
  0
LINE
  5
31
330
17
100
AcDbEntity
  8
0
100
AcDbLine
 10
-40.46136384975132
 20
-97.2930524455144
 30
-5.0
 11
-27.37865812931489
 21
-88.93293088315967
 31
-5.0
  0
LINE
  5
32
330
17
100
AcDbEntity
  8
0
100
AcDbLine
 10
-6.411521545402394
 20
-69.17195499541647
 30
-5.0
 11
-27.3786581293149
 21
-88.93293088315966
 31
-5.0
  0
LINE
  5
33
330
17
100
AcDbEntity
  8
0
100
AcDbLine
 10
15.660210382360482
 20
-69.17195499541647
 30
-5.0
 11
-6.411521545402389
 21
-69.17195499541647
 31
-5.0
  0
LINE
  5
34
330
17
100
AcDbEntity
  8
0
100
AcDbLine
 10
15.660210382360486
 20
-69.17195499541647
 30
-5.0
 11
16.499775404857665
 21
-67.17195652746744
 31
-5.0
  0
LINE
  5
35
330
17
100
AcDbEntity
  8
0
100
AcDbLine
 10
22.605186569307243
 20
-51.92586062187465
 30
-5.0
 11
16.499775404857665
 21
-67.17195652746744
 31
-5.0
  0
LINE
  5
36
330
17
100
AcDbEntity
  8
0
100
AcDbLine
 10
22.60518656930724
 20
-51.92586062187464
 30
-5.0
 11
53.26569015980927
 21
-51.92586062187464
 31
-5.0
  0
LINE
  5
37
330
17
100
AcDbEntity
  8
0
100
AcDbLine
 10
53.265690159809274
 20
-51.92586062187466
 30
-4.999999999999999
 11
62.55144864061949
 21
-41.783638844890056
 31
-4.999999999999999
  0
LINE
  5
38
330
17
100
AcDbEntity
  8
0
100
AcDbLine
 10
62.822713784525256
 20
-40.74836351887029
 30
-5.0
 11
62.551448640619476
 21
-41.78363884489005
 31
-5.0
  0
LINE
  5
39
330
17
100
AcDbEntity
  8
0
100
AcDbLine
 10
62.82271378452609
 20
-40.748363518870285
 30
-5.0
 11
62.53928984883381
 21
-25.682492035951594
 31
-5.0
  0
LINE
  5
3A
330
17
100
AcDbEntity
  8
0
100
AcDbLine
 10
62.31464176153681
 20
-23.199298518468275
 30
-5.0
 11
62.53928984883367
 21
-25.682492035951597
 31
-5.0
  0
LINE
  5
3B
330
17
100
AcDbEntity
  8
0
100
AcDbLine
 10
62.31464176153684
 20
-23.199298518468275
 30
-5.0
 11
61.935345089272495
 21
-14.950000000000003
 31
-5.0
  0
LINE
  5
3C
330
17
100
AcDbEntity
  8
0
100
AcDbLine
 10
61.93534508927249
 20
2.9499999999999993
 30
-5.0
 11
61.93534508927249
 21
-14.95
 31
-5.0
  0
LINE
  5
3D
330
17
100
AcDbEntity
  8
0
100
AcDbLine
 10
61.93534508927248
 20
2.95
 30
-5.000000000000001
 11
62.314641761536826
 21
11.199298518468275
 31
-5.000000000000001
  0
LINE
  5
3E
330
17
100
AcDbEntity
  8
0
100
AcDbLine
 10
62.31464176153681
 20
11.199298518468275
 30
-5.0
 11
62.53928984883367
 21
13.68249203595159
 31
-5.0
  0
LINE
  5
3F
330
17
100
AcDbEntity
  8
0
100
AcDbLine
 10
62.82271378452526
 20
28.748363518870292
 30
-5.0
 11
62.53928984883521
 21
13.68249203595156
 31
-5.0
  0
LINE
  5
40
330
17
100
AcDbEntity
  8
0
100
AcDbLine
 10
62.55144864061948
 20
29.783638844890053
 30
-5.0
 11
62.82271378452526
 21
28.748363518870296
 31
-5.0
  0
LINE
  5
41
330
17
100
AcDbEntity
  8
0
100
AcDbLine
 10
62.55144864061948
 20
29.78363884489005
 30
-5.0
 11
53.26569015980927
 21
39.92586062187465
 31
-5.0
  0
LINE
  5
42
330
17
100
AcDbEntity
  8
0
100
AcDbLine
 10
13.031259745785867
 20
39.92586062187464
 30
-5.0
 11
53.26569015980927
 21
39.92586062187464
 31
-5.0
  0
LINE
  5
43
330
17
100
AcDbEntity
  8
0
100
AcDbLine
 10
13.031259745785867
 20
39.92586062187465
 30
-5.0
 11
7.37934699063949
 21
45.92586062187465
 31
-5.0
  0
LINE
  5
44
330
17
100
AcDbEntity
  8
0
100
AcDbLine
 10
-10.08400134781025
 20
45.92586062187465
 30
-5.0
 11
7.379346990639497
 21
45.92586062187465
 31
-5.0
  0
LINE
  5
45
330
17
100
AcDbEntity
  8
0
100
AcDbLine
 10
-10.084001347810249
 20
45.925860621874655
 30
-5.0
 11
-15.519310778351535
 21
48.745860621874655
 31
-5.0
  0
LINE
  5
46
330
17
100
AcDbEntity
  8
0
100
AcDbLine
 10
-32.63052582356904
 20
48.74586062187465
 30
-5.0
 11
-15.519310778351539
 21
48.74586062187465
 31
-5.0
  0
LINE
  5
47
330
17
100
AcDbEntity
  8
0
100
AcDbLine
 10
-35.7528927269334
 20
45.92586062187465
 30
-5.0
 11
-32.63052582356904
 21
48.745860621874655
 31
-5.0
  0
LINE
  5
48
330
17
100
AcDbEntity
  8
0
100
AcDbLine
 10
-71.98431712883632
 20
45.925860621874655
 30
-5.0
 11
-35.752892726933396
 21
45.925860621874655
 31
-5.0
  0
LINE
  5
49
330
17
100
AcDbEntity
  8
0
100
AcDbLine
 10
-74.5665831781642
 20
42.55835137704281
 30
-5.000000000000002
 11
-71.98431712883632
 21
45.92586062187465
 31
-5.000000000000002
  0
LINE
  5
4A
330
17
100
AcDbEntity
  8
0
100
AcDbLine
 10
-84.0665831781642
 20
32.0583513770428
 30
-5.0
 11
-74.56658317816418
 21
42.558351377042804
 31
-5.0
  0
LINE
  5
4B
330
17
100
AcDbEntity
  8
0
100
AcDbLine
 10
-84.06658317816417
 20
32.05835137704281
 30
-5.0
 11
-86.32702961090268
 21
14.671685473640647
 31
-5.0
  0
LINE
  5
4C
330
17
100
AcDbEntity
  8
0
100
AcDbLine
 10
-86.68613433440387
 20
9.049999999999999
 30
-5.0
 11
-86.32702961090271
 21
14.67168547364065
 31
-5.0
  0
LINE
  5
4D
330
17
100
AcDbEntity
  8
0
100
AcDbLine
 10
-86.68613433440386
 20
9.050000000000002
 30
-5.0
 11
-86.68613433440386
 21
-9.049999999999999
 31
-5.0
  0
LINE
  5
4E
330
17
100
AcDbEntity
  8
0
100
AcDbLine
 10
-86.6861343344039
 20
-9.05
 30
-5.0
 11
-86.32702961090274
 21
-14.671685473640654
 31
-5.0
  0
LINE
  5
4F
330
17
100
AcDbEntity
  8
0
100
AcDbLine
 10
-84.07901089041596
 20
-31.962761197273235
 30
-5.0
 11
-86.32702961090271
 21
-14.67168547364065
 31
-5.0
  0
LINE
  5
50
330
17
100
AcDbEntity
  8
0
100
AcDbLine
 10
-91.14839359080646
 20
-34.47124435308165
 30
-5.0
 11
-84.07901089041596
 21
-31.962761197273235
 31
-5.0
  0
LINE
  5
51
330
17
100
AcDbEntity
  8
0
100
AcDbLine
 10
-91.14839359080646
 20
-34.47124435308168
 30
-5.0
 11
-95.43697389916105
 21
-34.84644651268324
 31
-5.0
  0
LINE
  5
52
330
17
100
AcDbEntity
  8
0
100
AcDbLine
 10
-96.90021805112865
 20
-36.34777020678986
 30
-5.0
 11
-95.43697389916103
 21
-34.84644651268319
 31
-5.0
  0
LINE
  5
53
330
17
100
AcDbEntity
  8
0
100
AcDbLine
 10
-96.90021805112866
 20
-36.34777020678985
 30
-5.0
 11
-102.2721378822423
 21
-53.97228045373875
 31
-5.0
  0
LINE
  5
54
330
17
100
AcDbEntity
  8
0
100
AcDbLine
 10
-102.27213788224229
 20
-53.97228045373874
 30
-5.0
 11
-102.24954852890522
 21
-54.06463235079917
 31
-5.0
  0
LINE
  5
55
330
17
100
AcDbEntity
  8
0
100
AcDbLine
 10
-102.24954852890522
 20
-54.06463235079916
 30
-5.0
 11
-100.80578537570972
 21
-54.631826623529165
 31
-5.0
  0
LINE
  5
56
330
17
100
AcDbEntity
  8
0
100
AcDbLine
 10
-100.80578537570972
 20
-54.63182662352917
 30
-5.000000000000001
 11
-119.8099413137956
 21
-70.1685305064767
 31
-5.000000000000001
  0
LINE
  5
57
330
17
100
AcDbEntity
  8
0
100
AcDbLine
 10
-119.8693810543275
 20
-70.21712501656881
 30
-5.0
 11
-119.80994131379563
 21
-70.16853050647661
 31
-5.0
  0
LINE
  5
58
330
17
100
AcDbEntity
  8
0
100
AcDbLine
 10
-119.86938105432756
 20
-70.21712501656879
 30
-5.0
 11
-119.8843279403426
 21
-70.22934473012745
 31
-5.0
  0
LINE
  5
59
330
17
100
AcDbEntity
  8
0
100
AcDbLine
 10
-119.8843279403426
 20
-70.22934473012745
 30
-5.0
 11
-103.21001918894962
 21
-91.11079822491189
 31
-5.0
  0
LINE
  5
5A
330
17
100
AcDbEntity
  8
0
100
AcDbLine
 10
-103.21001918894959
 20
-91.11079822491189
 30
-5.0
 11
-93.5465664449733
 21
-96.01070990258148
 31
-5.0
  0
LINE
  5
5B
330
17
100
AcDbEntity
  8
0
100
AcDbLine
 10
-64.69790921942442
 20
-107.18721785698935
 30
-5.0
 11
-93.5465664449733
 21
-96.01070990258147
 31
-5.0
  0
LINE
  5
5C
330
17
100
AcDbEntity
  8
0
100
AcDbLine
 10
-53.89081818518406
 20
-100.33530276250285
 30
-5.0
 11
-64.69790921942442
 21
-107.18721785698935
 31
-5.0
  0
CIRCLE
  5
5D
330
17
100
AcDbEntity
  8
0
100
AcDbCircle
 10
-52.15577455866834
 20
-92.00835137704281
 30
-5.0
 40
2.0
  0
CIRCLE
  5
5E
330
17
100
AcDbEntity
  8
0
100
AcDbCircle
 10
1.3216801551843933
 20
-63.58298051617433
 30
-5.0
 40
2.0
  0
CIRCLE
  5
5F
330
17
100
AcDbEntity
  8
0
100
AcDbCircle
 10
56.311237963180275
 20
-33.19730089791581
 30
-5.0
 40
2.0
  0
CIRCLE
  5
60
330
17
100
AcDbEntity
  8
0
100
AcDbCircle
 10
-80.64680639453346
 20
-27.31501842534174
 30
-5.0
 40
2.0
  0
CIRCLE
  5
61
330
17
100
AcDbEntity
  8
0
100
AcDbCircle
 10
56.311237963180275
 20
21.197300897915813
 30
-5.0
 40
2.0
  0
CIRCLE
  5
62
330
17
100
AcDbEntity
  8
0
100
AcDbCircle
 10
-80.64680639453346
 20
23.315018425341734
 30
-5.0
 40
2.0
  0
CIRCLE
  5
63
330
17
100
AcDbEntity
  8
0
100
AcDbCircle
 10
-1.9208011001816785
 20
40.23730032546743
 30
-5.0
 40
2.0
  0
LINE
  5
64
330
17
100
AcDbEntity
  8
0
100
AcDbLine
 10
-49.54492442002909
 20
-97.18768256142737
 30
-5.0
 11
-49.54492442002909
 21
-97.18768256142737
 31
0.0
  0
LINE
  5
65
330
17
100
AcDbEntity
  8
0
100
AcDbLine
 10
-53.89081818518406
 20
-100.33530276250286
 30
-5.0
 11
-53.89081818518406
 21
-100.33530276250286
 31
0.0
  0
LINE
  5
66
330
17
100
AcDbEntity
  8
0
100
AcDbLine
 10
-49.54492442002908
 20
-97.18768256142738
 30
0.0
 11
-53.89081818518405
 21
-100.33530276250286
 31
0.0
  0
LINE
  5
67
330
17
100
AcDbEntity
  8
0
100
AcDbLine
 10
-40.461363849752544
 20
-97.29305244551247
 30
-5.0
 11
-40.461363849752544
 21
-97.29305244551247
 31
0.0
  0
LINE
  5
68
330
17
100
AcDbEntity
  8
0
100
AcDbLine
 10
-49.54492442002909
 20
-97.18768256142735
 30
0.0
 11
-40.461363849752544
 21
-97.29305244551247
 31
0.0
  0
LINE
  5
69
330
17
100
AcDbEntity
  8
0
100
AcDbLine
 10
-64.69790921942442
 20
-107.18721785698936
 30
-5.0
 11
-64.69790921942442
 21
-107.18721785698936
 31
0.0
  0
LINE
  5
6A
330
17
100
AcDbEntity
  8
0
100
AcDbLine
 10
-53.89081818518406
 20
-100.33530276250285
 30
0.0
 11
-64.69790921942442
 21
-107.18721785698935
 31
0.0
  0
LINE
  5
6B
330
17
100
AcDbEntity
  8
0
100
AcDbLine
 10
-27.378658129314886
 20
-88.93293088315967
 30
-5.0
 11
-27.378658129314886
 21
-88.93293088315967
 31
0.0
  0
LINE
  5
6C
330
17
100
AcDbEntity
  8
0
100
AcDbLine
 10
-40.46136384975132
 20
-97.2930524455144
 30
0.0
 11
-27.37865812931489
 21
-88.93293088315967
 31
0.0
  0
LINE
  5
6D
330
17
100
AcDbEntity
  8
0
100
AcDbLine
 10
-93.5465664449733
 20
-96.01070990258148
 30
-5.0
 11
-93.5465664449733
 21
-96.01070990258148
 31
0.0
  0
LINE
  5
6E
330
17
100
AcDbEntity
  8
0
100
AcDbLine
 10
-64.69790921942442
 20
-107.18721785698935
 30
0.0
 11
-93.5465664449733
 21
-96.01070990258147
 31
0.0
  0
LINE
  5
6F
330
17
100
AcDbEntity
  8
0
100
AcDbLine
 10
-6.411521545402385
 20
-69.17195499541647
 30
-5.0
 11
-6.411521545402385
 21
-69.17195499541647
 31
0.0
  0
LINE
  5
70
330
17
100
AcDbEntity
  8
0
100
AcDbLine
 10
-6.411521545402394
 20
-69.17195499541647
 30
0.0
 11
-27.3786581293149
 21
-88.93293088315966
 31
0.0
  0
LINE
  5
71
330
17
100
AcDbEntity
  8
0
100
AcDbLine
 10
-103.21001918894959
 20
-91.11079822491187
 30
-5.0
 11
-103.21001918894959
 21
-91.11079822491187
 31
0.0
  0
LINE
  5
72
330
17
100
AcDbEntity
  8
0
100
AcDbLine
 10
-103.21001918894959
 20
-91.11079822491189
 30
0.0
 11
-93.5465664449733
 21
-96.01070990258148
 31
0.0
  0
LINE
  5
73
330
17
100
AcDbEntity
  8
0
100
AcDbLine
 10
15.660210382360484
 20
-69.17195499541647
 30
-5.0
 11
15.660210382360484
 21
-69.17195499541647
 31
0.0
  0
LINE
  5
74
330
17
100
AcDbEntity
  8
0
100
AcDbLine
 10
15.660210382360482
 20
-69.17195499541647
 30
0.0
 11
-6.411521545402389
 21
-69.17195499541647
 31
0.0
  0
LINE
  5
75
330
17
100
AcDbEntity
  8
0
100
AcDbLine
 10
-119.88432794034259
 20
-70.22934473012744
 30
-5.0
 11
-119.88432794034259
 21
-70.22934473012744
 31
0.0
  0
LINE
  5
76
330
17
100
AcDbEntity
  8
0
100
AcDbLine
 10
-119.8843279403426
 20
-70.22934473012745
 30
0.0
 11
-103.21001918894962
 21
-91.11079822491189
 31
0.0
  0
LINE
  5
77
330
17
100
AcDbEntity
  8
0
100
AcDbLine
 10
16.499775404857665
 20
-67.17195652746744
 30
-5.0
 11
16.499775404857665
 21
-67.17195652746744
 31
0.0
  0
LINE
  5
78
330
17
100
AcDbEntity
  8
0
100
AcDbLine
 10
15.660210382360486
 20
-69.17195499541647
 30
0.0
 11
16.499775404857665
 21
-67.17195652746744
 31
0.0
  0
LINE
  5
79
330
17
100
AcDbEntity
  8
0
100
AcDbLine
 10
-119.86938105432756
 20
-70.21712501656877
 30
-5.0
 11
-119.86938105432756
 21
-70.21712501656877
 31
0.0
  0
LINE
  5
7A
330
17
100
AcDbEntity
  8
0
100
AcDbLine
 10
-119.86938105432756
 20
-70.21712501656879
 30
0.0
 11
-119.8843279403426
 21
-70.22934473012745
 31
0.0
  0
LINE
  5
7B
330
17
100
AcDbEntity
  8
0
100
AcDbLine
 10
22.60518656930724
 20
-51.92586062187465
 30
-5.0
 11
22.60518656930724
 21
-51.92586062187465
 31
0.0
  0
LINE
  5
7C
330
17
100
AcDbEntity
  8
0
100
AcDbLine
 10
22.605186569307243
 20
-51.92586062187465
 30
0.0
 11
16.499775404857665
 21
-67.17195652746744
 31
0.0
  0
LINE
  5
7D
330
17
100
AcDbEntity
  8
0
100
AcDbLine
 10
-119.80994131379559
 20
-70.1685305064767
 30
-5.0
 11
-119.80994131379559
 21
-70.1685305064767
 31
0.0
  0
LINE
  5
7E
330
17
100
AcDbEntity
  8
0
100
AcDbLine
 10
-119.8693810543275
 20
-70.21712501656881
 30
0.0
 11
-119.80994131379563
 21
-70.16853050647661
 31
0.0
  0
LINE
  5
7F
330
17
100
AcDbEntity
  8
0
100
AcDbLine
 10
53.26569015980927
 20
-51.92586062187465
 30
-5.0
 11
53.26569015980927
 21
-51.92586062187465
 31
0.0
  0
LINE
  5
80
330
17
100
AcDbEntity
  8
0
100
AcDbLine
 10
22.60518656930724
 20
-51.92586062187464
 30
0.0
 11
53.26569015980927
 21
-51.92586062187464
 31
0.0
  0
LINE
  5
81
330
17
100
AcDbEntity
  8
0
100
AcDbLine
 10
-100.80578537570972
 20
-54.63182662352918
 30
-5.0
 11
-100.80578537570972
 21
-54.63182662352918
 31
0.0
  0
LINE
  5
82
330
17
100
AcDbEntity
  8
0
100
AcDbLine
 10
-100.80578537570972
 20
-54.63182662352917
 30
-8.881784197001252e-16
 11
-119.8099413137956
 21
-70.1685305064767
 31
-8.881784197001252e-16
  0
LINE
  5
83
330
17
100
AcDbEntity
  8
0
100
AcDbLine
 10
62.551448640619476
 20
-41.78363884489005
 30
-5.0
 11
62.551448640619476
 21
-41.78363884489005
 31
0.0
  0
LINE
  5
84
330
17
100
AcDbEntity
  8
0
100
AcDbLine
 10
53.265690159809274
 20
-51.92586062187466
 30
8.881784197001252e-16
 11
62.55144864061949
 21
-41.783638844890056
 31
8.881784197001252e-16
  0
LINE
  5
85
330
17
100
AcDbEntity
  8
0
100
AcDbLine
 10
-102.24954852890522
 20
-54.064632350799165
 30
-5.0
 11
-102.24954852890522
 21
-54.064632350799165
 31
0.0
  0
LINE
  5
86
330
17
100
AcDbEntity
  8
0
100
AcDbLine
 10
-102.24954852890522
 20
-54.06463235079916
 30
0.0
 11
-100.80578537570972
 21
-54.631826623529165
 31
0.0
  0
LINE
  5
87
330
17
100
AcDbEntity
  8
0
100
AcDbLine
 10
62.822713784525256
 20
-40.74836351887029
 30
-5.0
 11
62.822713784525256
 21
-40.74836351887029
 31
0.0
  0
LINE
  5
88
330
17
100
AcDbEntity
  8
0
100
AcDbLine
 10
62.822713784525256
 20
-40.74836351887029
 30
0.0
 11
62.551448640619476
 21
-41.78363884489005
 31
0.0
  0
LINE
  5
89
330
17
100
AcDbEntity
  8
0
100
AcDbLine
 10
-102.27213788224229
 20
-53.97228045373874
 30
-5.0
 11
-102.27213788224229
 21
-53.97228045373874
 31
0.0
  0
LINE
  5
8A
330
17
100
AcDbEntity
  8
0
100
AcDbLine
 10
-102.27213788224229
 20
-53.97228045373874
 30
0.0
 11
-102.24954852890522
 21
-54.06463235079917
 31
0.0
  0
LINE
  5
8B
330
17
100
AcDbEntity
  8
0
100
AcDbLine
 10
62.53928984883368
 20
-25.682492035951594
 30
-5.0
 11
62.53928984883368
 21
-25.682492035951594
 31
0.0
  0
LINE
  5
8C
330
17
100
AcDbEntity
  8
0
100
AcDbLine
 10
62.82271378452609
 20
-40.748363518870285
 30
0.0
 11
62.53928984883381
 21
-25.682492035951594
 31
0.0
  0
LINE
  5
8D
330
17
100
AcDbEntity
  8
0
100
AcDbLine
 10
-96.90021805112865
 20
-36.34777020678986
 30
-5.0
 11
-96.90021805112865
 21
-36.34777020678986
 31
0.0
  0
LINE
  5
8E
330
17
100
AcDbEntity
  8
0
100
AcDbLine
 10
-96.90021805112866
 20
-36.34777020678985
 30
0.0
 11
-102.2721378822423
 21
-53.97228045373875
 31
0.0
  0
LINE
  5
8F
330
17
100
AcDbEntity
  8
0
100
AcDbLine
 10
62.314641761536826
 20
-23.199298518468275
 30
-5.0
 11
62.314641761536826
 21
-23.199298518468275
 31
0.0
  0
LINE
  5
90
330
17
100
AcDbEntity
  8
0
100
AcDbLine
 10
62.31464176153681
 20
-23.199298518468275
 30
0.0
 11
62.53928984883367
 21
-25.682492035951597
 31
0.0
  0
LINE
  5
91
330
17
100
AcDbEntity
  8
0
100
AcDbLine
 10
-95.43697389916103
 20
-34.84644651268319
 30
-5.0
 11
-95.43697389916103
 21
-34.84644651268319
 31
0.0
  0
LINE
  5
92
330
17
100
AcDbEntity
  8
0
100
AcDbLine
 10
-96.90021805112865
 20
-36.34777020678986
 30
0.0
 11
-95.43697389916103
 21
-34.84644651268319
 31
0.0
  0
LINE
  5
93
330
17
100
AcDbEntity
  8
0
100
AcDbLine
 10
61.93534508927248
 20
-14.95
 30
-5.0
 11
61.93534508927248
 21
-14.95
 31
0.0
  0
LINE
  5
94
330
17
100
AcDbEntity
  8
0
100
AcDbLine
 10
62.31464176153684
 20
-23.199298518468275
 30
0.0
 11
61.935345089272495
 21
-14.950000000000003
 31
0.0
  0
LINE
  5
95
330
17
100
AcDbEntity
  8
0
100
AcDbLine
 10
-91.14839359080646
 20
-34.47124435308165
 30
-5.0
 11
-91.14839359080646
 21
-34.47124435308165
 31
0.0
  0
LINE
  5
96
330
17
100
AcDbEntity
  8
0
100
AcDbLine
 10
-91.14839359080646
 20
-34.47124435308168
 30
0.0
 11
-95.43697389916105
 21
-34.84644651268324
 31
0.0
  0
LINE
  5
97
330
17
100
AcDbEntity
  8
0
100
AcDbLine
 10
61.93534508927248
 20
2.9499999999999993
 30
-5.0
 11
61.93534508927248
 21
2.9499999999999993
 31
0.0
  0
LINE
  5
98
330
17
100
AcDbEntity
  8
0
100
AcDbLine
 10
61.93534508927249
 20
2.9499999999999993
 30
0.0
 11
61.93534508927249
 21
-14.95
 31
0.0
  0
LINE
  5
99
330
17
100
AcDbEntity
  8
0
100
AcDbLine
 10
-84.07901089041596
 20
-31.962761197273235
 30
-5.0
 11
-84.07901089041596
 21
-31.962761197273235
 31
0.0
  0
LINE
  5
9A
330
17
100
AcDbEntity
  8
0
100
AcDbLine
 10
-91.14839359080646
 20
-34.47124435308165
 30
0.0
 11
-84.07901089041596
 21
-31.962761197273235
 31
0.0
  0
LINE
  5
9B
330
17
100
AcDbEntity
  8
0
100
AcDbLine
 10
62.314641761536826
 20
11.199298518468273
 30
-5.0
 11
62.314641761536826
 21
11.199298518468273
 31
0.0
  0
LINE
  5
9C
330
17
100
AcDbEntity
  8
0
100
AcDbLine
 10
61.93534508927248
 20
2.95
 30
-8.881784197001252e-16
 11
62.314641761536826
 21
11.199298518468275
 31
-8.881784197001252e-16
  0
LINE
  5
9D
330
17
100
AcDbEntity
  8
0
100
AcDbLine
 10
-86.3270296109027
 20
-14.67168547364065
 30
-5.0
 11
-86.3270296109027
 21
-14.67168547364065
 31
0.0
  0
LINE
  5
9E
330
17
100
AcDbEntity
  8
0
100
AcDbLine
 10
-84.07901089041596
 20
-31.962761197273235
 30
0.0
 11
-86.32702961090271
 21
-14.67168547364065
 31
0.0
  0
LINE
  5
9F
330
17
100
AcDbEntity
  8
0
100
AcDbLine
 10
62.53928984883368
 20
13.682492035951588
 30
-5.0
 11
62.53928984883368
 21
13.682492035951588
 31
0.0
  0
LINE
  5
A0
330
17
100
AcDbEntity
  8
0
100
AcDbLine
 10
62.31464176153681
 20
11.199298518468275
 30
0.0
 11
62.53928984883367
 21
13.68249203595159
 31
0.0
  0
LINE
  5
A1
330
17
100
AcDbEntity
  8
0
100
AcDbLine
 10
-86.68613433440387
 20
-9.05
 30
-5.0
 11
-86.68613433440387
 21
-9.05
 31
0.0
  0
LINE
  5
A2
330
17
100
AcDbEntity
  8
0
100
AcDbLine
 10
-86.6861343344039
 20
-9.05
 30
0.0
 11
-86.32702961090274
 21
-14.671685473640654
 31
0.0
  0
LINE
  5
A3
330
17
100
AcDbEntity
  8
0
100
AcDbLine
 10
62.822713784525256
 20
28.748363518870292
 30
-5.0
 11
62.822713784525256
 21
28.748363518870292
 31
0.0
  0
LINE
  5
A4
330
17
100
AcDbEntity
  8
0
100
AcDbLine
 10
62.82271378452526
 20
28.748363518870292
 30
0.0
 11
62.53928984883521
 21
13.68249203595156
 31
0.0
  0
LINE
  5
A5
330
17
100
AcDbEntity
  8
0
100
AcDbLine
 10
-86.68613433440387
 20
9.05
 30
-5.0
 11
-86.68613433440387
 21
9.05
 31
0.0
  0
LINE
  5
A6
330
17
100
AcDbEntity
  8
0
100
AcDbLine
 10
-86.68613433440386
 20
9.050000000000002
 30
0.0
 11
-86.68613433440386
 21
-9.049999999999999
 31
0.0
  0
LINE
  5
A7
330
17
100
AcDbEntity
  8
0
100
AcDbLine
 10
62.551448640619476
 20
29.78363884489005
 30
-5.0
 11
62.551448640619476
 21
29.78363884489005
 31
0.0
  0
LINE
  5
A8
330
17
100
AcDbEntity
  8
0
100
AcDbLine
 10
62.55144864061948
 20
29.783638844890053
 30
0.0
 11
62.82271378452526
 21
28.748363518870296
 31
0.0
  0
LINE
  5
A9
330
17
100
AcDbEntity
  8
0
100
AcDbLine
 10
-86.32702961090271
 20
14.67168547364065
 30
-5.0
 11
-86.32702961090271
 21
14.67168547364065
 31
0.0
  0
LINE
  5
AA
330
17
100
AcDbEntity
  8
0
100
AcDbLine
 10
-86.68613433440387
 20
9.049999999999999
 30
0.0
 11
-86.32702961090271
 21
14.67168547364065
 31
0.0
  0
LINE
  5
AB
330
17
100
AcDbEntity
  8
0
100
AcDbLine
 10
53.26569015980927
 20
39.92586062187465
 30
-5.0
 11
53.26569015980927
 21
39.92586062187465
 31
0.0
  0
LINE
  5
AC
330
17
100
AcDbEntity
  8
0
100
AcDbLine
 10
62.55144864061948
 20
29.78363884489005
 30
0.0
 11
53.26569015980927
 21
39.92586062187465
 31
0.0
  0
LINE
  5
AD
330
17
100
AcDbEntity
  8
0
100
AcDbLine
 10
-84.0665831781642
 20
32.05835137704281
 30
-5.0
 11
-84.0665831781642
 21
32.05835137704281
 31
0.0
  0
LINE
  5
AE
330
17
100
AcDbEntity
  8
0
100
AcDbLine
 10
-84.06658317816417
 20
32.05835137704281
 30
0.0
 11
-86.32702961090268
 21
14.671685473640647
 31
0.0
  0
LINE
  5
AF
330
17
100
AcDbEntity
  8
0
100
AcDbLine
 10
13.031259745785867
 20
39.92586062187465
 30
-5.0
 11
13.031259745785867
 21
39.92586062187465
 31
0.0
  0
LINE
  5
B0
330
17
100
AcDbEntity
  8
0
100
AcDbLine
 10
13.031259745785867
 20
39.92586062187464
 30
0.0
 11
53.26569015980927
 21
39.92586062187464
 31
0.0
  0
LINE
  5
B1
330
17
100
AcDbEntity
  8
0
100
AcDbLine
 10
-74.5665831781642
 20
42.55835137704281
 30
-5.0
 11
-74.5665831781642
 21
42.55835137704281
 31
0.0
  0
LINE
  5
B2
330
17
100
AcDbEntity
  8
0
100
AcDbLine
 10
-84.0665831781642
 20
32.0583513770428
 30
0.0
 11
-74.56658317816418
 21
42.558351377042804
 31
0.0
  0
LINE
  5
B3
330
17
100
AcDbEntity
  8
0
100
AcDbLine
 10
7.379346990639492
 20
45.92586062187465
 30
-5.0
 11
7.379346990639492
 21
45.92586062187465
 31
0.0
  0
LINE
  5
B4
330
17
100
AcDbEntity
  8
0
100
AcDbLine
 10
13.031259745785867
 20
39.92586062187465
 30
0.0
 11
7.37934699063949
 21
45.92586062187465
 31
0.0
  0
LINE
  5
B5
330
17
100
AcDbEntity
  8
0
100
AcDbLine
 10
-71.98431712883632
 20
45.92586062187465
 30
-5.0
 11
-71.98431712883632
 21
45.92586062187465
 31
0.0
  0
LINE
  5
B6
330
17
100
AcDbEntity
  8
0
100
AcDbLine
 10
-74.5665831781642
 20
42.55835137704281
 30
-1.7763568394002505e-15
 11
-71.98431712883632
 21
45.92586062187465
 31
-1.7763568394002505e-15
  0
LINE
  5
B7
330
17
100
AcDbEntity
  8
0
100
AcDbLine
 10
-10.08400134781025
 20
45.92586062187465
 30
-5.0
 11
-10.08400134781025
 21
45.92586062187465
 31
0.0
  0
LINE
  5
B8
330
17
100
AcDbEntity
  8
0
100
AcDbLine
 10
-10.08400134781025
 20
45.92586062187465
 30
0.0
 11
7.379346990639497
 21
45.92586062187465
 31
0.0
  0
LINE
  5
B9
330
17
100
AcDbEntity
  8
0
100
AcDbLine
 10
-35.7528927269334
 20
45.92586062187465
 30
-5.0
 11
-35.7528927269334
 21
45.92586062187465
 31
0.0
  0
LINE
  5
BA
330
17
100
AcDbEntity
  8
0
100
AcDbLine
 10
-71.98431712883632
 20
45.925860621874655
 30
0.0
 11
-35.752892726933396
 21
45.925860621874655
 31
0.0
  0
LINE
  5
BB
330
17
100
AcDbEntity
  8
0
100
AcDbLine
 10
-15.519310778351539
 20
48.74586062187465
 30
-5.0
 11
-15.519310778351539
 21
48.74586062187465
 31
0.0
  0
LINE
  5
BC
330
17
100
AcDbEntity
  8
0
100
AcDbLine
 10
-10.084001347810249
 20
45.925860621874655
 30
0.0
 11
-15.519310778351535
 21
48.745860621874655
 31
0.0
  0
LINE
  5
BD
330
17
100
AcDbEntity
  8
0
100
AcDbLine
 10
-32.63052582356904
 20
48.74586062187465
 30
-5.0
 11
-32.63052582356904
 21
48.74586062187465
 31
0.0
  0
LINE
  5
BE
330
17
100
AcDbEntity
  8
0
100
AcDbLine
 10
-35.7528927269334
 20
45.92586062187465
 30
0.0
 11
-32.63052582356904
 21
48.745860621874655
 31
0.0
  0
LINE
  5
BF
330
17
100
AcDbEntity
  8
0
100
AcDbLine
 10
-32.63052582356904
 20
48.74586062187465
 30
0.0
 11
-15.519310778351539
 21
48.74586062187465
 31
0.0
  0
LINE
  5
C0
330
17
100
AcDbEntity
  8
0
100
AcDbLine
 10
-50.15577455866834
 20
-92.00835137704281
 30
-5.0
 11
-50.15577455866834
 21
-92.00835137704281
 31
-4.0
  0
CIRCLE
  5
C1
330
17
100
AcDbEntity
  8
0
100
AcDbCircle
 10
-52.15577455866834
 20
-92.00835137704281
 30
-4.0
 40
2.0
  0
LINE
  5
C2
330
17
100
AcDbEntity
  8
0
100
AcDbLine
 10
3.321680155184393
 20
-63.58298051617433
 30
-5.0
 11
3.321680155184393
 21
-63.58298051617433
 31
-4.0
  0
CIRCLE
  5
C3
330
17
100
AcDbEntity
  8
0
100
AcDbCircle
 10
1.3216801551843933
 20
-63.58298051617433
 30
-4.0
 40
2.0
  0
LINE
  5
C4
330
17
100
AcDbEntity
  8
0
100
AcDbLine
 10
58.311237963180275
 20
-33.19730089791581
 30
-5.0
 11
58.311237963180275
 21
-33.19730089791581
 31
-4.0
  0
CIRCLE
  5
C5
330
17
100
AcDbEntity
  8
0
100
AcDbCircle
 10
56.311237963180275
 20
-33.19730089791581
 30
-4.0
 40
2.0
  0
LINE
  5
C6
330
17
100
AcDbEntity
  8
0
100
AcDbLine
 10
-78.64680639453346
 20
-27.31501842534174
 30
-5.0
 11
-78.64680639453346
 21
-27.31501842534174
 31
-4.0
  0
CIRCLE
  5
C7
330
17
100
AcDbEntity
  8
0
100
AcDbCircle
 10
-80.64680639453346
 20
-27.31501842534174
 30
-4.0
 40
2.0
  0
LINE
  5
C8
330
17
100
AcDbEntity
  8
0
100
AcDbLine
 10
-78.64680639453346
 20
23.315018425341734
 30
-5.0
 11
-78.64680639453346
 21
23.315018425341734
 31
-4.0
  0
CIRCLE
  5
C9
330
17
100
AcDbEntity
  8
0
100
AcDbCircle
 10
-80.64680639453346
 20
23.315018425341734
 30
-4.0
 40
2.0
  0
LINE
  5
CA
330
17
100
AcDbEntity
  8
0
100
AcDbLine
 10
0.07919889981832151
 20
40.23730032546743
 30
-5.0
 11
0.07919889981832151
 21
40.23730032546743
 31
-4.0
  0
CIRCLE
  5
CB
330
17
100
AcDbEntity
  8
0
100
AcDbCircle
 10
-1.9208011001816785
 20
40.23730032546743
 30
-4.0
 40
2.0
  0
LINE
  5
CC
330
17
100
AcDbEntity
  8
0
100
AcDbLine
 10
58.311237963180275
 20
21.197300897915813
 30
-5.0
 11
58.311237963180275
 21
21.197300897915813
 31
-4.0
  0
CIRCLE
  5
CD
330
17
100
AcDbEntity
  8
0
100
AcDbCircle
 10
56.311237963180275
 20
21.197300897915813
 30
-4.0
 40
2.0
  0
CIRCLE
  5
CE
330
17
100
AcDbEntity
  8
0
100
AcDbCircle
 10
-52.15577455866834
 20
-92.00835137704281
 30
0.0
 40
1.525
  0
CIRCLE
  5
CF
330
17
100
AcDbEntity
  8
0
100
AcDbCircle
 10
1.321680155184386
 20
-63.582980516174324
 30
0.0
 40
1.525
  0
CIRCLE
  5
D0
330
17
100
AcDbEntity
  8
0
100
AcDbCircle
 10
56.31123796318026
 20
-33.19730089791581
 30
0.0
 40
1.525
  0
CIRCLE
  5
D1
330
17
100
AcDbEntity
  8
0
100
AcDbCircle
 10
-80.64680639453347
 20
-27.315018425341734
 30
0.0
 40
1.525
  0
CIRCLE
  5
D2
330
17
100
AcDbEntity
  8
0
100
AcDbCircle
 10
-80.64680639453347
 20
23.315018425341734
 30
0.0
 40
1.525
  0
CIRCLE
  5
D3
330
17
100
AcDbEntity
  8
0
100
AcDbCircle
 10
-1.9208011001816854
 20
40.23730032546743
 30
0.0
 40
1.525
  0
CIRCLE
  5
D4
330
17
100
AcDbEntity
  8
0
100
AcDbCircle
 10
56.31123796318026
 20
21.197300897915806
 30
0.0
 40
1.525
  0
LINE
  5
D5
330
17
100
AcDbEntity
  8
0
100
AcDbLine
 10
-47.16289289863043
 20
-92.04113024098373
 30
0.0
 11
-48.507852759207
 21
-92.1314446141386
 31
0.0
  0
LINE
  5
D6
330
17
100
AcDbEntity
  8
0
100
AcDbLine
 10
-47.16289289863043
 20
-92.04113024098373
 30
0.0
 11
-39.99648772202963
 21
-91.00969330150878
 31
0.0
  0
LINE
  5
D7
330
17
100
AcDbEntity
  8
0
100
AcDbLine
 10
-39.996487722028405
 20
-91.00969330151068
 30
0.0
 11
-27.05834228579569
 21
-82.7419487729941
 31
0.0
  0
LINE
  5
D8
330
17
100
AcDbEntity
  8
0
100
AcDbLine
 10
-6.226406110945403
 20
-63.18823865285
 30
0.0
 11
-27.05834228579569
 21
-82.74194877299414
 31
0.0
  0
LINE
  5
D9
330
17
100
AcDbEntity
  8
0
100
AcDbLine
 10
-6.2264061109454145
 20
-63.18823865284999
 30
0.0
 11
-2.306909689554646
 21
-63.18823865284999
 31
0.0
  0
ARC
  5
DA
330
17
100
AcDbEntity
  8
0
100
AcDbCircle
 10
1.321680155184386
 20
-63.582980516174324
 30
0.0
 40
3.6499979999999996
100
AcDbArc
 50
6.2085965471963975
 51
173.7914034528036
  0
LINE
  5
DB
330
17
100
AcDbEntity
  8
0
100
AcDbLine
 10
4.950269999923419
 20
-63.18823865284999
 30
0.0
 11
13.37192847767712
 21
-63.18823865284999
 31
0.0
  0
LINE
  5
DC
330
17
100
AcDbEntity
  8
0
100
AcDbLine
 10
16.463939168745576
 20
-51.92586062187465
 30
0.0
 11
13.371928477677118
 21
-63.18823865284999
 31
0.0
  0
LINE
  5
DD
330
17
100
AcDbEntity
  8
0
100
AcDbLine
 10
12.932498010617842
 20
-51.92586062187465
 30
0.0
 11
16.463939168745576
 21
-51.92586062187465
 31
0.0
  0
LINE
  5
DE
330
17
100
AcDbEntity
  8
0
100
AcDbLine
 10
12.932498010617762
 20
-51.92586062187465
 30
0.0
 11
12.745719519396388
 21
-47.48260155767187
 31
0.0
  0
LINE
  5
DF
330
17
100
AcDbEntity
  8
0
100
AcDbLine
 10
13.35186511554985
 20
-46.44732623165211
 30
0.0
 11
12.745719519396388
 21
-47.48260155767187
 31
0.0
  0
LINE
  5
E0
330
17
100
AcDbEntity
  8
0
100
AcDbLine
 10
13.351865115549849
 20
-46.4473262316521
 30
0.0
 11
53.35361407668415
 21
-46.4473262316521
 31
0.0
  0
LINE
  5
E1
330
17
100
AcDbEntity
  8
0
100
AcDbLine
 10
57.94786230859095
 20
-40.98960578499201
 30
0.0
 11
53.35361407668414
 21
-46.447326231652106
 31
0.0
  0
LINE
  5
E2
330
17
100
AcDbEntity
  8
0
100
AcDbLine
 10
57.92791049955023
 20
-39.929034135933094
 30
0.0
 11
57.94786230859095
 21
-40.98960578499202
 31
0.0
  0
LINE
  5
E3
330
17
100
AcDbEntity
  8
0
100
AcDbLine
 10
57.64591141764858
 20
-36.594525083915556
 30
0.0
 11
57.92791049955024
 21
-39.929034135933094
 31
0.0
  0
ARC
  5
E4
330
17
100
AcDbEntity
  8
0
100
AcDbCircle
 10
56.31123796318026
 20
-33.19730089791581
 30
0.0
 40
3.6499979999999996
100
AcDbArc
 50
78.21952926714967
 51
291.44846198621065
  0
LINE
  5
E5
330
17
100
AcDbEntity
  8
0
100
AcDbLine
 10
56.51355246368909
 20
-23.204902831784565
 30
0.0
 11
57.05643028933373
 21
-29.624182680301672
 31
0.0
  0
LINE
  5
E6
330
17
100
AcDbEntity
  8
0
100
AcDbLine
 10
56.16302012329701
 20
-15.05
 30
0.0
 11
56.51355246368908
 21
-23.204902831784565
 31
0.0
  0
LINE
  5
E7
330
17
100
AcDbEntity
  8
0
100
AcDbLine
 10
56.163020123296825
 20
-15.050000000000002
 30
0.0
 11
56.16302012329704
 21
3.0500000000000007
 31
0.0
  0
LINE
  5
E8
330
17
100
AcDbEntity
  8
0
100
AcDbLine
 10
56.513552463689095
 20
11.204902831784565
 30
0.0
 11
56.16302012329703
 21
3.049999999999999
 31
0.0
  0
LINE
  5
E9
330
17
100
AcDbEntity
  8
0
100
AcDbLine
 10
56.51355246368909
 20
11.204902831784565
 30
0.0
 11
57.05643028933373
 21
17.62418268030168
 31
0.0
  0
ARC
  5
EA
330
17
100
AcDbEntity
  8
0
100
AcDbCircle
 10
56.31123796318026
 20
21.197300897915806
 30
0.0
 40
3.6499979999999996
100
AcDbArc
 50
68.55153801378921
 51
281.78047073285046
  0
LINE
  5
EB
330
17
100
AcDbEntity
  8
0
100
AcDbLine
 10
57.64591141764858
 20
24.59452508391555
 30
0.0
 11
57.92791049955024
 21
27.929034135933094
 31
0.0
  0
LINE
  5
EC
330
17
100
AcDbEntity
  8
0
100
AcDbLine
 10
57.927910499550144
 20
27.929034135933097
 30
0.0
 11
57.94786230859091
 21
28.989605784992072
 31
0.0
  0
LINE
  5
ED
330
17
100
AcDbEntity
  8
0
100
AcDbLine
 10
53.35361407668415
 20
34.44732623165212
 30
0.0
 11
57.94786230859096
 21
28.98960578499202
 31
0.0
  0
LINE
  5
EE
330
17
100
AcDbEntity
  8
0
100
AcDbLine
 10
13.351865115549849
 20
34.447326231652106
 30
0.0
 11
53.35361407668415
 21
34.447326231652106
 31
0.0
  0
LINE
  5
EF
330
17
100
AcDbEntity
  8
0
100
AcDbLine
 10
13.351865115549849
 20
34.447326231652106
 30
0.0
 11
7.929404222846491
 21
40.44732623165211
 31
0.0
  0
LINE
  5
F0
330
17
100
AcDbEntity
  8
0
100
AcDbLine
 10
7.929404222846499
 20
40.44732623165211
 30
0.0
 11
1.7231492999658395
 21
40.44732623165211
 31
0.0
  0
ARC
  5
F1
330
17
100
AcDbEntity
  8
0
100
AcDbCircle
 10
-1.9208011001816854
 20
40.23730032546743
 30
0.0
 40
3.6499979999999996
100
AcDbArc
 50
176.70129997691484
 51
363.2987000230851
  0
LINE
  5
F2
330
17
100
AcDbEntity
  8
0
100
AcDbLine
 10
-5.56475150032921
 20
40.44732623165211
 30
0.0
 11
-9.53315452148854
 21
40.44732623165211
 31
0.0
  0
LINE
  5
F3
330
17
100
AcDbEntity
  8
0
100
AcDbLine
 10
-14.742414765353187
 20
43.267326231652106
 30
0.0
 11
-9.533154521488541
 21
40.44732623165211
 31
0.0
  0
LINE
  5
F4
330
17
100
AcDbEntity
  8
0
100
AcDbLine
 10
-14.742414765353187
 20
43.26732623165211
 30
0.0
 11
-31.66455561117602
 21
43.26732623165211
 31
0.0
  0
LINE
  5
F5
330
17
100
AcDbEntity
  8
0
100
AcDbLine
 10
-31.66455561117601
 20
43.267326231652106
 30
0.0
 11
-34.57318793640328
 21
40.447326231652106
 31
0.0
  0
LINE
  5
F6
330
17
100
AcDbEntity
  8
0
100
AcDbLine
 10
-70.59985601079266
 20
40.44732623165211
 30
0.0
 11
-34.573187936403286
 21
40.44732623165211
 31
0.0
  0
LINE
  5
F7
330
17
100
AcDbEntity
  8
0
100
AcDbLine
 10
-70.59985601079266
 20
40.44732623165212
 30
0.0
 11
-74.4665831781642
 21
37.95835137704282
 31
0.0
  0
LINE
  5
F8
330
17
100
AcDbEntity
  8
0
100
AcDbLine
 10
-79.4665831781642
 20
31.958351377042817
 30
0.0
 11
-74.4665831781642
 21
37.958351377042824
 31
0.0
  0
LINE
  5
F9
330
17
100
AcDbEntity
  8
0
100
AcDbLine
 10
-80.12072330516679
 20
26.926904633832585
 30
0.0
 11
-79.46658317816419
 21
31.95835137704281
 31
0.0
  0
ARC
  5
FA
330
17
100
AcDbEntity
  8
0
100
AcDbCircle
 10
-80.64680639453347
 20
23.315018425341734
 30
0.0
 40
3.6499979999999996
100
AcDbArc
 50
263.472053008422
 51
441.712956986062
  0
LINE
  5
FB
330
17
100
AcDbEntity
  8
0
100
AcDbLine
 10
-81.7270296109027
 20
14.571685473640647
 30
0.0
 11
-81.06176672295784
 21
19.688685108361902
 31
0.0
  0
LINE
  5
FC
330
17
100
AcDbEntity
  8
0
100
AcDbLine
 10
-82.08613433440388
 20
8.95
 30
0.0
 11
-81.72702961090272
 21
14.571685473640649
 31
0.0
  0
LINE
  5
FD
330
17
100
AcDbEntity
  8
0
100
AcDbLine
 10
-82.08613433440387
 20
-8.95
 30
0.0
 11
-82.08613433440387
 21
8.95
 31
0.0
  0
LINE
  5
FE
330
17
100
AcDbEntity
  8
0
100
AcDbLine
 10
-82.08613433440388
 20
-8.95
 30
0.0
 11
-81.72702961090272
 21
-14.571685473640649
 31
0.0
  0
LINE
  5
FF
330
17
100
AcDbEntity
  8
0
100
AcDbLine
 10
-81.72702961090272
 20
-14.571685473640649
 30
0.0
 11
-80.54461597602115
 21
-23.666451238298542
 31
0.0
  0
ARC
  5
100
330
17
100
AcDbEntity
  8
0
100
AcDbCircle
 10
-80.64680639453347
 20
-27.315018425341734
 30
0.0
 40
3.6499979999999996
100
AcDbArc
 50
286.4193319472124
 51
448.39565805830324
  0
LINE
  5
101
330
17
100
AcDbEntity
  8
0
100
AcDbLine
 10
-79.61507927485397
 20
-30.81616460202757
 30
0.0
 11
-79.4665831781642
 21
-31.958351377042817
 31
0.0
  0
LINE
  5
102
330
17
100
AcDbEntity
  8
0
100
AcDbLine
 10
-79.4665831781642
 20
-32.05835137704281
 30
0.0
 11
-79.4665831781642
 21
-31.958351377042813
 31
0.0
  0
LINE
  5
103
330
17
100
AcDbEntity
  8
0
100
AcDbLine
 10
-86.40446415528356
 20
-35.523838935139175
 30
0.0
 11
-79.4665831781642
 21
-32.05835137704282
 31
0.0
  0
LINE
  5
104
330
17
100
AcDbEntity
  8
0
100
AcDbLine
 10
-87.62841678496689
 20
-35.6309209149292
 30
0.0
 11
-86.40446415528353
 21
-35.523838935139175
 31
0.0
  0
LINE
  5
105
330
17
100
AcDbEntity
  8
0
100
AcDbLine
 10
-87.62841678496689
 20
-35.630920914929185
 30
0.0
 11
-92.57028736514252
 21
-51.84450030882429
 31
0.0
  0
LINE
  5
106
330
17
100
AcDbEntity
  8
0
100
AcDbLine
 10
-92.57028736514252
 20
-51.84450030882429
 30
0.0
 11
-94.15799439382603
 21
-54.208254739536784
 31
0.0
  0
LINE
  5
107
330
17
100
AcDbEntity
  8
0
100
AcDbLine
 10
-94.53001809681994
 20
-56.0964643169347
 30
0.0
 11
-94.15799439382602
 21
-54.20825473953677
 31
0.0
  0
LINE
  5
108
330
17
100
AcDbEntity
  8
0
100
AcDbLine
 10
-94.53001809681992
 20
-56.096464316934714
 30
0.0
 11
-94.8712720421332
 21
-57.72614271888272
 31
0.0
  0
LINE
  5
109
330
17
100
AcDbEntity
  8
0
100
AcDbLine
 10
-94.8712720421332
 20
-57.72614271888274
 30
0.0
 11
-111.52778732336171
 21
-71.26724226206196
 31
0.0
  0
LINE
  5
10A
330
17
100
AcDbEntity
  8
0
100
AcDbLine
 10
-111.52778732336171
 20
-71.26724226206196
 30
0.0
 11
-98.61222221401232
 21
-87.5237303401137
 31
0.0
  0
LINE
  5
10B
330
17
100
AcDbEntity
  8
0
100
AcDbLine
 10
-98.61222221401232
 20
-87.52373034011369
 30
0.0
 11
-80.51019755128999
 21
-95.47487087914375
 31
0.0
  0
LINE
  5
10C
330
17
100
AcDbEntity
  8
0
100
AcDbLine
 10
-68.09219353084579
 20
-102.3269991800052
 30
0.0
 11
-80.51019755129
 21
-95.47487087914378
 31
0.0
  0
LINE
  5
10D
330
17
100
AcDbEntity
  8
0
100
AcDbLine
 10
-55.18233583704134
 20
-94.04855044288348
 30
-8.881784197001252e-16
 11
-68.09219353084578
 21
-102.3269991800052
 31
-8.881784197001252e-16
  0
ARC
  5
10E
330
17
100
AcDbEntity
  8
0
100
AcDbCircle
 10
-52.15577455866834
 20
-92.00835137704281
 30
0.0
 40
3.6499979999999996
100
AcDbArc
 50
358.06737961899955
 51
573.9838330415619
  0
CIRCLE
  5
10F
330
17
100
AcDbEntity
  8
0
100
AcDbCircle
 10
-52.15577455866834
 20
-92.00835137704281
 30
-4.0
 40
1.525
  0
CIRCLE
  5
110
330
17
100
AcDbEntity
  8
0
100
AcDbCircle
 10
1.321680155184386
 20
-63.582980516174324
 30
-4.0
 40
1.525
  0
CIRCLE
  5
111
330
17
100
AcDbEntity
  8
0
100
AcDbCircle
 10
56.31123796318026
 20
-33.19730089791581
 30
-4.0
 40
1.525
  0
CIRCLE
  5
112
330
17
100
AcDbEntity
  8
0
100
AcDbCircle
 10
-80.64680639453347
 20
-27.315018425341734
 30
-4.0
 40
1.525
  0
CIRCLE
  5
113
330
17
100
AcDbEntity
  8
0
100
AcDbCircle
 10
-80.64680639453347
 20
23.315018425341734
 30
-4.0
 40
1.525
  0
CIRCLE
  5
114
330
17
100
AcDbEntity
  8
0
100
AcDbCircle
 10
-1.9208011001816854
 20
40.23730032546743
 30
-4.0
 40
1.525
  0
CIRCLE
  5
115
330
17
100
AcDbEntity
  8
0
100
AcDbCircle
 10
56.31123796318026
 20
21.197300897915806
 30
-4.0
 40
1.525
  0
LINE
  5
116
330
17
100
AcDbEntity
  8
0
100
AcDbLine
 10
-50.63077455866834
 20
-92.00835137704281
 30
-4.0
 11
-50.63077455866834
 21
-92.00835137704281
 31
0.0
  0
LINE
  5
117
330
17
100
AcDbEntity
  8
0
100
AcDbLine
 10
2.846680155184386
 20
-63.582980516174324
 30
-4.0
 11
2.846680155184386
 21
-63.582980516174324
 31
0.0
  0
LINE
  5
118
330
17
100
AcDbEntity
  8
0
100
AcDbLine
 10
57.83623796318026
 20
-33.19730089791581
 30
-4.0
 11
57.83623796318026
 21
-33.19730089791581
 31
0.0
  0
LINE
  5
119
330
17
100
AcDbEntity
  8
0
100
AcDbLine
 10
-79.12180639453346
 20
-27.315018425341734
 30
-4.0
 11
-79.12180639453346
 21
-27.315018425341734
 31
0.0
  0
LINE
  5
11A
330
17
100
AcDbEntity
  8
0
100
AcDbLine
 10
-79.12180639453346
 20
23.315018425341734
 30
-4.0
 11
-79.12180639453346
 21
23.315018425341734
 31
0.0
  0
LINE
  5
11B
330
17
100
AcDbEntity
  8
0
100
AcDbLine
 10
-0.39580110018168546
 20
40.23730032546743
 30
-4.0
 11
-0.39580110018168546
 21
40.23730032546743
 31
0.0
  0
LINE
  5
11C
330
17
100
AcDbEntity
  8
0
100
AcDbLine
 10
57.83623796318026
 20
21.197300897915806
 30
-4.0
 11
57.83623796318026
 21
21.197300897915806
 31
0.0
  0
LINE
  5
11D
330
17
100
AcDbEntity
  8
0
100
AcDbLine
 10
-47.16289289863043
 20
-92.04113024098373
 30
-2.0
 11
-48.507852759207
 21
-92.1314446141386
 31
-2.0
  0
LINE
  5
11E
330
17
100
AcDbEntity
  8
0
100
AcDbLine
 10
-48.507852759207
 20
-92.1314446141386
 30
-1.9999999999999973
 11
-48.507852759207
 21
-92.1314446141386
 31
2.6645352591003757e-15
  0
LINE
  5
11F
330
17
100
AcDbEntity
  8
0
100
AcDbLine
 10
-47.16289289863043
 20
-92.04113024098375
 30
-2.0
 11
-47.16289289863043
 21
-92.04113024098375
 31
0.0
  0
LINE
  5
120
330
17
100
AcDbEntity
  8
0
100
AcDbLine
 10
-47.16289289863043
 20
-92.04113024098373
 30
-2.0
 11
-39.99648772202963
 21
-91.00969330150878
 31
-2.0
  0
LINE
  5
121
330
17
100
AcDbEntity
  8
0
100
AcDbLine
 10
-39.99648772202963
 20
-91.00969330150878
 30
-2.0
 11
-39.99648772202963
 21
-91.00969330150878
 31
0.0
  0
LINE
  5
122
330
17
100
AcDbEntity
  8
0
100
AcDbLine
 10
-39.996487722028405
 20
-91.00969330151068
 30
-2.0
 11
-27.05834228579569
 21
-82.7419487729941
 31
-2.0
  0
LINE
  5
123
330
17
100
AcDbEntity
  8
0
100
AcDbLine
 10
-27.058342285795696
 20
-82.74194877299412
 30
-2.0
 11
-27.058342285795696
 21
-82.74194877299412
 31
0.0
  0
LINE
  5
124
330
17
100
AcDbEntity
  8
0
100
AcDbLine
 10
-6.226406110945403
 20
-63.18823865285
 30
-2.0
 11
-27.05834228579569
 21
-82.74194877299414
 31
-2.0
  0
LINE
  5
125
330
17
100
AcDbEntity
  8
0
100
AcDbLine
 10
-6.226406110945414
 20
-63.188238652849996
 30
-2.0
 11
-6.226406110945414
 21
-63.188238652849996
 31
0.0
  0
LINE
  5
126
330
17
100
AcDbEntity
  8
0
100
AcDbLine
 10
-6.2264061109454145
 20
-63.18823865284999
 30
-2.0
 11
-2.306909689554646
 21
-63.18823865284999
 31
-2.0
  0
LINE
  5
127
330
17
100
AcDbEntity
  8
0
100
AcDbLine
 10
-2.306909689554646
 20
-63.18823865284999
 30
-2.0
 11
-2.306909689554646
 21
-63.18823865284999
 31
0.0
  0
ARC
  5
128
330
17
100
AcDbEntity
  8
0
100
AcDbCircle
 10
1.321680155184386
 20
-63.582980516174324
 30
-2.0
 40
3.6499979999999996
100
AcDbArc
 50
6.2085965471963975
 51
173.7914034528036
  0
LINE
  5
129
330
17
100
AcDbEntity
  8
0
100
AcDbLine
 10
4.950269999923419
 20
-63.18823865284999
 30
-2.0
 11
4.950269999923419
 21
-63.18823865284999
 31
0.0
  0
LINE
  5
12A
330
17
100
AcDbEntity
  8
0
100
AcDbLine
 10
4.950269999923419
 20
-63.18823865284999
 30
-2.0
 11
13.37192847767712
 21
-63.18823865284999
 31
-2.0
  0
LINE
  5
12B
330
17
100
AcDbEntity
  8
0
100
AcDbLine
 10
13.37192847767712
 20
-63.18823865284999
 30
-2.0
 11
13.37192847767712
 21
-63.18823865284999
 31
0.0
  0
LINE
  5
12C
330
17
100
AcDbEntity
  8
0
100
AcDbLine
 10
16.463939168745576
 20
-51.92586062187465
 30
-2.0
 11
13.371928477677118
 21
-63.18823865284999
 31
-2.0
  0
LINE
  5
12D
330
17
100
AcDbEntity
  8
0
100
AcDbLine
 10
16.463939168745576
 20
-51.92586062187465
 30
-2.0
 11
16.463939168745576
 21
-51.92586062187465
 31
0.0
  0
LINE
  5
12E
330
17
100
AcDbEntity
  8
0
100
AcDbLine
 10
12.932498010617842
 20
-51.92586062187465
 30
-2.0
 11
16.463939168745576
 21
-51.92586062187465
 31
-2.0
  0
LINE
  5
12F
330
17
100
AcDbEntity
  8
0
100
AcDbLine
 10
12.932498010617842
 20
-51.92586062187465
 30
-2.0
 11
12.932498010617842
 21
-51.92586062187465
 31
0.0
  0
LINE
  5
130
330
17
100
AcDbEntity
  8
0
100
AcDbLine
 10
12.932498010617762
 20
-51.92586062187465
 30
-2.0
 11
12.745719519396388
 21
-47.48260155767187
 31
-2.0
  0
LINE
  5
131
330
17
100
AcDbEntity
  8
0
100
AcDbLine
 10
12.74571951939639
 20
-47.48260155767187
 30
-2.0
 11
12.74571951939639
 21
-47.48260155767187
 31
0.0
  0
LINE
  5
132
330
17
100
AcDbEntity
  8
0
100
AcDbLine
 10
13.35186511554985
 20
-46.44732623165211
 30
-2.0
 11
12.745719519396388
 21
-47.48260155767187
 31
-2.0
  0
LINE
  5
133
330
17
100
AcDbEntity
  8
0
100
AcDbLine
 10
13.351865115549852
 20
-46.44732623165211
 30
-2.0
 11
13.351865115549852
 21
-46.44732623165211
 31
0.0
  0
LINE
  5
134
330
17
100
AcDbEntity
  8
0
100
AcDbLine
 10
13.351865115549849
 20
-46.4473262316521
 30
-2.0
 11
53.35361407668415
 21
-46.4473262316521
 31
-2.0
  0
LINE
  5
135
330
17
100
AcDbEntity
  8
0
100
AcDbLine
 10
53.353614076684146
 20
-46.44732623165211
 30
-2.0
 11
53.353614076684146
 21
-46.44732623165211
 31
0.0
  0
LINE
  5
136
330
17
100
AcDbEntity
  8
0
100
AcDbLine
 10
57.94786230859095
 20
-40.98960578499201
 30
-2.0
 11
53.35361407668414
 21
-46.447326231652106
 31
-2.0
  0
LINE
  5
137
330
17
100
AcDbEntity
  8
0
100
AcDbLine
 10
57.947862308590956
 20
-40.98960578499201
 30
-2.0
 11
57.947862308590956
 21
-40.98960578499201
 31
0.0
  0
LINE
  5
138
330
17
100
AcDbEntity
  8
0
100
AcDbLine
 10
57.92791049955023
 20
-39.929034135933094
 30
-2.0
 11
57.94786230859095
 21
-40.98960578499202
 31
-2.0
  0
LINE
  5
139
330
17
100
AcDbEntity
  8
0
100
AcDbLine
 10
57.92791049955023
 20
-39.929034135933094
 30
-2.0
 11
57.92791049955023
 21
-39.929034135933094
 31
0.0
  0
LINE
  5
13A
330
17
100
AcDbEntity
  8
0
100
AcDbLine
 10
57.64591141764858
 20
-36.594525083915556
 30
-2.0000000000000004
 11
57.92791049955024
 21
-39.929034135933094
 31
-2.0000000000000004
  0
LINE
  5
13B
330
17
100
AcDbEntity
  8
0
100
AcDbLine
 10
57.64591141764857
 20
-36.594525083915556
 30
-1.999999999999996
 11
57.64591141764857
 21
-36.594525083915556
 31
3.552713678800501e-15
  0
ARC
  5
13C
330
17
100
AcDbEntity
  8
0
100
AcDbCircle
 10
56.31123796318026
 20
-33.19730089791581
 30
-2.0
 40
3.6499979999999996
100
AcDbArc
 50
78.21952926714967
 51
291.44846198621065
  0
LINE
  5
13D
330
17
100
AcDbEntity
  8
0
100
AcDbLine
 10
57.05643028933373
 20
-29.624182680301676
 30
-2.000000000000006
 11
57.05643028933373
 21
-29.624182680301676
 31
-6.217248937900877e-15
  0
LINE
  5
13E
330
17
100
AcDbEntity
  8
0
100
AcDbLine
 10
56.51355246368909
 20
-23.204902831784565
 30
-2.0000000000000004
 11
57.05643028933373
 21
-29.624182680301672
 31
-2.0000000000000004
  0
LINE
  5
13F
330
17
100
AcDbEntity
  8
0
100
AcDbLine
 10
56.51355246368909
 20
-23.204902831784565
 30
-2.0
 11
56.51355246368909
 21
-23.204902831784565
 31
0.0
  0
LINE
  5
140
330
17
100
AcDbEntity
  8
0
100
AcDbLine
 10
56.16302012329701
 20
-15.05
 30
-2.0
 11
56.51355246368908
 21
-23.204902831784565
 31
-2.0
  0
LINE
  5
141
330
17
100
AcDbEntity
  8
0
100
AcDbLine
 10
56.163020123297024
 20
-15.05
 30
-2.0
 11
56.163020123297024
 21
-15.05
 31
0.0
  0
LINE
  5
142
330
17
100
AcDbEntity
  8
0
100
AcDbLine
 10
56.163020123296825
 20
-15.050000000000002
 30
-2.0
 11
56.16302012329704
 21
3.0500000000000007
 31
-2.0
  0
LINE
  5
143
330
17
100
AcDbEntity
  8
0
100
AcDbLine
 10
56.163020123297024
 20
3.0500000000000007
 30
-2.0
 11
56.163020123297024
 21
3.0500000000000007
 31
0.0
  0
LINE
  5
144
330
17
100
AcDbEntity
  8
0
100
AcDbLine
 10
56.513552463689095
 20
11.204902831784565
 30
-2.0
 11
56.16302012329703
 21
3.049999999999999
 31
-2.0
  0
LINE
  5
145
330
17
100
AcDbEntity
  8
0
100
AcDbLine
 10
56.51355246368909
 20
11.204902831784565
 30
-2.0
 11
56.51355246368909
 21
11.204902831784565
 31
0.0
  0
LINE
  5
146
330
17
100
AcDbEntity
  8
0
100
AcDbLine
 10
56.51355246368909
 20
11.204902831784565
 30
-2.0
 11
57.05643028933373
 21
17.62418268030168
 31
-2.0
  0
LINE
  5
147
330
17
100
AcDbEntity
  8
0
100
AcDbLine
 10
57.05643028933374
 20
17.62418268030168
 30
-2.0000000000000036
 11
57.05643028933374
 21
17.62418268030168
 31
-3.552713678800501e-15
  0
ARC
  5
148
330
17
100
AcDbEntity
  8
0
100
AcDbCircle
 10
56.31123796318026
 20
21.197300897915806
 30
-2.0
 40
3.6499979999999996
100
AcDbArc
 50
68.55153801378921
 51
281.78047073285046
  0
LINE
  5
149
330
17
100
AcDbEntity
  8
0
100
AcDbLine
 10
57.64591141764858
 20
24.59452508391555
 30
-2.0000000000000036
 11
57.64591141764858
 21
24.59452508391555
 31
-3.552713678800501e-15
  0
LINE
  5
14A
330
17
100
AcDbEntity
  8
0
100
AcDbLine
 10
57.64591141764858
 20
24.59452508391555
 30
-2.0
 11
57.92791049955024
 21
27.929034135933094
 31
-2.0
  0
LINE
  5
14B
330
17
100
AcDbEntity
  8
0
100
AcDbLine
 10
57.92791049955023
 20
27.929034135933097
 30
-2.0
 11
57.92791049955023
 21
27.929034135933097
 31
0.0
  0
LINE
  5
14C
330
17
100
AcDbEntity
  8
0
100
AcDbLine
 10
57.927910499550144
 20
27.929034135933097
 30
-2.0
 11
57.94786230859091
 21
28.989605784992072
 31
-2.0
  0
LINE
  5
14D
330
17
100
AcDbEntity
  8
0
100
AcDbLine
 10
57.94786230859091
 20
28.989605784992072
 30
-2.0
 11
57.94786230859091
 21
28.989605784992072
 31
0.0
  0
LINE
  5
14E
330
17
100
AcDbEntity
  8
0
100
AcDbLine
 10
53.35361407668415
 20
34.44732623165212
 30
-1.9999999999999996
 11
57.94786230859096
 21
28.98960578499202
 31
-1.9999999999999996
  0
LINE
  5
14F
330
17
100
AcDbEntity
  8
0
100
AcDbLine
 10
53.353614076684146
 20
34.44732623165211
 30
-2.0
 11
53.353614076684146
 21
34.44732623165211
 31
0.0
  0
LINE
  5
150
330
17
100
AcDbEntity
  8
0
100
AcDbLine
 10
13.351865115549849
 20
34.447326231652106
 30
-2.0
 11
53.35361407668415
 21
34.447326231652106
 31
-2.0
  0
LINE
  5
151
330
17
100
AcDbEntity
  8
0
100
AcDbLine
 10
13.351865115549852
 20
34.44732623165211
 30
-2.0
 11
13.351865115549852
 21
34.44732623165211
 31
0.0
  0
LINE
  5
152
330
17
100
AcDbEntity
  8
0
100
AcDbLine
 10
13.351865115549849
 20
34.447326231652106
 30
-2.0
 11
7.929404222846491
 21
40.44732623165211
 31
-2.0
  0
LINE
  5
153
330
17
100
AcDbEntity
  8
0
100
AcDbLine
 10
7.9294042228464905
 20
40.44732623165211
 30
-2.0
 11
7.9294042228464905
 21
40.44732623165211
 31
0.0
  0
LINE
  5
154
330
17
100
AcDbEntity
  8
0
100
AcDbLine
 10
7.929404222846499
 20
40.44732623165211
 30
-2.0
 11
1.7231492999658395
 21
40.44732623165211
 31
-2.0
  0
LINE
  5
155
330
17
100
AcDbEntity
  8
0
100
AcDbLine
 10
1.7231492999658395
 20
40.44732623165211
 30
-2.0
 11
1.7231492999658395
 21
40.44732623165211
 31
0.0
  0
ARC
  5
156
330
17
100
AcDbEntity
  8
0
100
AcDbCircle
 10
-1.9208011001816854
 20
40.23730032546743
 30
-2.0
 40
3.6499979999999996
100
AcDbArc
 50
176.70129997691484
 51
363.2987000230851
  0
LINE
  5
157
330
17
100
AcDbEntity
  8
0
100
AcDbLine
 10
-5.56475150032921
 20
40.44732623165211
 30
-2.0
 11
-5.56475150032921
 21
40.44732623165211
 31
0.0
  0
LINE
  5
158
330
17
100
AcDbEntity
  8
0
100
AcDbLine
 10
-5.56475150032921
 20
40.44732623165211
 30
-2.0
 11
-9.53315452148854
 21
40.44732623165211
 31
-2.0
  0
LINE
  5
159
330
17
100
AcDbEntity
  8
0
100
AcDbLine
 10
-9.53315452148854
 20
40.44732623165211
 30
-2.0
 11
-9.53315452148854
 21
40.44732623165211
 31
0.0
  0
LINE
  5
15A
330
17
100
AcDbEntity
  8
0
100
AcDbLine
 10
-14.742414765353187
 20
43.267326231652106
 30
-2.0
 11
-9.533154521488541
 21
40.44732623165211
 31
-2.0
  0
LINE
  5
15B
330
17
100
AcDbEntity
  8
0
100
AcDbLine
 10
-14.742414765353187
 20
43.26732623165211
 30
-2.0
 11
-14.742414765353187
 21
43.26732623165211
 31
0.0
  0
LINE
  5
15C
330
17
100
AcDbEntity
  8
0
100
AcDbLine
 10
-14.742414765353187
 20
43.26732623165211
 30
-2.0
 11
-31.66455561117602
 21
43.26732623165211
 31
-2.0
  0
LINE
  5
15D
330
17
100
AcDbEntity
  8
0
100
AcDbLine
 10
-31.664555611176016
 20
43.26732623165211
 30
-2.0
 11
-31.664555611176016
 21
43.26732623165211
 31
0.0
  0
LINE
  5
15E
330
17
100
AcDbEntity
  8
0
100
AcDbLine
 10
-31.66455561117601
 20
43.267326231652106
 30
-2.0
 11
-34.57318793640328
 21
40.447326231652106
 31
-2.0
  0
LINE
  5
15F
330
17
100
AcDbEntity
  8
0
100
AcDbLine
 10
-34.573187936403286
 20
40.44732623165211
 30
-2.0
 11
-34.573187936403286
 21
40.44732623165211
 31
0.0
  0
LINE
  5
160
330
17
100
AcDbEntity
  8
0
100
AcDbLine
 10
-70.59985601079266
 20
40.44732623165211
 30
-2.0
 11
-34.573187936403286
 21
40.44732623165211
 31
-2.0
  0
LINE
  5
161
330
17
100
AcDbEntity
  8
0
100
AcDbLine
 10
-70.59985601079266
 20
40.44732623165211
 30
-2.0
 11
-70.59985601079266
 21
40.44732623165211
 31
0.0
  0
LINE
  5
162
330
17
100
AcDbEntity
  8
0
100
AcDbLine
 10
-70.59985601079266
 20
40.44732623165212
 30
-2.0
 11
-74.4665831781642
 21
37.95835137704282
 31
-2.0
  0
LINE
  5
163
330
17
100
AcDbEntity
  8
0
100
AcDbLine
 10
-74.4665831781642
 20
37.95835137704282
 30
-2.0
 11
-74.4665831781642
 21
37.95835137704282
 31
0.0
  0
LINE
  5
164
330
17
100
AcDbEntity
  8
0
100
AcDbLine
 10
-79.4665831781642
 20
31.958351377042817
 30
-2.0
 11
-74.4665831781642
 21
37.958351377042824
 31
-2.0
  0
LINE
  5
165
330
17
100
AcDbEntity
  8
0
100
AcDbLine
 10
-79.4665831781642
 20
31.958351377042813
 30
-2.0
 11
-79.4665831781642
 21
31.958351377042813
 31
0.0
  0
LINE
  5
166
330
17
100
AcDbEntity
  8
0
100
AcDbLine
 10
-80.12072330516679
 20
26.926904633832585
 30
-2.0
 11
-79.46658317816419
 21
31.95835137704281
 31
-2.0
  0
LINE
  5
167
330
17
100
AcDbEntity
  8
0
100
AcDbLine
 10
-80.1207233051668
 20
26.926904633832585
 30
-2.0
 11
-80.1207233051668
 21
26.926904633832585
 31
0.0
  0
ARC
  5
168
330
17
100
AcDbEntity
  8
0
100
AcDbCircle
 10
-80.64680639453347
 20
23.315018425341734
 30
-2.0
 40
3.6499979999999996
100
AcDbArc
 50
263.472053008422
 51
441.712956986062
  0
LINE
  5
169
330
17
100
AcDbEntity
  8
0
100
AcDbLine
 10
-81.06176672295784
 20
19.688685108361902
 30
-2.0
 11
-81.06176672295784
 21
19.688685108361902
 31
0.0
  0
LINE
  5
16A
330
17
100
AcDbEntity
  8
0
100
AcDbLine
 10
-81.7270296109027
 20
14.571685473640647
 30
-2.0
 11
-81.06176672295784
 21
19.688685108361902
 31
-2.0
  0
LINE
  5
16B
330
17
100
AcDbEntity
  8
0
100
AcDbLine
 10
-81.72702961090272
 20
14.571685473640649
 30
-2.0
 11
-81.72702961090272
 21
14.571685473640649
 31
0.0
  0
LINE
  5
16C
330
17
100
AcDbEntity
  8
0
100
AcDbLine
 10
-82.08613433440388
 20
8.95
 30
-2.0
 11
-81.72702961090272
 21
14.571685473640649
 31
-2.0
  0
LINE
  5
16D
330
17
100
AcDbEntity
  8
0
100
AcDbLine
 10
-82.08613433440388
 20
8.95
 30
-2.0
 11
-82.08613433440388
 21
8.95
 31
0.0
  0
LINE
  5
16E
330
17
100
AcDbEntity
  8
0
100
AcDbLine
 10
-82.08613433440387
 20
-8.95
 30
-2.0
 11
-82.08613433440387
 21
8.95
 31
-2.0
  0
LINE
  5
16F
330
17
100
AcDbEntity
  8
0
100
AcDbLine
 10
-82.08613433440388
 20
-8.95
 30
-2.0
 11
-82.08613433440388
 21
-8.95
 31
0.0
  0
LINE
  5
170
330
17
100
AcDbEntity
  8
0
100
AcDbLine
 10
-82.08613433440388
 20
-8.95
 30
-2.0
 11
-81.72702961090272
 21
-14.571685473640649
 31
-2.0
  0
LINE
  5
171
330
17
100
AcDbEntity
  8
0
100
AcDbLine
 10
-81.72702961090272
 20
-14.571685473640649
 30
-2.0
 11
-81.72702961090272
 21
-14.571685473640649
 31
0.0
  0
LINE
  5
172
330
17
100
AcDbEntity
  8
0
100
AcDbLine
 10
-81.72702961090272
 20
-14.571685473640649
 30
-2.0
 11
-80.54461597602115
 21
-23.666451238298542
 31
-2.0
  0
LINE
  5
173
330
17
100
AcDbEntity
  8
0
100
AcDbLine
 10
-80.54461597602115
 20
-23.666451238298542
 30
-2.0000000000000004
 11
-80.54461597602115
 21
-23.666451238298542
 31
0.0
  0
ARC
  5
174
330
17
100
AcDbEntity
  8
0
100
AcDbCircle
 10
-80.64680639453347
 20
-27.315018425341734
 30
-2.0
 40
3.6499979999999996
100
AcDbArc
 50
286.4193319472124
 51
448.39565805830324
  0
LINE
  5
175
330
17
100
AcDbEntity
  8
0
100
AcDbLine
 10
-79.61507927485398
 20
-30.816164602027573
 30
-2.0
 11
-79.61507927485398
 21
-30.816164602027573
 31
0.0
  0
LINE
  5
176
330
17
100
AcDbEntity
  8
0
100
AcDbLine
 10
-79.61507927485397
 20
-30.81616460202757
 30
-2.0
 11
-79.4665831781642
 21
-31.958351377042817
 31
-2.0
  0
LINE
  5
177
330
17
100
AcDbEntity
  8
0
100
AcDbLine
 10
-79.4665831781642
 20
-31.958351377042813
 30
-2.0
 11
-79.4665831781642
 21
-31.958351377042813
 31
0.0
  0
LINE
  5
178
330
17
100
AcDbEntity
  8
0
100
AcDbLine
 10
-79.4665831781642
 20
-32.05835137704281
 30
-2.0
 11
-79.4665831781642
 21
-31.958351377042813
 31
-2.0
  0
LINE
  5
179
330
17
100
AcDbEntity
  8
0
100
AcDbLine
 10
-79.4665831781642
 20
-32.05835137704281
 30
-2.0
 11
-79.4665831781642
 21
-32.05835137704281
 31
0.0
  0
LINE
  5
17A
330
17
100
AcDbEntity
  8
0
100
AcDbLine
 10
-86.40446415528356
 20
-35.523838935139175
 30
-2.0
 11
-79.4665831781642
 21
-32.05835137704282
 31
-2.0
  0
LINE
  5
17B
330
17
100
AcDbEntity
  8
0
100
AcDbLine
 10
-86.40446415528355
 20
-35.52383893513917
 30
-2.0
 11
-86.40446415528355
 21
-35.52383893513917
 31
0.0
  0
LINE
  5
17C
330
17
100
AcDbEntity
  8
0
100
AcDbLine
 10
-87.62841678496689
 20
-35.6309209149292
 30
-2.0
 11
-86.40446415528353
 21
-35.523838935139175
 31
-2.0
  0
LINE
  5
17D
330
17
100
AcDbEntity
  8
0
100
AcDbLine
 10
-87.62841678496687
 20
-35.6309209149292
 30
-2.0
 11
-87.62841678496687
 21
-35.6309209149292
 31
0.0
  0
LINE
  5
17E
330
17
100
AcDbEntity
  8
0
100
AcDbLine
 10
-87.62841678496689
 20
-35.630920914929185
 30
-2.0
 11
-92.57028736514252
 21
-51.84450030882429
 31
-2.0
  0
LINE
  5
17F
330
17
100
AcDbEntity
  8
0
100
AcDbLine
 10
-92.57028736514252
 20
-51.84450030882429
 30
-2.0
 11
-92.57028736514252
 21
-51.84450030882429
 31
0.0
  0
LINE
  5
180
330
17
100
AcDbEntity
  8
0
100
AcDbLine
 10
-92.57028736514252
 20
-51.84450030882429
 30
-1.9999999999999996
 11
-94.15799439382603
 21
-54.208254739536784
 31
-1.9999999999999996
  0
LINE
  5
181
330
17
100
AcDbEntity
  8
0
100
AcDbLine
 10
-94.15799439382602
 20
-54.20825473953678
 30
-2.0
 11
-94.15799439382602
 21
-54.20825473953678
 31
0.0
  0
LINE
  5
182
330
17
100
AcDbEntity
  8
0
100
AcDbLine
 10
-94.53001809681994
 20
-56.0964643169347
 30
-2.0
 11
-94.15799439382602
 21
-54.20825473953677
 31
-2.0
  0
LINE
  5
183
330
17
100
AcDbEntity
  8
0
100
AcDbLine
 10
-94.53001809681992
 20
-56.096464316934714
 30
-2.0
 11
-94.53001809681992
 21
-56.096464316934714
 31
0.0
  0
LINE
  5
184
330
17
100
AcDbEntity
  8
0
100
AcDbLine
 10
-94.53001809681992
 20
-56.096464316934714
 30
-2.0
 11
-94.8712720421332
 21
-57.72614271888272
 31
-2.0
  0
LINE
  5
185
330
17
100
AcDbEntity
  8
0
100
AcDbLine
 10
-94.8712720421332
 20
-57.72614271888272
 30
-2.0
 11
-94.8712720421332
 21
-57.72614271888272
 31
0.0
  0
LINE
  5
186
330
17
100
AcDbEntity
  8
0
100
AcDbLine
 10
-94.8712720421332
 20
-57.72614271888274
 30
-2.0
 11
-111.52778732336171
 21
-71.26724226206196
 31
-2.0
  0
LINE
  5
187
330
17
100
AcDbEntity
  8
0
100
AcDbLine
 10
-111.5277873233617
 20
-71.26724226206194
 30
-2.0
 11
-111.5277873233617
 21
-71.26724226206194
 31
0.0
  0
LINE
  5
188
330
17
100
AcDbEntity
  8
0
100
AcDbLine
 10
-111.52778732336171
 20
-71.26724226206196
 30
-2.0
 11
-98.61222221401232
 21
-87.5237303401137
 31
-2.0
  0
LINE
  5
189
330
17
100
AcDbEntity
  8
0
100
AcDbLine
 10
-98.61222221401233
 20
-87.52373034011372
 30
-2.0
 11
-98.61222221401233
 21
-87.52373034011372
 31
0.0
  0
LINE
  5
18A
330
17
100
AcDbEntity
  8
0
100
AcDbLine
 10
-98.61222221401232
 20
-87.52373034011369
 30
-2.0
 11
-80.51019755128999
 21
-95.47487087914375
 31
-2.0
  0
LINE
  5
18B
330
17
100
AcDbEntity
  8
0
100
AcDbLine
 10
-80.51019755129
 20
-95.47487087914378
 30
-1.9999999999999991
 11
-80.51019755129
 21
-95.47487087914378
 31
8.881784197001252e-16
  0
LINE
  5
18C
330
17
100
AcDbEntity
  8
0
100
AcDbLine
 10
-68.09219353084579
 20
-102.3269991800052
 30
-2.0
 11
-80.51019755129
 21
-95.47487087914378
 31
-2.0
  0
LINE
  5
18D
330
17
100
AcDbEntity
  8
0
100
AcDbLine
 10
-68.09219353084579
 20
-102.32699918000519
 30
-2.0
 11
-68.09219353084579
 21
-102.32699918000519
 31
0.0
  0
LINE
  5
18E
330
17
100
AcDbEntity
  8
0
100
AcDbLine
 10
-55.18233583704134
 20
-94.04855044288348
 30
-2.000000000000001
 11
-68.09219353084578
 21
-102.3269991800052
 31
-2.000000000000001
  0
LINE
  5
18F
330
17
100
AcDbEntity
  8
0
100
AcDbLine
 10
-55.18233583704136
 20
-94.04855044288347
 30
-1.999999999999997
 11
-55.18233583704136
 21
-94.04855044288347
 31
3.552713678800501e-15
  0
ARC
  5
190
330
17
100
AcDbEntity
  8
0
100
AcDbCircle
 10
-52.15577455866834
 20
-92.00835137704281
 30
-2.0
 40
3.6499979999999996
100
AcDbArc
 50
358.06737961899955
 51
573.9838330415619
  0
ENDSEC
  0
SECTION
  2
OBJECTS
  0
DICTIONARY
  5
A
330
0
100
AcDbDictionary
281
1
  3
ACAD_COLOR
350
B
  3
ACAD_GROUP
350
C
  3
ACAD_LAYOUT
350
D
  3
ACAD_MATERIAL
350
E
  3
ACAD_MLEADERSTYLE
350
F
  3
ACAD_MLINESTYLE
350
10
  3
ACAD_PLOTSETTINGS
350
11
  3
ACAD_PLOTSTYLENAME
350
12
  3
ACAD_SCALELIST
350
14
  3
ACAD_TABLESTYLE
350
15
  3
ACAD_VISUALSTYLE
350
16
  3
EZDXF_META
350
2D
  0
DICTIONARY
  5
B
330
A
100
AcDbDictionary
281
1
  0
DICTIONARY
  5
C
330
A
100
AcDbDictionary
281
1
  0
DICTIONARY
  5
D
330
A
100
AcDbDictionary
281
1
  3
Model
350
1A
  3
Layout1
350
1E
  0
DICTIONARY
  5
E
330
A
100
AcDbDictionary
281
1
  3
ByBlock
350
1F
  3
ByLayer
350
20
  3
Global
350
21
  0
DICTIONARY
  5
F
330
A
100
AcDbDictionary
281
1
  3
Standard
350
2C
  0
DICTIONARY
  5
10
330
A
100
AcDbDictionary
281
1
  3
Standard
350
22
  0
DICTIONARY
  5
11
330
A
100
AcDbDictionary
281
1
  0
ACDBDICTIONARYWDFLT
  5
12
330
A
100
AcDbDictionary
281
1
  3
Normal
350
13
100
AcDbDictionaryWithDefault
340
13
  0
ACDBPLACEHOLDER
  5
13
330
12
  0
DICTIONARY
  5
14
330
A
100
AcDbDictionary
281
1
  0
DICTIONARY
  5
15
330
A
100
AcDbDictionary
281
1
  0
DICTIONARY
  5
16
330
A
100
AcDbDictionary
281
1
  0
LAYOUT
  5
1A
330
D
100
AcDbPlotSettings
  1

  2
Adobe PDF
  4
A3
  6

 40
7.5
 41
20.0
 42
7.5
 43
20.0
 44
420.0
 45
297.0
 46
0.0
 47
0.0
 48
0.0
 49
0.0
140
0.0
141
0.0
142
1.0
143
1.0
 70
1024
 72
1
 73
1
 74
5
  7

 75
16
 76
0
 77
2
 78
300
147
1.0
148
0.0
149
0.0
100
AcDbLayout
  1
Model
 70
1
 71
0
 10
0.0
 20
0.0
 11
420.0
 21
297.0
 12
0.0
 22
0.0
 32
0.0
 14
1e+20
 24
1e+20
 34
1e+20
 15
-1e+20
 25
-1e+20
 35
-1e+20
146
0.0
 13
0.0
 23
0.0
 33
0.0
 16
1.0
 26
0.0
 36
0.0
 17
0.0
 27
1.0
 37
0.0
 76
1
330
17
  0
LAYOUT
  5
1E
330
D
100
AcDbPlotSettings
  1

  2
Adobe PDF
  4
A3
  6

 40
7.5
 41
20.0
 42
7.5
 43
20.0
 44
420.0
 45
297.0
 46
0.0
 47
0.0
 48
0.0
 49
0.0
140
0.0
141
0.0
142
1.0
143
1.0
 70
0
 72
1
 73
1
 74
5
  7

 75
16
 76
0
 77
2
 78
300
147
1.0
148
0.0
149
0.0
100
AcDbLayout
  1
Layout1
 70
1
 71
1
 10
0.0
 20
0.0
 11
420.0
 21
297.0
 12
0.0
 22
0.0
 32
0.0
 14
1e+20
 24
1e+20
 34
1e+20
 15
-1e+20
 25
-1e+20
 35
-1e+20
146
0.0
 13
0.0
 23
0.0
 33
0.0
 16
1.0
 26
0.0
 36
0.0
 17
0.0
 27
1.0
 37
0.0
 76
1
330
1B
  0
MATERIAL
  5
1F
102
{ACAD_REACTORS
330
E
102
}
330
E
100
AcDbMaterial
  1
ByBlock
  2

 70
0
 40
1.0
 71
1
 41
1.0
 91
-1023410177
 42
1.0
 72
1
  3

 73
1
 74
1
 75
1
 44
0.5
 73
0
 45
1.0
 46
1.0
 77
1
  4

 78
1
 79
1
170
1
 48
1.0
171
1
  6

172
1
173
1
174
1
140
1.0
141
1.0
175
1
  7

176
1
177
1
178
1
143
1.0
179
1
  8

270
1
271
1
272
1
145
1.0
146
1.0
273
1
  9

274
1
275
1
276
1
 42
1.0
 72
1
  3

 73
1
 74
1
 75
1
 94
63
  0
MATERIAL
  5
20
102
{ACAD_REACTORS
330
E
102
}
330
E
100
AcDbMaterial
  1
ByLayer
  2

 70
0
 40
1.0
 71
1
 41
1.0
 91
-1023410177
 42
1.0
 72
1
  3

 73
1
 74
1
 75
1
 44
0.5
 73
0
 45
1.0
 46
1.0
 77
1
  4

 78
1
 79
1
170
1
 48
1.0
171
1
  6

172
1
173
1
174
1
140
1.0
141
1.0
175
1
  7

176
1
177
1
178
1
143
1.0
179
1
  8

270
1
271
1
272
1
145
1.0
146
1.0
273
1
  9

274
1
275
1
276
1
 42
1.0
 72
1
  3

 73
1
 74
1
 75
1
 94
63
  0
MATERIAL
  5
21
102
{ACAD_REACTORS
330
E
102
}
330
E
100
AcDbMaterial
  1
Global
  2

 70
0
 40
1.0
 71
1
 41
1.0
 91
-1023410177
 42
1.0
 72
1
  3

 73
1
 74
1
 75
1
 44
0.5
 73
0
 45
1.0
 46
1.0
 77
1
  4

 78
1
 79
1
170
1
 48
1.0
171
1
  6

172
1
173
1
174
1
140
1.0
141
1.0
175
1
  7

176
1
177
1
178
1
143
1.0
179
1
  8

270
1
271
1
272
1
145
1.0
146
1.0
273
1
  9

274
1
275
1
276
1
 42
1.0
 72
1
  3

 73
1
 74
1
 75
1
 94
63
  0
MLINESTYLE
  5
22
102
{ACAD_REACTORS
330
10
102
}
330
10
100
AcDbMlineStyle
  2
Standard
 70
0
  3

 62
256
 51
90.0
 52
90.0
 71
2
 49
0.5
 62
256
  6
BYLAYER
 49
-0.5
 62
256
  6
BYLAYER
  0
MLEADERSTYLE
  5
2C
102
{ACAD_REACTORS
330
F
102
}
330
F
100
AcDbMLeaderStyle
179
2
170
2
171
1
172
0
 90
2
 40
0.0
 41
0.0
173
1
 91
-1056964608
 92
-2
290
1
 42
2.0
291
1
 43
8.0
  3
Standard
 44
4.0
300

342
29
174
1
175
1
176
0
178
1
 93
-1056964608
 45
4.0
292
0
297
0
 46
4.0
 94
-1056964608
 47
1.0
 49
1.0
140
1.0
294
1
141
0.0
177
0
142
1.0
295
0
296
0
143
3.75
271
0
272
9
273
9
  0
DICTIONARY
  5
2D
330
A
100
AcDbDictionary
280
1
281
1
  3
CREATED_BY_EZDXF
350
2E
  3
WRITTEN_BY_EZDXF
350
193
  0
DICTIONARYVAR
  5
2E
330
2D
100
DictionaryVariables
280
0
  1
0.18.1 @ 2023-01-07T09:51:50.590478+00:00
  0
DICTIONARYVAR
  5
193
330
2D
100
DictionaryVariables
280
0
  1
0.18.1 @ 2023-01-07T09:51:50.740378+00:00
  0
ENDSEC
  0
EOF
